SplineFontDB: 3.0
FontName: DDZDalet-Regular
FullName: DDZ Dalet Regular
FamilyName: DDZDalet
Weight: Regular
Copyright: MIT
Version: 2.0
ItalicAngle: 0
UnderlinePosition: -50
UnderlineWidth: 50
Ascent: 760
Descent: 240
sfntRevision: 0x00020000
LayerCount: 2
Layer: 0 1 "Back"  1
Layer: 1 1 "Fore"  0
NeedsXUIDChange: 1
XUID: [1021 588 1133928653 13757185]
FSType: 2
OS2Version: 3
OS2_WeightWidthSlopeOnly: 0
OS2_UseTypoMetrics: 1
CreationTime: 1239168599
ModificationTime: 1359995632
PfmFamily: 17
TTFWeight: 400
TTFWidth: 5
LineGap: 47
VLineGap: 0
Panose: 2 0 5 5 5 0 0 2 0 4
OS2TypoAscent: 0
OS2TypoAOffset: 1
OS2TypoDescent: 0
OS2TypoDOffset: 1
OS2TypoLinegap: 47
OS2WinAscent: -40
OS2WinAOffset: 1
OS2WinDescent: 7
OS2WinDOffset: 1
HheadAscent: -180
HheadAOffset: 1
HheadDescent: -7
HheadDOffset: 1
OS2SubXSize: 700
OS2SubYSize: 650
OS2SubXOff: 0
OS2SubYOff: 140
OS2SupXSize: 700
OS2SupYSize: 650
OS2SupXOff: 0
OS2SupYOff: 477
OS2StrikeYSize: 50
OS2StrikeYPos: 250
OS2Vendor: 'shyf'
OS2CodePages: 20000011.00000000
OS2UnicodeRanges: a00002af.4000205b.00000000.00000000
MarkAttachClasses: 1
DEI: 91125
TtTable: prep
PUSHW_1
 0
CALL
SVTCA[y-axis]
PUSHW_3
 1
 3
 2
CALL
SVTCA[x-axis]
PUSHW_3
 4
 4
 2
CALL
SVTCA[x-axis]
PUSHW_8
 4
 27
 22
 17
 12
 10
 0
 8
CALL
PUSHW_8
 5
 110
 90
 70
 50
 30
 0
 8
CALL
PUSHW_8
 6
 44
 32
 25
 19
 10
 0
 8
CALL
PUSHW_8
 7
 38
 32
 25
 19
 10
 0
 8
CALL
SVTCA[y-axis]
PUSHW_8
 1
 37
 32
 25
 19
 10
 0
 8
CALL
PUSHW_8
 2
 61
 50
 39
 28
 15
 0
 8
CALL
PUSHW_8
 3
 48
 39
 31
 19
 15
 0
 8
CALL
SVTCA[y-axis]
PUSHW_3
 8
 4
 7
CALL
PUSHW_1
 0
DUP
RCVT
RDTG
ROUND[Black]
RTG
WCVTP
EndTTInstrs
TtTable: fpgm
PUSHW_1
 0
FDEF
MPPEM
PUSHW_1
 9
LT
IF
PUSHB_2
 1
 1
INSTCTRL
EIF
PUSHW_1
 511
SCANCTRL
PUSHW_1
 68
SCVTCI
PUSHW_2
 9
 3
SDS
SDB
ENDF
PUSHW_1
 1
FDEF
DUP
DUP
RCVT
ROUND[Black]
WCVTP
PUSHB_1
 1
ADD
ENDF
PUSHW_1
 2
FDEF
PUSHW_1
 1
LOOPCALL
POP
ENDF
PUSHW_1
 3
FDEF
DUP
GC[cur]
PUSHB_1
 3
CINDEX
GC[cur]
GT
IF
SWAP
EIF
DUP
ROLL
DUP
ROLL
MD[grid]
ABS
ROLL
DUP

StartChar: .notdef
Encoding: 65536 -1 0
Width: 632
Flags: HW
LayerCount: 2
Fore
SplineSet
61 655 m 1,0,-1
 571 655 l 1,1,-1
 571 45 l 1,2,-1
 61 45 l 1,3,-1
 61 655 l 1,0,-1
601 15 m 1,4,-1
 601 685 l 1,5,-1
 31 685 l 1,6,-1
 31 15 l 1,7,-1
 601 15 l 1,4,-1
EndSplineSet
EndChar

StartChar: dollar
Encoding: 36 36 2
Width: 468
Flags: HW
LayerCount: 2
Fore
SplineSet
209.843 -76 m 1,0,-1
 209.843 40 l 1,1,-1
 76.6162 40 l 1,2,-1
 43.459 112 l 1,3,-1
 323.146 112 l 1,4,-1
 323.146 332 l 1,5,-1
 51 332 l 2,6,7
 40.0137 332 40.0137 332 30.1035 341.449 c 0,8,9
 21 350.129 21 350.129 21 362 c 2,10,-1
 21 630 l 2,11,12
 21 641.155 21 641.155 30.4492 650.385 c 0,13,14
 40.2939 660 40.2939 660 51 660 c 2,15,-1
 209.843 660 l 1,16,-1
 209.843 777 l 1,17,-1
 256.157 777 l 1,18,-1
 256.157 660 l 1,19,-1
 445 660 l 1,20,-1
 445 588 l 1,21,-1
 142.854 588 l 1,22,-1
 142.854 368 l 1,23,-1
 415 368 l 2,24,25
 425.707 368 425.707 368 435.551 358.385 c 0,26,27
 445 349.156 445 349.156 445 338 c 2,28,-1
 445 70 l 2,29,30
 445 58.1289 445 58.1289 435.896 49.4492 c 0,31,32
 425.986 40 425.986 40 415 40 c 2,33,-1
 256.157 40 l 1,34,-1
 256.157 -76 l 1,35,-1
 209.843 -76 l 1,0,-1
EndSplineSet
EndChar

StartChar: percent
Encoding: 37 37 3
Width: 702
Flags: HW
LayerCount: 2
Fore
SplineSet
181.595 25 m 1,0,-1
 462.993 675 l 1,1,-1
 520.405 675 l 1,2,-1
 239.007 25 l 1,3,-1
 181.595 25 l 1,0,-1
36 375 m 2,4,5
 32.1719 375 32.1719 375 28.7217 377.722 c 1,6,7
 26 381.172 26 381.172 26 385 c 2,8,-1
 26 665 l 2,9,10
 26 668.645 26 668.645 29.1777 671.822 c 128,-1,11
 32.3555 675 32.3555 675 36 675 c 2,12,-1
 219.087 675 l 2,13,14
 222.637 675 222.637 675 225.984 671.416 c 0,15,16
 229.685 667.453 229.685 667.453 230.653 662.924 c 1,17,-1
 228 385.134 l 2,18,19
 228 381.355 228 381.355 225.168 378.178 c 128,-1,20
 222.335 375 222.335 375 219.087 375 c 2,21,-1
 36 375 l 2,4,5
81 401 m 1,22,-1
 178.978 401 l 1,23,-1
 178.978 649 l 1,24,-1
 81 649 l 1,25,-1
 81 401 l 1,22,-1
474 35 m 2,26,-1
 474 315 l 2,27,28
 474 318.645 474 318.645 476.832 321.822 c 128,-1,29
 479.665 325 479.665 325 482.913 325 c 2,30,-1
 666 325 l 2,31,32
 669.645 325 669.645 325 672.822 321.822 c 128,-1,33
 676 318.645 676 318.645 676 315 c 2,34,-1
 676 35 l 2,35,36
 676 31.3555 676 31.3555 672.822 28.1777 c 128,-1,37
 669.645 25 669.645 25 666 25 c 2,38,-1
 482.913 25 l 2,39,40
 479.665 25 479.665 25 476.832 28.1777 c 128,-1,41
 474 31.3555 474 31.3555 474 35 c 2,26,-1
523.022 51 m 1,42,-1
 621 51 l 1,43,-1
 621 299 l 1,44,-1
 523.022 299 l 1,45,-1
 523.022 51 l 1,42,-1
EndSplineSet
EndChar

StartChar: ampersand
Encoding: 38 38 4
Width: 568
Flags: HW
LayerCount: 2
Fore
SplineSet
67 292 m 2,0,1
 67 296.079 67 296.079 71.8726 300.077 c 0,2,3
 82.1385 308.5 82.1385 308.5 98.2614 310.228 c 2,4,-1
 112.4 311.743 l 1,5,-1
 108.22 390 l 1,6,-1
 94 390 l 2,7,8
 84.4217 390 84.4217 390 76.2874 398.744 c 0,9,10
 67 408.728 67 408.728 67 420 c 2,11,-1
 67 630 l 2,12,13
 67 641.432 67 641.432 76.2841 650.716 c 128,-1,14
 85.5689 660 85.5689 660 97 660 c 2,15,-1
 253 660 l 1,16,-1
 253 777 l 1,17,-1
 325 777 l 1,18,-1
 325 660 l 1,19,-1
 511 660 l 1,20,-1
 511 588 l 1,21,-1
 197 588 l 1,22,-1
 197 368 l 1,23,-1
 395 368 l 1,24,-1
 395 332 l 1,25,-1
 197 332 l 1,26,-1
 197 112 l 1,27,-1
 511 112 l 1,28,-1
 511 40 l 1,29,-1
 325 40 l 1,30,-1
 325 -76 l 1,31,-1
 253 -76 l 1,32,-1
 253 40 l 1,33,-1
 97 40 l 2,34,35
 85.5685 40 85.5685 40 76.2843 49.2843 c 128,-1,36
 67 58.5685 67 58.5685 67 70 c 2,37,-1
 67 292 l 2,0,1
EndSplineSet
EndChar

StartChar: quotesingle
Encoding: 39 39 5
Width: 252
Flags: HW
LayerCount: 2
Fore
SplineSet
111.269 630 m 1,0,-1
 181.417 630 l 1,1,-1
 140.731 442 l 1,2,-1
 70.5827 442 l 1,3,-1
 111.269 630 l 1,0,-1
EndSplineSet
EndChar

StartChar: parenleft
Encoding: 40 40 6
Width: 310
Flags: HW
LayerCount: 2
Fore
SplineSet
87.8462 115.537 m 1,0,1
 61 227.268 61 227.268 61 350 c 0,2,3
 61 473.171 61 473.171 88.3543 584.995 c 0,4,5
 112.676 684.422 112.676 684.422 161.682 777 c 1,6,-1
 223.624 777 l 1,7,8
 132 580.409 132 580.409 132 350 c 0,9,10
 132 120.541 132 120.541 223.617 -76 c 1,11,-1
 161.675 -76 l 1,12,13
 112.803 16.205 112.803 16.205 87.8462 115.537 c 1,0,1
EndSplineSet
EndChar

StartChar: parenright
Encoding: 41 41 7
Width: 310
Flags: HW
LayerCount: 2
Fore
SplineSet
178 350 m 0,0,1
 178 578.762 178 578.762 86.0617 777 c 1,2,-1
 148.22 777 l 1,3,4
 197.316 683.524 197.316 683.524 221.655 584.456 c 0,5,6
 249 473.153 249 473.153 249 350 c 128,-1,7
 249 226.846 249 226.846 221.655 115.544 c 0,8,9
 197.342 16.5797 197.342 16.5797 148.32 -76 c 1,10,-1
 86.3829 -76 l 1,11,12
 178 120.535 178 120.535 178 350 c 0,0,1
EndSplineSet
EndChar

StartChar: asterisk
Encoding: 42 42 8
Width: 528
Flags: HW
LayerCount: 2
Fore
SplineSet
48.6766 343.096 m 1,0,-1
 231.347 440 l 1,1,-1
 48.6766 536.904 l 1,2,-1
 72.5869 578.03 l 1,3,-1
 247.765 467.567 l 1,4,-1
 239.959 675 l 1,5,-1
 288.041 675 l 1,6,-1
 280.235 467.567 l 1,7,-1
 455.413 578.03 l 1,8,-1
 479.323 536.904 l 1,9,-1
 296.653 440 l 1,10,-1
 479.323 343.096 l 1,11,-1
 455.354 301.868 l 1,12,-1
 280.235 411.178 l 1,13,-1
 288.036 205 l 1,14,-1
 239.964 205 l 1,15,-1
 247.765 411.178 l 1,16,-1
 72.6463 301.868 l 1,17,-1
 48.6766 343.096 l 1,0,-1
EndSplineSet
EndChar

StartChar: plus
Encoding: 43 43 9
Width: 484
Flags: HW
LayerCount: 2
Fore
SplineSet
217 325 m 1,0,-1
 32 325 l 1,1,-1
 32 375 l 1,2,-1
 217 375 l 1,3,-1
 217 560 l 1,4,-1
 267 560 l 1,5,-1
 267 375 l 1,6,-1
 452 375 l 1,7,-1
 452 325 l 1,8,-1
 267 325 l 1,9,-1
 267 140 l 1,10,-1
 217 140 l 1,11,-1
 217 325 l 1,0,-1
EndSplineSet
EndChar

StartChar: comma
Encoding: 44 44 10
Width: 252
Flags: HW
LayerCount: 2
Fore
SplineSet
111.244 110 m 1,0,-1
 181.378 110 l 1,1,-1
 140.756 -77 l 1,2,-1
 70.622 -77 l 1,3,-1
 111.244 110 l 1,0,-1
EndSplineSet
EndChar

StartChar: hyphen
Encoding: 45 45 11
Width: 543
Flags: HW
LayerCount: 2
Fore
SplineSet
61 375 m 1,0,-1
 481 375 l 1,1,-1
 481 325 l 1,2,-1
 61 325 l 1,3,-1
 61 375 l 1,0,-1
EndSplineSet
EndChar

StartChar: period
Encoding: 46 46 12
Width: 226
Flags: HW
LayerCount: 2
Fore
SplineSet
76 112 m 1,0,-1
 148 112 l 1,1,-1
 148 40 l 1,2,-1
 76 40 l 1,3,-1
 76 112 l 1,0,-1
EndSplineSet
EndChar

StartChar: slash
Encoding: 47 47 13
Width: 528
Flags: HW
LayerCount: 2
Fore
SplineSet
374.997 777 m 1,0,-1
 464.85 777 l 1,1,-1
 154.003 -76 l 1,2,-1
 64.1498 -76 l 1,3,-1
 374.997 777 l 1,0,-1
EndSplineSet
EndChar

StartChar: zero
Encoding: 48 48 14
Width: 688
Flags: HW
LayerCount: 2
Fore
SplineSet
162 40 m 2,0,1
 151.015 40 151.015 40 140.996 49.5518 c 0,2,3
 132 58.1299 132 58.1299 132 70 c 2,4,-1
 132 630 l 2,5,6
 132 641.155 132 641.155 141.449 650.385 c 0,7,8
 151.294 660 151.294 660 162 660 c 2,9,-1
 526 660 l 2,10,11
 536.706 660 536.706 660 546.551 650.385 c 0,12,13
 556 641.155 556 641.155 556 630 c 2,14,-1
 556 70 l 2,15,16
 556 58.1289 556 58.1289 546.896 49.4492 c 0,17,18
 536.985 40 536.985 40 526 40 c 2,19,-1
 162 40 l 2,0,1
434.146 588 m 1,20,-1
 253.854 588 l 1,21,-1
 253.854 112 l 1,22,-1
 434.146 112 l 1,23,-1
 434.146 588 l 1,20,-1
EndSplineSet
EndChar

StartChar: one
Encoding: 49 49 15
Width: 487
Flags: HW
LayerCount: 2
Fore
SplineSet
331.541 660 m 1,0,-1
 331.541 40 l 1,1,-1
 201.541 40 l 1,2,-1
 201.541 588 l 1,3,-1
 108 588 l 1,4,-1
 141.157 660 l 1,5,-1
 331.541 660 l 1,0,-1
EndSplineSet
EndChar

StartChar: two
Encoding: 50 50 16
Width: 688
Flags: HW
LayerCount: 2
Fore
SplineSet
162 40 m 2,0,1
 151.015 40 151.015 40 140.996 49.5518 c 0,2,3
 132 58.1299 132 58.1299 132 70 c 2,4,-1
 132 338 l 2,5,6
 132 349.156 132 349.156 141.449 358.385 c 0,7,8
 151.293 368 151.293 368 162 368 c 2,9,-1
 434.146 368 l 1,10,-1
 434.146 588 l 1,11,-1
 132 588 l 1,12,-1
 132 660 l 1,13,-1
 526 660 l 2,14,15
 536.706 660 536.706 660 546.551 650.385 c 0,16,17
 556 641.155 556 641.155 556 630 c 2,18,-1
 556 362 l 2,19,20
 556 350.129 556 350.129 546.896 341.449 c 0,21,22
 536.986 332 536.986 332 526 332 c 2,23,-1
 253.854 332 l 1,24,-1
 253.854 112 l 1,25,-1
 556 112 l 1,26,-1
 556 40 l 1,27,-1
 162 40 l 2,0,1
EndSplineSet
EndChar

StartChar: three
Encoding: 51 51 17
Width: 688
Flags: HW
LayerCount: 2
Fore
SplineSet
546.896 49.4492 m 0,0,1
 536.985 40 536.985 40 526 40 c 2,2,-1
 132 40 l 1,3,-1
 132 112 l 1,4,-1
 434.146 112 l 1,5,-1
 434.146 332 l 1,6,-1
 249 332 l 1,7,-1
 249 368 l 1,8,-1
 434.146 368 l 1,9,-1
 434.146 588 l 1,10,-1
 132 588 l 1,11,-1
 132 660 l 1,12,-1
 526 660 l 2,13,14
 536.706 660 536.706 660 546.551 650.385 c 0,15,16
 556 641.155 556 641.155 556 630 c 2,17,-1
 556 420 l 2,18,19
 556 408.568 556 408.568 546.715 399.284 c 128,-1,20
 537.431 390 537.431 390 528 390 c 2,21,-1
 513.904 390 l 1,22,-1
 509.052 312.059 l 1,23,-1
 523.038 310.309 l 2,24,25
 537.45 308.507 537.45 308.507 551.467 298.952 c 0,26,27
 556 295.861 556 295.861 556 292 c 2,28,-1
 556 70 l 2,29,30
 556 58.1289 556 58.1289 546.896 49.4492 c 0,0,1
EndSplineSet
EndChar

StartChar: four
Encoding: 52 52 18
Width: 653
Flags: HW
LayerCount: 2
Fore
SplineSet
418.146 40 m 1,0,-1
 418.146 215 l 1,1,-1
 116 215 l 1,2,-1
 116 660 l 1,3,-1
 237.854 660 l 1,4,-1
 237.854 252 l 1,5,-1
 418.146 252 l 1,6,-1
 418.146 427 l 1,7,-1
 540 427 l 1,8,-1
 540 40 l 1,9,-1
 418.146 40 l 1,0,-1
EndSplineSet
EndChar

StartChar: five
Encoding: 53 53 19
Width: 686
Flags: HW
LayerCount: 2
Fore
SplineSet
544.896 49.4492 m 0,0,1
 534.985 40 534.985 40 524 40 c 2,2,-1
 152.459 40 l 1,3,-1
 185.616 112 l 1,4,-1
 432.146 112 l 1,5,-1
 432.146 332 l 1,6,-1
 130 332 l 1,7,-1
 130 660 l 1,8,-1
 554 660 l 1,9,-1
 554 588 l 1,10,-1
 251.854 588 l 1,11,-1
 251.854 368 l 1,12,-1
 524 368 l 2,13,14
 534.706 368 534.706 368 544.551 358.385 c 0,15,16
 554 349.155 554 349.155 554 338 c 2,17,-1
 554 70 l 2,18,19
 554 58.1289 554 58.1289 544.896 49.4492 c 0,0,1
EndSplineSet
EndChar

StartChar: six
Encoding: 54 54 20
Width: 686
Flags: HW
LayerCount: 2
Fore
SplineSet
162 40 m 2,0,1
 151.015 40 151.015 40 140.996 49.5518 c 0,2,3
 132 58.1299 132 58.1299 132 70 c 2,4,-1
 132 630 l 2,5,6
 132 641.155 132 641.155 141.449 650.385 c 0,7,8
 151.294 660 151.294 660 162 660 c 2,9,-1
 533.541 660 l 1,10,-1
 500.384 588 l 1,11,-1
 253.854 588 l 1,12,-1
 253.854 415 l 1,13,-1
 526 415 l 2,14,15
 536.706 415 536.706 415 546.551 405.385 c 0,16,17
 556 396.155 556 396.155 556 385 c 2,18,-1
 556 70 l 2,19,20
 556 58.1289 556 58.1289 546.896 49.4492 c 0,21,22
 536.985 40 536.985 40 526 40 c 2,23,-1
 162 40 l 2,0,1
434.146 378 m 1,24,-1
 253.854 378 l 1,25,-1
 253.854 112 l 1,26,-1
 434.146 112 l 1,27,-1
 434.146 378 l 1,24,-1
EndSplineSet
EndChar

StartChar: seven
Encoding: 55 55 21
Width: 652
Flags: HW
LayerCount: 2
Fore
SplineSet
526.049 660 m 1,0,-1
 345.586 40 l 1,1,-1
 261.919 40 l 1,2,-1
 390.85 588 l 1,3,-1
 117 588 l 1,4,-1
 117 660 l 1,5,-1
 526.049 660 l 1,0,-1
EndSplineSet
EndChar

StartChar: eight
Encoding: 56 56 22
Width: 688
Flags: HW
LayerCount: 2
Fore
SplineSet
162 40 m 2,0,1
 151.015 40 151.015 40 140.996 49.5518 c 0,2,3
 132 58.1299 132 58.1299 132 70 c 2,4,-1
 132 292 l 2,5,6
 132 295.479 132 295.479 137.11 299.468 c 0,7,8
 148.751 308.552 148.751 308.552 163.585 310.265 c 2,9,-1
 177.654 311.888 l 1,10,-1
 173.162 390 l 1,11,-1
 159 390 l 2,12,13
 155.443 390 155.443 390 151.89 391.776 c 0,14,15
 145.696 394.874 145.696 394.874 140.784 399.785 c 0,16,17
 136.59 403.979 136.59 403.979 134.113 409.609 c 0,18,19
 132 414.411 132 414.411 132 420 c 2,20,-1
 132 630 l 2,21,22
 132 641.155 132 641.155 141.449 650.385 c 0,23,24
 151.294 660 151.294 660 162 660 c 2,25,-1
 526 660 l 2,26,27
 536.706 660 536.706 660 546.551 650.385 c 0,28,29
 556 641.155 556 641.155 556 630 c 2,30,-1
 556 420 l 2,31,32
 556 408.568 556 408.568 546.715 399.284 c 128,-1,33
 537.431 390 537.431 390 528 390 c 2,34,-1
 513.904 390 l 1,35,-1
 509.052 312.059 l 1,36,-1
 523.038 310.309 l 2,37,38
 537.45 308.507 537.45 308.507 551.467 298.952 c 0,39,40
 556 295.861 556 295.861 556 292 c 2,41,-1
 556 70 l 2,42,43
 556 58.1289 556 58.1289 546.896 49.4492 c 0,44,45
 536.985 40 536.985 40 526 40 c 2,46,-1
 162 40 l 2,0,1
434.146 588 m 1,47,-1
 253.854 588 l 1,48,-1
 253.854 368 l 1,49,-1
 434.146 368 l 1,50,-1
 434.146 588 l 1,47,-1
434.146 332 m 1,51,-1
 253.854 332 l 1,52,-1
 253.854 112 l 1,53,-1
 434.146 112 l 1,54,-1
 434.146 332 l 1,51,-1
EndSplineSet
EndChar

StartChar: nine
Encoding: 57 57 23
Width: 686
Flags: HW
LayerCount: 2
Fore
SplineSet
544.896 49.4492 m 0,0,1
 534.985 40 534.985 40 524 40 c 2,2,-1
 152.459 40 l 1,3,-1
 185.616 112 l 1,4,-1
 432.146 112 l 1,5,-1
 432.146 285 l 1,6,-1
 160 285 l 2,7,8
 149.015 285 149.015 285 139.104 294.449 c 0,9,10
 130 303.129 130 303.129 130 315 c 2,11,-1
 130 630 l 2,12,13
 130 641.155 130 641.155 139.449 650.385 c 0,14,15
 149.294 660 149.294 660 160 660 c 2,16,-1
 524 660 l 2,17,18
 534.706 660 534.706 660 544.551 650.385 c 0,19,20
 554 641.155 554 641.155 554 630 c 2,21,-1
 554 70 l 2,22,23
 554 58.1289 554 58.1289 544.896 49.4492 c 0,0,1
432.146 588 m 1,24,-1
 251.854 588 l 1,25,-1
 251.854 322 l 1,26,-1
 432.146 322 l 1,27,-1
 432.146 588 l 1,24,-1
EndSplineSet
EndChar

StartChar: colon
Encoding: 58 58 24
Width: 202
Flags: HW
LayerCount: 2
Fore
SplineSet
76 485 m 1,0,-1
 148 485 l 1,1,-1
 148 414 l 1,2,-1
 76 414 l 1,3,-1
 76 485 l 1,0,-1
76 111 m 1,4,-1
 148 111 l 1,5,-1
 148 40 l 1,6,-1
 76 40 l 1,7,-1
 76 111 l 1,4,-1
EndSplineSet
EndChar

StartChar: semicolon
Encoding: 59 59 25
Width: 255
Flags: HW
LayerCount: 2
Fore
SplineSet
117 484 m 1,0,-1
 189 484 l 1,1,-1
 189 412 l 1,2,-1
 117 412 l 1,3,-1
 117 484 l 1,0,-1
109.244 110 m 1,4,-1
 179.378 110 l 1,5,-1
 138.756 -77 l 1,6,-1
 68.622 -77 l 1,7,-1
 109.244 110 l 1,4,-1
EndSplineSet
EndChar

StartChar: less
Encoding: 60 60 26
Width: 566
Flags: HW
LayerCount: 2
Fore
SplineSet
30 392.375 m 1,0,-1
 473.36 608.513 l 1,1,-1
 501.691 549.585 l 1,2,-1
 91.9058 350 l 1,3,-1
 501.691 150.415 l 1,4,-1
 473.36 91.4869 l 1,5,-1
 30 307.625 l 1,6,-1
 30 392.375 l 1,0,-1
EndSplineSet
EndChar

StartChar: equal
Encoding: 61 61 27
Width: 524
Flags: HW
LayerCount: 2
Fore
SplineSet
61 475 m 1,0,-1
 481 475 l 1,1,-1
 481 425 l 1,2,-1
 61 425 l 1,3,-1
 61 475 l 1,0,-1
61 275 m 1,4,-1
 481 275 l 1,5,-1
 481 225 l 1,6,-1
 61 225 l 1,7,-1
 61 275 l 1,4,-1
EndSplineSet
EndChar

StartChar: greater
Encoding: 62 62 28
Width: 565
Flags: HW
LayerCount: 2
Fore
SplineSet
63.3087 150.415 m 1,0,-1
 473.094 350 l 1,1,-1
 63.3087 549.585 l 1,2,-1
 91.6397 608.513 l 1,3,-1
 535 392.375 l 1,4,-1
 535 307.625 l 1,5,-1
 91.6397 91.4869 l 1,6,-1
 63.3087 150.415 l 1,0,-1
EndSplineSet
EndChar

StartChar: question
Encoding: 63 63 29
Width: 583
Flags: HW
LayerCount: 2
Fore
SplineSet
61 338 m 2,0,1
 61 355.645 61 355.645 74.6777 369.322 c 128,-1,2
 88.3556 383 88.3556 383 106 383 c 2,3,-1
 446 383 l 1,4,-1
 446 608 l 1,5,-1
 162 608 l 1,6,-1
 162 550 l 1,7,-1
 61 550 l 1,8,-1
 61 630 l 2,9,10
 61 647.645 61 647.645 74.6777 661.322 c 128,-1,11
 88.3556 675 88.3556 675 106 675 c 2,12,-1
 502 675 l 2,13,14
 519.645 675 519.645 675 533.322 661.322 c 128,-1,15
 547 647.645 547 647.645 547 630 c 2,16,-1
 547 362 l 2,17,18
 547 344.355 547 344.355 533.322 330.678 c 128,-1,19
 519.645 317 519.645 317 502 317 c 2,20,-1
 162 317 l 1,21,-1
 162 235 l 1,22,-1
 61 235 l 1,23,-1
 61 338 l 2,0,1
61 127 m 1,24,-1
 162 127 l 1,25,-1
 162 25 l 1,26,-1
 61 25 l 1,27,-1
 61 127 l 1,24,-1
EndSplineSet
EndChar

StartChar: at
Encoding: 64 64 30
Width: 734
Flags: HW
LayerCount: 2
Fore
SplineSet
65.0275 81.3335 m 0,0,1
 61 86.1195 61 86.1195 61 91 c 2,2,-1
 61 608 l 2,3,4
 61 613.969 61 613.969 65.066 618.219 c 0,5,6
 68.6822 622 68.6822 622 74 622 c 2,7,-1
 659 622 l 2,8,9
 665.969 622 665.969 622 670.219 617.934 c 0,10,11
 674 614.318 674 614.318 674 608 c 2,12,-1
 674 242 l 2,13,14
 674 232 674 232 672 230 c 128,-1,15
 670 228 670 228 659 228 c 2,16,-1
 256 228 l 2,17,18
 250.751 228 250.751 228 245.426 232.898 c 0,19,20
 241 236.971 241 236.971 241 242 c 2,21,-1
 241 341 l 2,22,23
 241 345.698 241 345.698 245.016 349.232 c 0,24,25
 250.434 354 250.434 354 256 354 c 2,26,-1
 425 354 l 1,27,-1
 425 438 l 1,28,-1
 241 438 l 1,29,-1
 241 473 l 1,30,-1
 479 473 l 2,31,32
 483.645 473 483.645 473 488.822 467.822 c 128,-1,33
 494 462.645 494 462.645 494 458 c 2,34,-1
 494 263 l 1,35,-1
 605 263 l 1,36,-1
 605 587 l 1,37,-1
 128 587 l 1,38,-1
 128 112 l 1,39,-1
 674 112 l 1,40,-1
 674 78 l 1,41,-1
 74 78 l 2,42,43
 68.6954 78 68.6954 78 65.0275 81.3335 c 0,0,1
425 263 m 1,44,-1
 425 340 l 1,45,-1
 310 340 l 1,46,-1
 310 263 l 1,47,-1
 425 263 l 1,44,-1
EndSplineSet
EndChar

StartChar: A
Encoding: 65 65 31
Width: 689
Flags: HW
LayerCount: 2
Fore
SplineSet
324.706 528.262 m 1,0,-1
 154.793 40 l 1,1,-1
 17 40 l 1,2,-1
 250.693 660 l 1,3,-1
 398.846 660 l 1,4,-1
 633.279 40 l 1,5,-1
 311.366 40 l 1,6,-1
 311.366 112 l 1,7,-1
 469.997 112 l 1,8,-1
 324.706 528.262 l 1,0,-1
EndSplineSet
EndChar

StartChar: B
Encoding: 66 66 32
Width: 496
Flags: HW
LayerCount: 2
Fore
SplineSet
450.896 49.4492 m 0,0,1
 440.986 40 440.986 40 430 40 c 2,2,-1
 36 40 l 1,3,-1
 36 660 l 1,4,-1
 430 660 l 2,5,6
 440.706 660 440.706 660 450.551 650.385 c 0,7,8
 460 641.155 460 641.155 460 630 c 2,9,-1
 460 420 l 2,10,11
 460 408.568 460 408.568 450.715 399.284 c 128,-1,12
 441.432 390 441.432 390 432 390 c 2,13,-1
 417.904 390 l 1,14,-1
 413.052 312.059 l 1,15,-1
 427.038 310.309 l 2,16,17
 441.45 308.507 441.45 308.507 455.467 298.952 c 0,18,19
 460 295.86 460 295.86 460 292 c 2,20,-1
 460 70 l 2,21,22
 460 58.1289 460 58.1289 450.896 49.4492 c 0,0,1
338.146 588 m 1,23,-1
 157.854 588 l 1,24,-1
 157.854 368 l 1,25,-1
 338.146 368 l 1,26,-1
 338.146 588 l 1,23,-1
338.146 332 m 1,27,-1
 157.854 332 l 1,28,-1
 157.854 112 l 1,29,-1
 338.146 112 l 1,30,-1
 338.146 332 l 1,27,-1
EndSplineSet
EndChar

StartChar: C
Encoding: 67 67 33
Width: 489
Flags: HW
LayerCount: 2
Fore
SplineSet
66 40 m 2,0,1
 55.0146 40 55.0146 40 45.0947 49.458 c 0,2,3
 36 58.1299 36 58.1299 36 70 c 2,4,-1
 36 630 l 2,5,6
 36 641.155 36 641.155 45.4492 650.385 c 0,7,8
 55.2939 660 55.2939 660 66 660 c 2,9,-1
 437.541 660 l 1,10,-1
 404.384 588 l 1,11,-1
 157.451 588 l 1,12,-1
 157.451 112 l 1,13,-1
 437.541 112 l 1,14,-1
 404.384 40 l 1,15,-1
 66 40 l 2,0,1
EndSplineSet
EndChar

StartChar: D
Encoding: 68 68 34
Width: 496
Flags: HW
LayerCount: 2
Fore
SplineSet
450.896 49.4492 m 0,0,1
 440.986 40 440.986 40 430 40 c 2,2,-1
 36 40 l 1,3,-1
 36 660 l 1,4,-1
 430 660 l 2,5,6
 440.706 660 440.706 660 450.551 650.385 c 0,7,8
 460 641.155 460 641.155 460 630 c 2,9,-1
 460 70 l 2,10,11
 460 58.1289 460 58.1289 450.896 49.4492 c 0,0,1
338.146 588 m 1,12,-1
 157.854 588 l 1,13,-1
 157.854 112 l 1,14,-1
 338.146 112 l 1,15,-1
 338.146 588 l 1,12,-1
EndSplineSet
EndChar

StartChar: E
Encoding: 69 69 35
Width: 489
Flags: HW
LayerCount: 2
Fore
SplineSet
437.541 112 m 1,0,-1
 404.384 40 l 1,1,-1
 36 40 l 1,2,-1
 36 660 l 1,3,-1
 437.541 660 l 1,4,-1
 404.384 588 l 1,5,-1
 157.451 588 l 1,6,-1
 157.451 368 l 1,7,-1
 390 368 l 1,8,-1
 390 332 l 1,9,-1
 157.451 332 l 1,10,-1
 157.451 112 l 1,11,-1
 437.541 112 l 1,0,-1
EndSplineSet
EndChar

StartChar: F
Encoding: 70 70 36
Width: 468
Flags: HW
LayerCount: 2
Fore
SplineSet
157.451 332 m 1,0,-1
 157.451 40 l 1,1,-1
 36 40 l 1,2,-1
 36 660 l 1,3,-1
 437.541 660 l 1,4,-1
 404.384 588 l 1,5,-1
 157.451 588 l 1,6,-1
 157.451 368 l 1,7,-1
 390 368 l 1,8,-1
 390 332 l 1,9,-1
 157.451 332 l 1,0,-1
EndSplineSet
EndChar

StartChar: G
Encoding: 71 71 37
Width: 495
Flags: HW
LayerCount: 2
Fore
SplineSet
66 40 m 2,0,1
 55.0146 40 55.0146 40 45.0947 49.458 c 0,2,3
 36 58.1299 36 58.1299 36 70 c 2,4,-1
 36 630 l 2,5,6
 36 641.155 36 641.155 45.4492 650.385 c 0,7,8
 55.2939 660 55.2939 660 66 660 c 2,9,-1
 437.541 660 l 1,10,-1
 404.384 588 l 1,11,-1
 157.854 588 l 1,12,-1
 157.854 112 l 1,13,-1
 338.146 112 l 1,14,-1
 338.146 332 l 1,15,-1
 279.342 332 l 1,16,-1
 279.342 368 l 1,17,-1
 460 368 l 1,18,-1
 460 40 l 1,19,-1
 66 40 l 2,0,1
EndSplineSet
EndChar

StartChar: H
Encoding: 72 72 38
Width: 496
Flags: HW
LayerCount: 2
Fore
SplineSet
157.854 332 m 1,0,-1
 157.854 40 l 1,1,-1
 36 40 l 1,2,-1
 36 660 l 1,3,-1
 157.854 660 l 1,4,-1
 157.854 368 l 1,5,-1
 338.146 368 l 1,6,-1
 338.146 660 l 1,7,-1
 460 660 l 1,8,-1
 460 40 l 1,9,-1
 338.146 40 l 1,10,-1
 338.146 332 l 1,11,-1
 157.854 332 l 1,0,-1
EndSplineSet
EndChar

StartChar: I
Encoding: 73 73 39
Width: 203
Flags: HW
LayerCount: 2
Fore
SplineSet
166 660 m 1,0,-1
 166 40 l 1,1,-1
 36 40 l 1,2,-1
 36 660 l 1,3,-1
 166 660 l 1,0,-1
EndSplineSet
EndChar

StartChar: J
Encoding: 74 74 40
Width: 318
Flags: HW
LayerCount: 2
Fore
SplineSet
249.256 49.2842 m 128,-1,1
 239.973 40 239.973 40 228.541 40 c 2,2,-1
 44.1572 40 l 1,3,-1
 11 112 l 1,4,-1
 128.541 112 l 1,5,-1
 128.541 660 l 1,6,-1
 258.541 660 l 1,7,-1
 258.541 70 l 2,8,0
 258.541 58.5684 258.541 58.5684 249.256 49.2842 c 128,-1,1
EndSplineSet
EndChar

StartChar: K
Encoding: 75 75 41
Width: 490
Flags: HW
LayerCount: 2
Fore
SplineSet
36 40 m 1,0,-1
 36 660 l 1,1,-1
 157.307 660 l 1,2,-1
 157.307 40 l 1,3,-1
 36 40 l 1,0,-1
430.917 40 m 1,4,-1
 296.035 40 l 1,5,-1
 180.82 350 l 1,6,-1
 296.035 660 l 1,7,-1
 430.917 660 l 1,8,-1
 268.158 350 l 1,9,-1
 430.917 40 l 1,4,-1
EndSplineSet
EndChar

StartChar: L
Encoding: 76 76 42
Width: 466
Flags: HW
LayerCount: 2
Fore
SplineSet
404.384 112 m 1,0,-1
 437.541 40 l 1,1,-1
 36 40 l 1,2,-1
 36 660 l 1,3,-1
 157.451 660 l 1,4,-1
 157.451 112 l 1,5,-1
 404.384 112 l 1,0,-1
EndSplineSet
EndChar

StartChar: M
Encoding: 77 77 43
Width: 868
Flags: HW
LayerCount: 2
Fore
SplineSet
162.279 588 m 1,0,-1
 162.279 40 l 1,1,-1
 36 40 l 1,2,-1
 36 660 l 1,3,-1
 802 660 l 2,4,5
 813.432 660 813.432 660 822.716 650.715 c 128,-1,6
 832 641.432 832 641.432 832 630 c 2,7,-1
 832 40 l 1,8,-1
 705.721 40 l 1,9,-1
 705.721 588 l 1,10,-1
 489.829 588 l 1,11,-1
 489.829 40 l 1,12,-1
 378.171 40 l 1,13,-1
 378.171 588 l 1,14,-1
 162.279 588 l 1,0,-1
EndSplineSet
EndChar

StartChar: N
Encoding: 78 78 44
Width: 496
Flags: HW
LayerCount: 2
Fore
SplineSet
157.854 588 m 1,0,-1
 157.854 40 l 1,1,-1
 36 40 l 1,2,-1
 36 660 l 1,3,-1
 430 660 l 2,4,5
 440.706 660 440.706 660 450.551 650.385 c 0,6,7
 460 641.155 460 641.155 460 630 c 2,8,-1
 460 40 l 1,9,-1
 338.146 40 l 1,10,-1
 338.146 588 l 1,11,-1
 157.854 588 l 1,0,-1
EndSplineSet
EndChar

StartChar: O
Encoding: 79 79 45
Width: 496
Flags: HW
LayerCount: 2
Fore
SplineSet
66 40 m 2,0,1
 55.0146 40 55.0146 40 45.0947 49.458 c 0,2,3
 36 58.1299 36 58.1299 36 70 c 2,4,-1
 36 630 l 2,5,6
 36 641.155 36 641.155 45.4492 650.385 c 0,7,8
 55.2939 660 55.2939 660 66 660 c 2,9,-1
 430 660 l 2,10,11
 440.706 660 440.706 660 450.551 650.385 c 0,12,13
 460 641.155 460 641.155 460 630 c 2,14,-1
 460 70 l 2,15,16
 460 58.1289 460 58.1289 450.896 49.4492 c 0,17,18
 440.986 40 440.986 40 430 40 c 2,19,-1
 66 40 l 2,0,1
338.146 588 m 1,20,-1
 157.854 588 l 1,21,-1
 157.854 112 l 1,22,-1
 338.146 112 l 1,23,-1
 338.146 588 l 1,20,-1
EndSplineSet
EndChar

StartChar: P
Encoding: 80 80 46
Width: 475
Flags: HW
LayerCount: 2
Fore
SplineSet
157.854 285 m 1,0,-1
 157.854 40 l 1,1,-1
 36 40 l 1,2,-1
 36 660 l 1,3,-1
 430 660 l 2,4,5
 440.706 660 440.706 660 450.551 650.385 c 0,6,7
 460 641.155 460 641.155 460 630 c 2,8,-1
 460 315 l 2,9,10
 460 303.129 460 303.129 450.896 294.449 c 0,11,12
 440.985 285 440.985 285 430 285 c 2,13,-1
 157.854 285 l 1,0,-1
338.146 588 m 1,14,-1
 157.854 588 l 1,15,-1
 157.854 322 l 1,16,-1
 338.146 322 l 1,17,-1
 338.146 588 l 1,14,-1
EndSplineSet
EndChar

StartChar: Q
Encoding: 81 81 47
Width: 557
Flags: HW
LayerCount: 2
Fore
SplineSet
66 40 m 2,0,1
 55.0146 40 55.0146 40 45.0947 49.458 c 0,2,3
 36 58.1299 36 58.1299 36 70 c 2,4,-1
 36 630 l 2,5,6
 36 641.155 36 641.155 45.4492 650.385 c 0,7,8
 55.2939 660 55.2939 660 66 660 c 2,9,-1
 430 660 l 2,10,11
 440.706 660 440.706 660 450.551 650.385 c 0,12,13
 460 641.155 460 641.155 460 630 c 2,14,-1
 460 143.233 l 1,15,-1
 507.541 40 l 1,16,-1
 66 40 l 2,0,1
349.541 588 m 1,17,-1
 159.057 588 l 1,18,-1
 159.057 112 l 1,19,-1
 349.541 112 l 1,20,-1
 349.541 588 l 1,17,-1
EndSplineSet
EndChar

StartChar: R
Encoding: 82 82 48
Width: 513
Flags: HW
LayerCount: 2
Fore
SplineSet
158.029 588 m 1,0,-1
 158.029 40 l 1,1,-1
 36 40 l 1,2,-1
 36 660 l 1,3,-1
 429 660 l 2,4,5
 440.432 660 440.432 660 449.716 650.715 c 128,-1,6
 459 641.431 459 641.431 459 630 c 2,7,-1
 459 362 l 2,8,9
 459 350.568 459 350.568 449.715 341.284 c 128,-1,10
 440.432 332 440.432 332 429 332 c 2,11,-1
 329.723 332 l 1,12,-1
 459.829 40 l 1,13,-1
 364.296 40 l 1,14,-1
 253.505 368 l 1,15,-1
 338.617 368 l 1,16,-1
 338.617 588 l 1,17,-1
 158.029 588 l 1,0,-1
EndSplineSet
EndChar

StartChar: S
Encoding: 83 83 49
Width: 493
Flags: HW
LayerCount: 2
Fore
SplineSet
447.896 49.4492 m 0,0,1
 437.986 40 437.986 40 427 40 c 2,2,-1
 88.6162 40 l 1,3,-1
 55.459 112 l 1,4,-1
 335.146 112 l 1,5,-1
 335.146 332 l 1,6,-1
 63 332 l 2,7,8
 52.0137 332 52.0137 332 42.1035 341.449 c 0,9,10
 33 350.129 33 350.129 33 362 c 2,11,-1
 33 630 l 2,12,13
 33 641.155 33 641.155 42.4492 650.385 c 0,14,15
 52.2939 660 52.2939 660 63 660 c 2,16,-1
 457 660 l 1,17,-1
 457 588 l 1,18,-1
 154.854 588 l 1,19,-1
 154.854 368 l 1,20,-1
 427 368 l 2,21,22
 437.707 368 437.707 368 447.551 358.385 c 0,23,24
 457 349.156 457 349.156 457 338 c 2,25,-1
 457 70 l 2,26,27
 457 58.1289 457 58.1289 447.896 49.4492 c 0,0,1
EndSplineSet
EndChar

StartChar: T
Encoding: 84 84 50
Width: 462
Flags: HW
LayerCount: 2
Fore
SplineSet
274.954 588 m 1,0,-1
 274.954 40 l 1,1,-1
 187.046 40 l 1,2,-1
 187.046 588 l 1,3,-1
 19 588 l 1,4,-1
 19 660 l 1,5,-1
 443 660 l 1,6,-1
 443 588 l 1,7,-1
 274.954 588 l 1,0,-1
EndSplineSet
EndChar

StartChar: U
Encoding: 85 85 51
Width: 496
Flags: HW
LayerCount: 2
Fore
SplineSet
66 40 m 2,0,1
 55.0146 40 55.0146 40 45.0947 49.458 c 0,2,3
 36 58.1299 36 58.1299 36 70 c 2,4,-1
 36 660 l 1,5,-1
 157.854 660 l 1,6,-1
 157.854 112 l 1,7,-1
 338.146 112 l 1,8,-1
 338.146 660 l 1,9,-1
 460 660 l 1,10,-1
 460 40 l 1,11,-1
 66 40 l 2,0,1
EndSplineSet
EndChar

StartChar: V
Encoding: 86 86 52
Width: 689
Flags: HW
LayerCount: 2
Fore
SplineSet
633.279 660 m 1,0,-1
 398.846 40 l 1,1,-1
 250.693 40 l 1,2,-1
 17 660 l 1,3,-1
 154.793 660 l 1,4,-1
 324.755 171.6 l 1,5,-1
 494.717 660 l 1,6,-1
 633.279 660 l 1,0,-1
EndSplineSet
EndChar

StartChar: W
Encoding: 87 87 53
Width: 868
Flags: HW
LayerCount: 2
Fore
SplineSet
66 40 m 2,0,1
 54.5684 40 54.5684 40 45.2852 49.2852 c 128,-1,2
 36 58.5684 36 58.5684 36 70 c 2,3,-1
 36 660 l 1,4,-1
 162.279 660 l 1,5,-1
 162.279 112 l 1,6,-1
 378.171 112 l 1,7,-1
 378.171 660 l 1,8,-1
 489.829 660 l 1,9,-1
 489.829 112 l 1,10,-1
 705.721 112 l 1,11,-1
 705.721 660 l 1,12,-1
 832 660 l 1,13,-1
 832 70 l 2,14,15
 832 58.5684 832 58.5684 822.715 49.2842 c 128,-1,16
 813.431 40 813.431 40 802 40 c 2,17,-1
 66 40 l 2,0,1
EndSplineSet
EndChar

StartChar: X
Encoding: 88 88 54
Width: 600
Flags: HW
LayerCount: 2
Fore
SplineSet
268.211 225.674 m 1,0,-1
 177.611 40 l 1,1,-1
 30 40 l 1,2,-1
 208.296 350 l 1,3,-1
 30 660 l 1,4,-1
 177.611 660 l 1,5,-1
 268.211 474.326 l 1,6,-1
 358.809 660 l 1,7,-1
 506.42 660 l 1,8,-1
 328.124 350 l 1,9,-1
 506.42 40 l 1,10,-1
 358.809 40 l 1,11,-1
 268.211 225.674 l 1,0,-1
EndSplineSet
EndChar

StartChar: Y
Encoding: 89 89 55
Width: 569
Flags: HW
LayerCount: 2
Fore
SplineSet
300.356 326.374 m 1,0,-1
 300.356 40 l 1,1,-1
 204.537 40 l 1,2,-1
 204.537 326.336 l 1,3,-1
 15 660 l 1,4,-1
 161.919 660 l 1,5,-1
 252.446 474.312 l 1,6,-1
 342.975 660 l 1,7,-1
 490.542 660 l 1,8,-1
 300.356 326.374 l 1,0,-1
EndSplineSet
EndChar

StartChar: Z
Encoding: 90 90 56
Width: 483
Flags: HW
LayerCount: 2
Fore
SplineSet
460 112 m 1,0,-1
 460 40 l 1,1,-1
 36 40 l 1,2,-1
 36 138.578 l 1,3,-1
 327.28 588 l 1,4,-1
 36 588 l 1,5,-1
 36 660 l 1,6,-1
 460 660 l 1,7,-1
 460 561.422 l 1,8,-1
 168.72 112 l 1,9,-1
 460 112 l 1,0,-1
EndSplineSet
EndChar

StartChar: bracketleft
Encoding: 91 91 57
Width: 316
Flags: HW
LayerCount: 2
Fore
SplineSet
76 758 m 2,0,1
 76 764.761 76 764.761 82.1797 771.117 c 0,2,3
 87.8997 777 87.8997 777 94 777 c 2,4,-1
 147 777 l 1,5,-1
 147 -76 l 1,6,-1
 94 -76 l 2,7,8
 87.8995 -76 87.8995 -76 82.1798 -70.1169 c 0,9,10
 76 -63.7605 76 -63.7605 76 -57 c 2,11,-1
 76 758 l 2,0,1
EndSplineSet
EndChar

StartChar: backslash
Encoding: 92 92 58
Width: 528
Flags: HW
LayerCount: 2
Fore
SplineSet
63.1499 777 m 1,0,-1
 153.003 777 l 1,1,-1
 463.85 -76 l 1,2,-1
 373.997 -76 l 1,3,-1
 63.1499 777 l 1,0,-1
EndSplineSet
EndChar

StartChar: bracketright
Encoding: 93 93 59
Width: 317
Flags: HW
LayerCount: 2
Fore
SplineSet
169 -76 m 1,0,-1
 169 777 l 1,1,-1
 222 777 l 2,2,3
 228.1 777 228.1 777 233.82 771.117 c 0,4,5
 240 764.761 240 764.761 240 758 c 2,6,-1
 240 -57 l 2,7,8
 240 -63.7605 240 -63.7605 233.82 -70.1168 c 0,9,10
 228.1 -76 228.1 -76 222 -76 c 2,11,-1
 169 -76 l 1,0,-1
EndSplineSet
EndChar

StartChar: asciicircum
Encoding: 94 94 60
Width: 616
Flags: HW
LayerCount: 2
Fore
SplineSet
49.4869 231.64 m 1,0,-1
 265.625 675 l 1,1,-1
 350.375 675 l 1,2,-1
 566.513 231.64 l 1,3,-1
 507.585 203.309 l 1,4,-1
 308 613.094 l 1,5,-1
 108.415 203.309 l 1,6,-1
 49.4869 231.64 l 1,0,-1
EndSplineSet
EndChar

StartChar: underscore
Encoding: 95 95 61
Width: 420
Flags: HW
LayerCount: 2
Fore
SplineSet
405 -85 m 1,0,-1
 405 -107 l 1,1,-1
 15 -107 l 1,2,-1
 15 -85 l 1,3,-1
 405 -85 l 1,0,-1
EndSplineSet
EndChar

StartChar: grave
Encoding: 96 96 62
Width: 308
Flags: HW
LayerCount: 2
Fore
SplineSet
44 692.937 m 1,0,-1
 274 620.651 l 1,1,-1
 274 614.442 l 1,2,-1
 44 652.228 l 1,3,-1
 44 692.937 l 1,0,-1
EndSplineSet
EndChar

StartChar: a
Encoding: 97 97 63
Width: 448
Flags: HW
LayerCount: 2
Fore
SplineSet
66 40 m 2,0,1
 54.5684 40 54.5684 40 45.2852 49.2852 c 128,-1,2
 36 58.5684 36 58.5684 36 70 c 2,3,-1
 36 245 l 2,4,5
 36 255.432 36 255.432 45.2852 264.716 c 128,-1,6
 54.5693 274 54.5693 274 66 274 c 2,7,-1
 291.575 274 l 1,8,-1
 291.575 428 l 1,9,-1
 36 428 l 1,10,-1
 36 500 l 1,11,-1
 382 500 l 2,12,13
 393.432 500 393.432 500 402.666 490.764 c 0,14,15
 412 481.08 412 481.08 412 469.021 c 2,16,-1
 412 40 l 1,17,-1
 66 40 l 2,0,1
291.575 238 m 1,18,-1
 156.425 238 l 1,19,-1
 156.425 111 l 1,20,-1
 291.575 111 l 1,21,-1
 291.575 238 l 1,18,-1
EndSplineSet
EndChar

StartChar: b
Encoding: 98 98 64
Width: 433
Flags: HW
LayerCount: 2
Fore
SplineSet
402.715 89.2842 m 128,-1,1
 393.432 80 393.432 80 382 80 c 2,2,-1
 36 80 l 1,3,-1
 36 700 l 1,4,-1
 156.425 700 l 1,5,-1
 156.425 525 l 1,6,-1
 382 525 l 2,7,8
 393.432 525 393.432 525 402.716 515.715 c 128,-1,9
 412 506.432 412 506.432 412 495 c 2,10,-1
 412 110 l 2,11,0
 412 98.5693 412 98.5693 402.715 89.2842 c 128,-1,1
291.575 428 m 1,12,-1
 156.425 428 l 1,13,-1
 156.425 127 l 1,14,-1
 291.575 127 l 1,15,-1
 291.575 428 l 1,12,-1
EndSplineSet
EndChar

StartChar: c
Encoding: 99 99 65
Width: 441
Flags: HW
LayerCount: 2
Fore
SplineSet
66 55 m 2,0,1
 54.5684 55 54.5684 55 45.2852 64.2852 c 128,-1,2
 36 73.5684 36 73.5684 36 85 c 2,3,-1
 36 470 l 2,4,5
 36 481.432 36 481.432 45.2852 490.716 c 128,-1,6
 54.5693 500 54.5693 500 66 500 c 2,7,-1
 389.541 500 l 1,8,-1
 356.384 428 l 1,9,-1
 155.868 428 l 1,10,-1
 155.868 126 l 1,11,-1
 389.368 126 l 1,12,-1
 356.454 55 l 1,13,-1
 66 55 l 2,0,1
EndSplineSet
EndChar

StartChar: d
Encoding: 100 100 66
Width: 432
Flags: HW
LayerCount: 2
Fore
SplineSet
50 80 m 2,0,1
 38.5684 80 38.5684 80 29.3066 89.2627 c 128,-1,2
 20 98.5684 20 98.5684 20 110 c 2,3,-1
 20 495 l 2,4,5
 20 506.432 20 506.432 29.2852 515.716 c 128,-1,6
 38.5693 525 38.5693 525 50 525 c 2,7,-1
 275.575 525 l 1,8,-1
 275.575 700 l 1,9,-1
 396 700 l 1,10,-1
 396 80 l 1,11,-1
 50 80 l 2,0,1
275.575 428 m 1,12,-1
 140.425 428 l 1,13,-1
 140.425 127 l 1,14,-1
 275.575 127 l 1,15,-1
 275.575 428 l 1,12,-1
EndSplineSet
EndChar

StartChar: e
Encoding: 101 101 67
Width: 445
Flags: HW
LayerCount: 2
Fore
SplineSet
66 40 m 2,0,1
 54.5684 40 54.5684 40 45.2852 49.2852 c 128,-1,2
 36 58.5684 36 58.5684 36 70 c 2,3,-1
 36 469.221 l 2,4,5
 36 481.152 36 481.152 45.3242 490.754 c 0,6,7
 54.5693 500 54.5693 500 66 500 c 2,8,-1
 382 500 l 2,9,10
 393.432 500 393.432 500 402.677 490.754 c 0,11,12
 412 481.152 412 481.152 412 469.221 c 2,13,-1
 412 270.166 l 2,14,15
 412 257.835 412 257.835 402.638 247.869 c 128,-1,16
 393.366 238 393.366 238 382 238 c 2,17,-1
 156.425 238 l 1,18,-1
 156.425 111 l 1,19,-1
 389.368 111 l 1,20,-1
 356.454 40 l 1,21,-1
 66 40 l 2,0,1
291.575 428 m 1,22,-1
 156.425 428 l 1,23,-1
 156.425 274 l 1,24,-1
 291.575 274 l 1,25,-1
 291.575 428 l 1,22,-1
EndSplineSet
EndChar

StartChar: f
Encoding: 102 102 68
Width: 345
Flags: HW
LayerCount: 2
Fore
SplineSet
168.978 347 m 1,0,-1
 168.978 55 l 1,1,-1
 81 55 l 1,2,-1
 81 347 l 1,3,-1
 23 347 l 1,4,-1
 23 383 l 1,5,-1
 81 383 l 1,6,-1
 81 670 l 2,7,8
 81 681.432 81 681.432 90.2852 690.716 c 128,-1,9
 99.5684 700 99.5684 700 111 700 c 2,10,-1
 309.541 700 l 1,11,-1
 276.384 628 l 1,12,-1
 168.978 628 l 1,13,-1
 168.978 383 l 1,14,-1
 262 383 l 1,15,-1
 262 347 l 1,16,-1
 168.978 347 l 1,0,-1
EndSplineSet
EndChar

StartChar: g
Encoding: 103 103 69
Width: 445
Flags: HW
LayerCount: 2
Fore
SplineSet
63 0 m 2,0,1
 51.5684 0 51.5684 0 42.3076 9.2627 c 0,2,3
 33 18.7903 33 18.7903 33 30 c 2,4,-1
 33 496 l 2,5,6
 33 507.432 33 507.432 42.2852 516.716 c 128,-1,7
 51.5693 526 51.5693 526 63 526 c 2,8,-1
 409 526 l 1,9,-1
 409 -202 l 2,10,11
 409 -213.444 409 -213.444 399.715 -222.716 c 128,-1,12
 390.432 -232 390.432 -232 379 -232 c 2,13,-1
 88.6162 -232 l 1,14,-1
 55.459 -160 l 1,15,-1
 288.575 -160 l 1,16,-1
 288.575 0 l 1,17,-1
 63 0 l 2,0,1
288.575 413.187 m 5,18,-1
 153.425 413.187 l 5,19,-1
 153.425 112 l 1,20,-1
 288.575 112 l 1,21,-1
 288.575 413.187 l 5,18,-1
EndSplineSet
EndChar

StartChar: h
Encoding: 104 104 70
Width: 433
Flags: HW
LayerCount: 2
Fore
SplineSet
156.425 425.3 m 5,0,-1
 156.425 80 l 1,1,-1
 36 80 l 1,2,-1
 36 700 l 1,3,-1
 156.425 700 l 1,4,-1
 156.425 525 l 1,5,-1
 382 525 l 2,6,7
 393.432 525 393.432 525 402.716 515.715 c 128,-1,8
 412 506.432 412 506.432 412 495 c 2,9,-1
 412 80 l 1,10,-1
 291.575 80 l 1,11,-1
 291.575 425.3 l 5,12,-1
 156.425 425.3 l 5,0,-1
EndSplineSet
EndChar

StartChar: i
Encoding: 105 105 71
Width: 203
Flags: HW
LayerCount: 2
Fore
SplineSet
166 700 m 1,0,-1
 166 663 l 1,1,-1
 36 663 l 1,2,-1
 36 700 l 1,3,-1
 166 700 l 1,0,-1
166 500 m 1,4,-1
 166 55 l 1,5,-1
 36 55 l 1,6,-1
 36 500 l 1,7,-1
 166 500 l 1,4,-1
EndSplineSet
EndChar

StartChar: j
Encoding: 106 106 72
Width: 312
Flags: HW
LayerCount: 2
Fore
SplineSet
254.541 700 m 1,0,-1
 254.541 663 l 1,1,-1
 124.541 663 l 1,2,-1
 124.541 700 l 1,3,-1
 254.541 700 l 1,0,-1
224.541 -232 m 2,4,-1
 41.1572 -232 l 1,5,-1
 8 -160 l 1,6,-1
 124.541 -160 l 1,7,-1
 124.541 445 l 1,8,-1
 254.541 445 l 1,9,-1
 254.541 -202 l 2,10,11
 254.541 -212.707 254.541 -212.707 244.927 -222.551 c 0,12,13
 235.697 -232 235.697 -232 224.541 -232 c 2,4,-1
EndSplineSet
EndChar

StartChar: k
Encoding: 107 107 73
Width: 470
Flags: HW
LayerCount: 2
Fore
SplineSet
157.167 80 m 1,0,-1
 36 80 l 1,1,-1
 36 700 l 1,2,-1
 157.167 700 l 1,3,-1
 157.167 80 l 1,0,-1
279.339 278.043 m 1,4,-1
 423.73 55 l 1,5,-1
 289.097 55 l 1,6,-1
 192.551 277.5 l 1,7,-1
 289.097 500 l 1,8,-1
 423.566 500 l 1,9,-1
 279.339 278.043 l 1,4,-1
EndSplineSet
EndChar

StartChar: l
Encoding: 108 108 74
Width: 203
Flags: HW
LayerCount: 2
Fore
SplineSet
166 700 m 1,0,-1
 166 80 l 1,1,-1
 36 80 l 1,2,-1
 36 700 l 1,3,-1
 166 700 l 1,0,-1
EndSplineSet
EndChar

StartChar: m
Encoding: 109 109 75
Width: 776
Flags: HW
LayerCount: 2
Fore
SplineSet
161.698 428 m 1,0,-1
 161.698 55 l 1,1,-1
 36 55 l 1,2,-1
 36 500 l 1,3,-1
 710 500 l 2,4,5
 720.706 500 720.706 500 730.551 490.385 c 0,6,7
 740 481.155 740 481.155 740 470 c 2,8,-1
 740 55 l 1,9,-1
 614.302 55 l 1,10,-1
 614.302 428 l 1,11,-1
 442.343 428 l 1,12,-1
 442.343 55 l 1,13,-1
 333.657 55 l 1,14,-1
 333.657 428 l 1,15,-1
 161.698 428 l 1,0,-1
EndSplineSet
EndChar

StartChar: n
Encoding: 110 110 76
Width: 448
Flags: HW
LayerCount: 2
Fore
SplineSet
156.425 428 m 1,0,-1
 156.425 55 l 1,1,-1
 36 55 l 1,2,-1
 36 500 l 1,3,-1
 382 500 l 2,4,5
 393.432 500 393.432 500 402.716 490.715 c 128,-1,6
 412 481.432 412 481.432 412 470 c 2,7,-1
 412 55 l 1,8,-1
 291.575 55 l 1,9,-1
 291.575 428 l 1,10,-1
 156.425 428 l 1,0,-1
EndSplineSet
EndChar

StartChar: o
Encoding: 111 111 77
Width: 448
Flags: W
HStem: 55 63.5<156.425 291.575> 420.5 79.5<156.425 291.575>
VStem: 36 120.425<118.5 420.5> 291.575 120.425<118.5 420.5>
LayerCount: 2
Fore
SplineSet
66 55 m 2,0,1
 54.5684 55 54.5684 55 45.2852 64.2852 c 128,-1,2
 36 73.5684 36 73.5684 36 85 c 2,3,-1
 36 470 l 2,4,5
 36 481.432 36 481.432 45.2852 490.716 c 128,-1,6
 54.5693 500 54.5693 500 66 500 c 2,7,-1
 382 500 l 2,8,9
 393.432 500 393.432 500 402.716 490.715 c 128,-1,10
 412 481.432 412 481.432 412 470 c 2,11,-1
 412 85 l 2,12,13
 412 73.5693 412 73.5693 402.715 64.2842 c 128,-1,14
 393.432 55 393.432 55 382 55 c 2,15,-1
 66 55 l 2,0,1
291.575 420.5 m 1,16,-1
 156.425 420.5 l 1,17,-1
 156.425 118.5 l 1,18,-1
 291.575 118.5 l 1,19,-1
 291.575 420.5 l 1,16,-1
EndSplineSet
EndChar

StartChar: p
Encoding: 112 112 78
Width: 430
Flags: HW
LayerCount: 2
Fore
SplineSet
156.425 0 m 1,0,-1
 156.425 -233 l 1,1,-1
 36 -233 l 1,2,-1
 36 526 l 1,3,-1
 382 526 l 2,4,5
 393.432 526 393.432 526 402.716 516.715 c 128,-1,6
 412 507.454 412 507.454 412 496 c 2,7,-1
 412 30 l 2,8,9
 412 18.5687 412 18.5687 402.715 9.28418 c 128,-1,10
 393.432 0 393.432 0 382 0 c 2,11,-1
 156.425 0 l 1,0,-1
291.575 413 m 1,12,-1
 156.425 413 l 1,13,-1
 156.425 112 l 1,14,-1
 291.575 112 l 1,15,-1
 291.575 413 l 1,12,-1
EndSplineSet
EndChar

StartChar: q
Encoding: 113 113 79
Width: 430
Flags: HW
LayerCount: 2
Fore
SplineSet
48 0 m 2,0,1
 36.5684 0 36.5684 0 27.3076 9.2627 c 128,-1,2
 18 18.5922 18 18.5922 18 30 c 2,3,-1
 18 496 l 2,4,5
 18 507.432 18 507.432 27.2852 516.716 c 128,-1,6
 36.5693 526 36.5693 526 48 526 c 2,7,-1
 394 526 l 1,8,-1
 394 -231.2 l 1,9,-1
 273.575 -231.2 l 1,10,-1
 273.575 0 l 1,11,-1
 48 0 l 2,0,1
273.575 413.194 m 5,12,-1
 138.425 413.194 l 5,13,-1
 138.425 112 l 1,14,-1
 273.575 112 l 1,15,-1
 273.575 413.194 l 5,12,-1
EndSplineSet
EndChar

StartChar: r
Encoding: 114 114 80
Width: 377
Flags: HW
LayerCount: 2
Fore
SplineSet
152.569 428 m 1,0,-1
 152.569 55 l 1,1,-1
 36 55 l 1,2,-1
 36 470 l 2,3,4
 36 481.432 36 481.432 45.2852 490.716 c 128,-1,5
 54.5693 500 54.5693 500 66 500 c 2,6,-1
 346.541 500 l 1,7,-1
 313.384 428 l 1,8,-1
 152.569 428 l 1,0,-1
EndSplineSet
EndChar

StartChar: s
Encoding: 115 115 81
Width: 444
Flags: HW
LayerCount: 2
Fore
SplineSet
398.715 49.2842 m 128,-1,1
 389.432 40 389.432 40 378 40 c 2,2,-1
 87.5459 40 l 1,3,-1
 54.6318 111 l 1,4,-1
 287.575 111 l 1,5,-1
 287.575 238 l 1,6,-1
 62 238 l 2,7,8
 50.6338 238 50.6338 238 41.3623 247.87 c 128,-1,9
 32 257.835 32 257.835 32 270.166 c 2,10,-1
 32 469.221 l 2,11,12
 32 481.152 32 481.152 41.3242 490.754 c 0,13,14
 50.5693 500 50.5693 500 62 500 c 2,15,-1
 408 500 l 1,16,-1
 408 428 l 1,17,-1
 152.425 428 l 1,18,-1
 152.425 274 l 1,19,-1
 378 274 l 2,20,21
 389.432 274 389.432 274 398.716 264.715 c 128,-1,22
 408 255.432 408 255.432 408 245 c 2,23,-1
 408 70 l 2,24,0
 408 58.5693 408 58.5693 398.715 49.2842 c 128,-1,1
EndSplineSet
EndChar

StartChar: t
Encoding: 116 116 82
Width: 346
Flags: HW
LayerCount: 2
Fore
SplineSet
111 80 m 2,0,1
 99.5684 80 99.5684 80 90.2852 89.2852 c 128,-1,2
 81 98.5684 81 98.5684 81 110 c 2,3,-1
 81 488 l 1,4,-1
 23 488 l 1,5,-1
 23 525 l 1,6,-1
 81 525 l 1,7,-1
 81 700 l 1,8,-1
 168.978 700 l 1,9,-1
 168.978 525 l 1,10,-1
 262 525 l 1,11,-1
 262 488 l 1,12,-1
 168.978 488 l 1,13,-1
 168.978 152 l 1,14,-1
 276.384 152 l 1,15,-1
 309.541 80 l 1,16,-1
 111 80 l 2,0,1
EndSplineSet
EndChar

StartChar: u
Encoding: 117 117 83
Width: 448
Flags: HW
LayerCount: 2
Fore
SplineSet
66 55 m 2,0,1
 54.5684 55 54.5684 55 45.2852 64.2852 c 128,-1,2
 36 73.5684 36 73.5684 36 85 c 2,3,-1
 36 500 l 1,4,-1
 156.425 500 l 1,5,-1
 156.425 126 l 1,6,-1
 291.575 126 l 1,7,-1
 291.575 500 l 1,8,-1
 412 500 l 1,9,-1
 412 55 l 1,10,-1
 66 55 l 2,0,1
EndSplineSet
EndChar

StartChar: v
Encoding: 118 118 84
Width: 546
Flags: HW
LayerCount: 2
Fore
SplineSet
489.146 500 m 1,0,-1
 319.499 55 l 1,1,-1
 185.704 55 l 1,2,-1
 18 500 l 1,3,-1
 151.792 500 l 1,4,-1
 253.229 182.916 l 1,5,-1
 352.696 500 l 1,6,-1
 489.146 500 l 1,0,-1
EndSplineSet
EndChar

StartChar: w
Encoding: 119 119 85
Width: 776
Flags: HW
LayerCount: 2
Fore
SplineSet
66 55 m 2,0,1
 55.0146 55 55.0146 55 45.0947 64.458 c 0,2,3
 36 73.1299 36 73.1299 36 85 c 2,4,-1
 36 500 l 1,5,-1
 161.698 500 l 1,6,-1
 161.698 126 l 1,7,-1
 333.657 126 l 1,8,-1
 333.657 500 l 1,9,-1
 442.343 500 l 1,10,-1
 442.343 126 l 1,11,-1
 614.302 126 l 1,12,-1
 614.302 500 l 1,13,-1
 740 500 l 1,14,-1
 740 85 l 2,15,16
 740 73.1289 740 73.1289 730.896 64.4492 c 0,17,18
 720.985 55 720.985 55 710 55 c 2,19,-1
 66 55 l 2,0,1
EndSplineSet
EndChar

StartChar: x
Encoding: 120 120 86
Width: 484
Flags: HW
LayerCount: 2
Fore
SplineSet
208.194 180.113 m 1,0,-1
 154.163 55 l 1,1,-1
 30.1533 55 l 1,2,-1
 166.887 276.958 l 1,3,-1
 30 500 l 1,4,-1
 154.068 500 l 1,5,-1
 208.194 373.226 l 1,6,-1
 262.323 500 l 1,7,-1
 386.391 500 l 1,8,-1
 249.503 276.958 l 1,9,-1
 386.238 55 l 1,10,-1
 262.228 55 l 1,11,-1
 208.194 180.113 l 1,0,-1
EndSplineSet
EndChar

StartChar: y
Encoding: 121 121 87
Width: 446
Flags: HW
LayerCount: 2
Fore
SplineSet
64 0 m 2,0,1
 52.5684 0 52.5684 0 43.3076 9.2627 c 128,-1,2
 34 18.5684 34 18.5684 34 30 c 2,3,-1
 34 445 l 1,4,-1
 154.425 445 l 1,5,-1
 154.425 72 l 1,6,-1
 289.575 72 l 1,7,-1
 289.575 445 l 1,8,-1
 410 445 l 1,9,-1
 410 -203 l 2,10,11
 410 -214.431 410 -214.431 400.715 -223.716 c 128,-1,12
 391.432 -233 391.432 -233 380 -233 c 2,13,-1
 89.6162 -233 l 1,14,-1
 56.459 -161 l 1,15,-1
 289.575 -161 l 1,16,-1
 289.575 0 l 1,17,-1
 64 0 l 2,0,1
EndSplineSet
EndChar

StartChar: z
Encoding: 122 122 88
Width: 439
Flags: HW
LayerCount: 2
Fore
SplineSet
412 126 m 1,0,-1
 412 55 l 1,1,-1
 36 55 l 1,2,-1
 36 148.918 l 1,3,-1
 281.713 428 l 1,4,-1
 36 428 l 1,5,-1
 36 500 l 1,6,-1
 412 500 l 1,7,-1
 412 405.082 l 1,8,-1
 166.287 126 l 1,9,-1
 412 126 l 1,0,-1
EndSplineSet
EndChar

StartChar: braceleft
Encoding: 123 123 89
Width: 360
Flags: HW
LayerCount: 2
Fore
SplineSet
116 262 m 2,0,1
 116 305.922 116 305.922 84.1246 334.352 c 0,2,3
 73.9655 343.413 73.9655 343.413 61.4494 350.103 c 1,4,5
 74.2402 357.059 74.2402 357.059 84.5651 366.547 c 0,6,7
 116 395.434 116 395.434 116 437 c 2,8,-1
 116 758 l 2,9,10
 116 764.079 116 764.079 122.558 771.012 c 0,11,12
 128.223 777 128.223 777 134 777 c 2,13,-1
 188 777 l 1,14,-1
 188 408 l 2,15,16
 188 402.167 188 402.167 182.556 396.021 c 0,17,18
 177.577 390.399 177.577 390.399 171.378 389.836 c 2,19,-1
 157.798 388.601 l 1,20,-1
 157.451 311.556 l 1,21,-1
 171.02 310.199 l 2,22,23
 176.149 309.686 176.149 309.686 182.396 303.06 c 0,24,25
 188 297.116 188 297.116 188 292 c 2,26,-1
 188 -76 l 1,27,-1
 134 -76 l 2,28,29
 128.223 -76 128.223 -76 122.559 -70.012 c 0,30,31
 116 -63.0785 116 -63.0785 116 -57 c 2,32,-1
 116 262 l 2,0,1
EndSplineSet
EndChar

StartChar: bar
Encoding: 124 124 90
Width: 226
Flags: HW
LayerCount: 2
Fore
SplineSet
76 777 m 1,0,-1
 148 777 l 1,1,-1
 148 -76 l 1,2,-1
 76 -76 l 1,3,-1
 76 777 l 1,0,-1
EndSplineSet
EndChar

StartChar: braceright
Encoding: 125 125 91
Width: 360
Flags: HW
LayerCount: 2
Fore
SplineSet
172 -76 m 1,0,-1
 172 292 l 2,1,2
 172 297.47 172 297.47 177.521 303.509 c 128,-1,3
 183.2 309.72 183.2 309.72 187.98 310.199 c 2,4,-1
 201.52 311.553 l 1,5,-1
 201.338 388.53 l 1,6,-1
 187.793 389.82 l 2,7,8
 182.489 390.325 182.489 390.325 177.444 396.021 c 0,9,10
 172 402.167 172 402.167 172 408 c 2,11,-1
 172 777 l 1,12,-1
 226 777 l 2,13,14
 231.776 777 231.776 777 237.441 771.012 c 0,15,16
 244 764.079 244 764.079 244 758 c 2,17,-1
 244 437 l 2,18,19
 244 395.758 244 395.758 274.535 366.919 c 0,20,21
 285.149 356.895 285.149 356.895 298.218 349.925 c 1,22,23
 286.035 343.413 286.035 343.413 275.875 334.352 c 0,24,25
 244 305.923 244 305.923 244 262 c 2,26,-1
 244 -57 l 2,27,28
 244 -63.0784 244 -63.0784 237.441 -70.0121 c 0,29,30
 231.777 -76 231.777 -76 226 -76 c 2,31,-1
 172 -76 l 1,0,-1
EndSplineSet
EndChar

StartChar: asciitilde
Encoding: 126 126 92
Width: 534
Flags: HW
LayerCount: 2
Fore
SplineSet
69 379.08 m 1,0,1
 89.4276 405.656 89.4276 405.656 106.323 414.977 c 0,2,3
 126.303 426 126.303 426 145 426 c 0,4,5
 169.215 426 169.215 426 193.738 414.682 c 0,6,7
 224.689 400.396 224.689 400.396 255.712 382.737 c 0,8,9
 289.476 363.518 289.476 363.518 322.303 347.884 c 0,10,11
 361.963 329 361.963 329 401 329 c 0,12,13
 432.474 329 432.474 329 463 345.138 c 1,14,-1
 463 323.353 l 1,15,16
 445.828 293.959 445.828 293.959 431.312 284.282 c 0,17,18
 415.888 274 415.888 274 401 274 c 0,19,20
 380.038 274 380.038 274 356.697 285.114 c 0,21,22
 326.525 299.482 326.525 299.482 295.288 317.263 c 0,23,24
 261.308 336.605 261.308 336.605 227.263 352.318 c 0,25,26
 186.786 371 186.786 371 145 371 c 0,27,28
 106.412 371 106.412 371 69 350.268 c 1,29,-1
 69 379.08 l 1,0,1
EndSplineSet
EndChar

StartChar: exclamdown
Encoding: 161 161 93
Width: 226
Flags: HW
LayerCount: 2
Fore
SplineSet
76 660 m 1,0,-1
 148 660 l 1,1,-1
 148 588 l 1,2,-1
 76 588 l 1,3,-1
 76 660 l 1,0,-1
76 450 m 1,4,-1
 148 450 l 1,5,-1
 148 40 l 1,6,-1
 76 40 l 1,7,-1
 76 450 l 1,4,-1
EndSplineSet
EndChar

StartChar: cent
Encoding: 162 162 94
Width: 617
Flags: HW
LayerCount: 2
Fore
SplineSet
69.6384 165.943 m 1,0,1
 61 175.535 61 175.535 61 187 c 2,2,-1
 61 513 l 2,3,4
 61 524.155 61 524.155 70.4495 533.385 c 0,5,6
 80.2937 543 80.2937 543 91 543 c 2,7,-1
 277 543 l 1,8,-1
 277 660 l 1,9,-1
 349 660 l 1,10,-1
 349 543 l 1,11,-1
 542.368 543 l 1,12,-1
 509.454 472 l 1,13,-1
 191 472 l 1,14,-1
 191 228 l 1,15,-1
 542.368 228 l 1,16,-1
 509.454 157 l 1,17,-1
 349 157 l 1,18,-1
 349 40 l 1,19,-1
 277 40 l 1,20,-1
 277 157 l 1,21,-1
 91 157 l 2,22,23
 80.4115 157 80.4115 157 69.6384 165.943 c 1,0,1
EndSplineSet
EndChar

StartChar: sterling
Encoding: 163 163 95
Width: 677
Flags: HW
LayerCount: 2
Fore
SplineSet
68 112 m 1,0,-1
 120.384 112 l 1,1,-1
 131.193 134.968 l 2,2,3
 148.091 170.876 148.091 170.876 161.288 208.88 c 0,4,5
 175.208 248.971 175.208 248.971 180.72 295.271 c 2,6,-1
 186.044 340 l 1,7,-1
 114 340 l 1,8,-1
 114 360 l 1,9,-1
 187.888 360 l 1,10,-1
 174.683 410.18 l 2,11,12
 169.517 429.812 169.517 429.812 162.335 453.919 c 0,13,14
 155.617 476.473 155.617 476.473 149.852 500.014 c 0,15,16
 144.15 523.296 144.15 523.296 139.867 547.086 c 0,17,18
 136 568.572 136 568.572 136 587.998 c 0,19,20
 136 606.727 136 606.727 140.134 622.135 c 0,21,22
 143.049 632.999 143.049 632.999 150.242 640.707 c 0,23,24
 157.87 648.881 157.87 648.881 171.636 654.081 c 0,25,26
 187.304 660 187.304 660 215 660 c 2,27,-1
 582.541 660 l 1,28,-1
 549.383 588 l 1,29,-1
 335 588 l 2,30,31
 311.518 588 311.518 588 291.77 575.041 c 0,32,33
 269 560.098 269 560.098 269 531 c 0,34,35
 269 515.558 269 515.558 275.982 501.594 c 0,36,37
 301.18 447.597 301.18 447.597 308.363 394.625 c 2,38,-1
 313.058 360 l 1,39,-1
 484 360 l 1,40,-1
 484 340 l 1,41,-1
 314.042 340 l 1,42,-1
 309.36 305.357 l 2,43,44
 300.16 237.273 300.16 237.273 268.653 168.7 c 2,45,-1
 242.602 112 l 1,46,-1
 592 112 l 1,47,-1
 592 40 l 1,48,-1
 68 40 l 1,49,-1
 68 112 l 1,0,-1
EndSplineSet
EndChar

StartChar: currency
Encoding: 164 164 96
Width: 756
Flags: HW
LayerCount: 2
Fore
SplineSet
156.864 212.501 m 2,0,1
 150 238.242 150 238.242 150 270 c 2,2,-1
 150 430 l 2,3,4
 150 461.758 150 461.758 156.649 486.694 c 2,5,-1
 162.592 508.977 l 1,6,-1
 86.5685 585 l 1,7,-1
 115 613.432 l 1,8,-1
 191.023 537.408 l 1,9,-1
 213.307 543.351 l 2,10,11
 238.239 550 238.239 550 270 550 c 2,12,-1
 486 550 l 2,13,14
 517.76 550 517.76 550 542.693 543.351 c 2,15,-1
 564.977 537.408 l 1,16,-1
 641 613.432 l 1,17,-1
 669.432 585 l 1,18,-1
 593.408 508.977 l 1,19,-1
 599.351 486.693 l 2,20,21
 606 461.761 606 461.761 606 430 c 2,22,-1
 606 270 l 2,23,24
 606 238.239 606 238.239 599.351 213.307 c 2,25,-1
 593.408 191.023 l 1,26,-1
 669.432 115 l 1,27,-1
 641 86.5685 l 1,28,-1
 564.977 162.592 l 1,29,-1
 542.694 156.649 l 2,30,31
 517.758 150 517.758 150 486 150 c 2,32,-1
 270 150 l 2,33,34
 238.242 150 238.242 150 213.306 156.649 c 2,35,-1
 191.023 162.592 l 1,36,-1
 115 86.5685 l 1,37,-1
 86.5685 115 l 1,38,-1
 162.592 191.023 l 1,39,-1
 156.864 212.501 l 2,0,1
496 201 m 1,40,-1
 496 498 l 1,41,-1
 260 498 l 1,42,-1
 260 201 l 1,43,-1
 496 201 l 1,40,-1
EndSplineSet
EndChar

StartChar: yen
Encoding: 165 165 97
Width: 737
Flags: HW
LayerCount: 2
Fore
SplineSet
433 287 m 1,0,-1
 433 40 l 1,1,-1
 303 40 l 1,2,-1
 303 287 l 1,3,-1
 328.807 287 l 1,4,-1
 91.807 660 l 1,5,-1
 252.973 660 l 1,6,-1
 368 478.184 l 1,7,-1
 483.027 660 l 1,8,-1
 645.028 660 l 1,9,-1
 407.028 287 l 1,10,-1
 433 287 l 1,0,-1
EndSplineSet
EndChar

StartChar: section
Encoding: 167 167 98
Width: 600
Flags: HW
LayerCount: 2
Fore
SplineSet
397 51 m 1,0,-1
 397 220 l 1,1,-1
 101 220 l 2,2,3
 89.5685 220 89.5685 220 80.2843 229.284 c 128,-1,4
 71 238.569 71 238.569 71 250 c 2,5,-1
 71 321 l 2,6,7
 71 340.536 71 340.536 75.5975 345.593 c 0,8,9
 79.6283 350.027 79.6283 350.027 97.3488 351.069 c 2,10,-1
 111.341 351.892 l 1,11,-1
 112.043 429.807 l 1,12,-1
 98.0678 430.882 l 2,13,14
 87.688 431.681 87.688 431.681 79.3372 440.691 c 128,-1,15
 71 449.686 71 449.686 71 461 c 2,16,-1
 71 690 l 2,17,18
 71 700.986 71 700.986 80.4496 710.897 c 0,19,20
 89.1288 720 89.1288 720 101 720 c 2,21,-1
 487 720 l 1,22,-1
 487 648 l 1,23,-1
 201 648 l 1,24,-1
 201 467 l 1,25,-1
 497 467 l 2,26,27
 508.431 467 508.431 467 517.716 457.716 c 128,-1,28
 527 448.431 527 448.431 527 438 c 2,29,-1
 527 366 l 2,30,31
 527 345.671 527 345.671 522.452 340.776 c 0,32,33
 518.251 336.255 518.251 336.255 501.385 335.995 c 2,34,-1
 487.303 335.779 l 1,35,-1
 483.586 257.8 l 1,36,-1
 497.583 256.245 l 2,37,38
 510.063 254.858 510.063 254.858 519 245.45 c 0,39,40
 527 237.028 527 237.028 527 227 c 2,41,-1
 527 10 l 2,42,43
 527 -1.43108 527 -1.43108 517.716 -10.7159 c 128,-1,44
 508.432 -20 508.432 -20 497 -20 c 2,45,-1
 166.546 -20 l 1,46,-1
 133.632 51 l 1,47,-1
 397 51 l 1,0,-1
397 256 m 1,48,-1
 397 431 l 1,49,-1
 201 431 l 1,50,-1
 201 256 l 1,51,-1
 397 256 l 1,48,-1
EndSplineSet
EndChar

StartChar: dieresis
Encoding: 168 168 99
Width: 442
Flags: HW
LayerCount: 2
Fore
SplineSet
299.688 613.408 m 0,0,1
 287 629.619 287 629.619 287 649 c 0,2,3
 287 667.381 287 667.381 299.688 683.592 c 0,4,5
 310.181 697 310.181 697 335 697 c 0,6,7
 361.025 697 361.025 697 372.02 683.331 c 0,8,9
 385 667.193 385 667.193 385 648 c 0,10,11
 385 629.807 385 629.807 372.02 613.669 c 0,12,13
 361.025 600 361.025 600 335 600 c 0,14,15
 310.181 600 310.181 600 299.688 613.408 c 0,0,1
69.6876 613.408 m 0,16,17
 57 629.619 57 629.619 57 649 c 0,18,19
 57 667.381 57 667.381 69.6876 683.592 c 0,20,21
 80.181 697 80.181 697 105 697 c 0,22,23
 131.025 697 131.025 697 142.02 683.331 c 0,24,25
 155 667.193 155 667.193 155 648 c 0,26,27
 155 629.807 155 629.807 142.02 613.669 c 0,28,29
 131.025 600 131.025 600 105 600 c 0,30,31
 80.181 600 80.181 600 69.6876 613.408 c 0,16,17
EndSplineSet
EndChar

StartChar: copyright
Encoding: 169 169 100
Width: 536
Flags: HW
LayerCount: 2
Fore
SplineSet
61 556 m 2,0,1
 61 556.265 61 556.265 61.0147 556.985 c 0,2,3
 61.7355 557 61.7355 557 62 557 c 2,4,-1
 473 557 l 2,5,6
 473.261 557 473.261 557 473.985 556.985 c 0,7,8
 474 556.266 474 556.266 474 556 c 2,9,-1
 474 145 l 2,10,11
 474 144.734 474 144.734 473.985 144.015 c 0,12,13
 473.265 144 473.265 144 473 144 c 2,14,-1
 62 144 l 2,15,16
 61.7346 144 61.7346 144 61.0147 144.015 c 0,17,18
 61 144.735 61 144.735 61 145 c 2,19,-1
 61 556 l 2,0,1
446 150 m 1,20,-1
 446 550 l 1,21,-1
 89 550 l 1,22,-1
 89 150 l 1,23,-1
 446 150 l 1,20,-1
183 455 m 2,24,25
 183 455.836 183 455.836 183.069 456.986 c 0,26,27
 183.75 457 183.75 457 184 457 c 2,28,-1
 338.118 457 l 1,29,-1
 334.926 450 l 1,30,-1
 212 450 l 1,31,-1
 212 251 l 1,32,-1
 338.118 251 l 1,33,-1
 334.926 244 l 1,34,-1
 184 244 l 2,35,36
 183.735 244 183.735 244 183.015 244.015 c 0,37,38
 183 244.735 183 244.735 183 245 c 2,39,-1
 183 455 l 2,24,25
EndSplineSet
EndChar

StartChar: ordfeminine
Encoding: 170 170 101
Width: 394
Flags: HW
LayerCount: 2
Fore
SplineSet
64.7042 414.704 m 1,0,1
 60 420.217 60 420.217 60 427 c 2,2,-1
 60 532 l 2,3,4
 60 537.225 60 537.225 65.3701 543.043 c 0,5,6
 69.9459 548 69.9459 548 77 548 c 2,7,-1
 256 548 l 1,8,-1
 256 634 l 1,9,-1
 60 634 l 1,10,-1
 60 675 l 1,11,-1
 315 675 l 2,12,13
 321.645 675 321.645 675 326.822 669.822 c 128,-1,14
 332 664.645 332 664.645 332 658 c 2,15,-1
 332 410 l 1,16,-1
 77 410 l 2,17,18
 70.2169 410 70.2169 410 64.7042 414.704 c 1,0,1
256 451 m 1,19,-1
 256 529 l 1,20,-1
 136 529 l 1,21,-1
 136 451 l 1,22,-1
 256 451 l 1,19,-1
EndSplineSet
EndChar

StartChar: guillemotleft
Encoding: 171 171 102
Width: 580
Flags: HW
LayerCount: 2
Fore
SplineSet
472.203 619.876 m 1,0,-1
 515.866 594.783 l 1,1,-1
 375.164 350 l 1,2,-1
 515.866 105.217 l 1,3,-1
 472.203 80.1236 l 1,4,-1
 316.846 350 l 1,5,-1
 472.203 619.876 l 1,0,-1
46.8464 350 m 1,6,-1
 202.203 619.876 l 1,7,-1
 245.866 594.783 l 1,8,-1
 105.164 350 l 1,9,-1
 245.866 105.217 l 1,10,-1
 202.203 80.1236 l 1,11,-1
 46.8464 350 l 1,6,-1
EndSplineSet
EndChar

StartChar: logicalnot
Encoding: 172 172 103
Width: 512
Flags: HW
LayerCount: 2
Fore
SplineSet
30 375 m 1,0,-1
 450 375 l 1,1,-1
 450 325 l 1,2,-1
 449 325 l 1,3,-1
 449 155 l 1,4,-1
 399 155 l 1,5,-1
 399 325 l 1,6,-1
 30 325 l 1,7,-1
 30 375 l 1,0,-1
EndSplineSet
EndChar

StartChar: registered
Encoding: 174 174 104
Width: 536
Flags: HW
LayerCount: 2
Fore
SplineSet
61 556 m 2,0,1
 61 556.265 61 556.265 61.0147 556.985 c 0,2,3
 61.7355 557 61.7355 557 62 557 c 2,4,-1
 473 557 l 2,5,6
 473.261 557 473.261 557 473.985 556.985 c 0,7,8
 474 556.266 474 556.266 474 556 c 2,9,-1
 474 145 l 2,10,11
 474 144.734 474 144.734 473.985 144.015 c 0,12,13
 473.265 144 473.265 144 473 144 c 2,14,-1
 62 144 l 2,15,16
 61.7346 144 61.7346 144 61.0147 144.015 c 0,17,18
 61 144.735 61 144.735 61 145 c 2,19,-1
 61 556 l 2,0,1
446 150 m 1,20,-1
 446 550 l 1,21,-1
 89 550 l 1,22,-1
 89 150 l 1,23,-1
 446 150 l 1,20,-1
212 450 m 1,24,-1
 212 244 l 1,25,-1
 183 244 l 1,26,-1
 183 457 l 1,27,-1
 351 457 l 2,28,29
 351.251 457 351.251 457 351.931 456.986 c 0,30,31
 352 455.837 352 455.837 352 455 c 2,32,-1
 352 356.132 l 1,33,34
 346.118 354 346.118 354 335 354 c 2,35,-1
 323 354 l 1,36,-1
 323 450 l 1,37,-1
 212 450 l 1,24,-1
299.098 347 m 1,38,-1
 346.853 244 l 1,39,-1
 332.054 244 l 1,40,-1
 284.93 347 l 1,41,-1
 299.098 347 l 1,38,-1
EndSplineSet
EndChar

StartChar: macron
Encoding: 175 175 105
Width: 447
Flags: HW
LayerCount: 2
Fore
SplineSet
61 632 m 1,0,-1
 385 632 l 1,1,-1
 385 610 l 1,2,-1
 61 610 l 1,3,-1
 61 632 l 1,0,-1
EndSplineSet
EndChar

StartChar: degree
Encoding: 176 176 106
Width: 300
Flags: HW
LayerCount: 2
Fore
SplineSet
111.157 542.845 m 0,0,1
 93.4723 550.883 93.4723 550.883 79.6777 564.678 c 128,-1,2
 65.9602 578.395 65.9602 578.395 57.8453 596.653 c 0,3,4
 50 614.305 50 614.305 50 635 c 128,-1,5
 50 655.695 50 655.695 57.8453 673.347 c 0,6,7
 65.9602 691.605 65.9602 691.605 79.6777 705.322 c 128,-1,8
 93.3963 719.041 93.3963 719.041 111.653 727.155 c 0,9,10
 129.306 735 129.306 735 150 735 c 128,-1,11
 170.694 735 170.694 735 188.347 727.155 c 0,12,13
 206.604 719.041 206.604 719.041 220.322 705.322 c 128,-1,14
 234.04 691.605 234.04 691.605 242.155 673.347 c 0,15,16
 250 655.695 250 655.695 250 635 c 128,-1,17
 250 614.305 250 614.305 242.155 596.653 c 0,18,19
 234.04 578.395 234.04 578.395 220.322 564.678 c 128,-1,20
 206.604 550.959 206.604 550.959 188.347 542.845 c 0,21,22
 170.694 535 170.694 535 150 535 c 128,-1,23
 129.199 535 129.199 535 111.157 542.845 c 0,0,1
150 545 m 128,-1,25
 187.355 545 187.355 545 213.678 571.322 c 128,-1,26
 240 597.644 240 597.644 240 635 c 128,-1,27
 240 672.356 240 672.356 213.678 698.678 c 128,-1,28
 187.355 725 187.355 725 150 725 c 128,-1,29
 112.645 725 112.645 725 86.3223 698.678 c 128,-1,30
 60 672.356 60 672.356 60 635 c 128,-1,31
 60 597.644 60 597.644 86.3223 571.322 c 128,-1,24
 112.645 545 112.645 545 150 545 c 128,-1,25
EndSplineSet
EndChar

StartChar: plusminus
Encoding: 177 177 107
Width: 578
Flags: HW
LayerCount: 2
Fore
SplineSet
253 431 m 1,0,-1
 96 431 l 1,1,-1
 96 502 l 1,2,-1
 253 502 l 1,3,-1
 253 660 l 1,4,-1
 325 660 l 1,5,-1
 325 502 l 1,6,-1
 482 502 l 1,7,-1
 482 431 l 1,8,-1
 325 431 l 1,9,-1
 325 273 l 1,10,-1
 253 273 l 1,11,-1
 253 431 l 1,0,-1
61 82 m 1,12,-1
 517 82 l 1,13,-1
 517 40 l 1,14,-1
 61 40 l 1,15,-1
 61 82 l 1,12,-1
EndSplineSet
EndChar

StartChar: acute
Encoding: 180 180 108
Width: 308
Flags: HW
LayerCount: 2
Fore
SplineSet
34 620.651 m 1,0,-1
 264 692.937 l 1,1,-1
 264 652.228 l 1,2,-1
 34 614.442 l 1,3,-1
 34 620.651 l 1,0,-1
EndSplineSet
EndChar

StartChar: mu
Encoding: 181 181 109
Width: 590
Flags: HW
LayerCount: 2
Fore
SplineSet
76 485 m 1,0,-1
 206 485 l 1,1,-1
 206 112 l 1,2,-1
 402 112 l 1,3,-1
 402 485 l 1,4,-1
 532 485 l 1,5,-1
 532 70 l 2,6,7
 532 58.5689 532 58.5689 522.716 49.2841 c 128,-1,8
 513.432 40 513.432 40 502 40 c 2,9,-1
 206 40 l 1,10,-1
 206 -193 l 1,11,-1
 76 -193 l 1,12,-1
 76 485 l 1,0,-1
EndSplineSet
EndChar

StartChar: paragraph
Encoding: 182 182 110
Width: 640
Flags: HW
LayerCount: 2
Fore
SplineSet
218 285 m 1,0,-1
 96 285 l 2,1,2
 85.0138 285 85.0138 285 75.1029 294.45 c 0,3,4
 66 303.129 66 303.129 66 315 c 2,5,-1
 66 630 l 2,6,7
 66 641.155 66 641.155 75.4494 650.385 c 0,8,9
 85.2938 660 85.2938 660 96 660 c 2,10,-1
 570 660 l 1,11,-1
 570 588 l 1,12,-1
 511 588 l 1,13,-1
 511 40 l 1,14,-1
 475 40 l 1,15,-1
 475 588 l 1,16,-1
 255 588 l 1,17,-1
 255 40 l 1,18,-1
 218 40 l 1,19,-1
 218 285 l 1,0,-1
EndSplineSet
EndChar

StartChar: periodcentered
Encoding: 183 183 111
Width: 226
Flags: HW
LayerCount: 2
Fore
SplineSet
61 401 m 1,0,-1
 163 401 l 1,1,-1
 163 299 l 1,2,-1
 61 299 l 1,3,-1
 61 401 l 1,0,-1
EndSplineSet
EndChar

StartChar: cedilla
Encoding: 184 184 112
Width: 340
Flags: HW
LayerCount: 2
Fore
SplineSet
102.845 -24.1196 m 0,0,1
 126.189 -20 126.189 -20 152 -20 c 0,2,3
 178.65 -20 178.65 -20 205.342 -25.0622 c 0,4,5
 230.289 -29.7936 230.289 -29.7936 249.699 -40.7641 c 0,6,7
 267.824 -51.0088 267.824 -51.0088 279.09 -66.9366 c 0,8,9
 289 -80.9481 289 -80.9481 289 -104 c 0,10,11
 289 -128.141 289 -128.141 278.497 -143.195 c 0,12,13
 267.009 -159.662 267.009 -159.662 248.452 -169.327 c 0,14,15
 227.973 -179.993 227.973 -179.993 201.89 -184.34 c 0,16,17
 173.931 -189 173.931 -189 145 -189 c 0,18,19
 120.556 -189 120.556 -189 98.1009 -186.193 c 0,20,21
 82.8417 -184.286 82.8417 -184.286 69.1389 -181.939 c 1,22,-1
 64.8921 -171.243 l 1,23,24
 86.34 -174 86.34 -174 109 -174 c 0,25,26
 129.637 -174 129.637 -174 150.261 -171.286 c 0,27,28
 172.371 -168.377 172.371 -168.377 190.285 -161.212 c 0,29,30
 210.049 -153.306 210.049 -153.306 223.178 -140.178 c 0,31,32
 240 -123.355 240 -123.355 240 -98 c 0,33,34
 240 -79.9705 240 -79.9705 230.482 -65.2151 c 128,-1,35
 220.964 -50.4596 220.964 -50.4596 204.285 -43.7881 c 0,36,37
 179.814 -34 179.814 -34 151 -34 c 0,38,39
 129.524 -34 129.524 -34 109.597 -37.9855 c 0,40,41
 104.378 -39.0293 104.378 -39.0293 99.3379 -40.1311 c 1,42,-1
 91.4863 -26.3313 l 1,43,44
 97.1788 -25.1194 97.1788 -25.1194 102.845 -24.1196 c 0,0,1
EndSplineSet
EndChar

StartChar: ordmasculine
Encoding: 186 186 113
Width: 394
Flags: HW
LayerCount: 2
Fore
SplineSet
65.7042 414.704 m 1,0,1
 61 420.217 61 420.217 61 427 c 2,2,-1
 61 658 l 2,3,4
 61 664.645 61 664.645 66.1777 669.822 c 128,-1,5
 71.3555 675 71.3555 675 78 675 c 2,6,-1
 316 675 l 2,7,8
 322.645 675 322.645 675 327.822 669.822 c 128,-1,9
 333 664.645 333 664.645 333 658 c 2,10,-1
 333 427 l 2,11,12
 333 420.355 333 420.355 327.822 415.178 c 128,-1,13
 322.645 410 322.645 410 316 410 c 2,14,-1
 78 410 l 2,15,16
 71.2169 410 71.2169 410 65.7042 414.704 c 1,0,1
257 451 m 1,17,-1
 257 634 l 1,18,-1
 137 634 l 1,19,-1
 137 451 l 1,20,-1
 257 451 l 1,17,-1
EndSplineSet
EndChar

StartChar: guillemotright
Encoding: 187 187 114
Width: 580
Flags: HW
LayerCount: 2
Fore
SplineSet
474.836 350 m 1,0,-1
 334.134 594.783 l 1,1,-1
 377.797 619.876 l 1,2,-1
 533.154 350 l 1,3,-1
 377.797 80.1236 l 1,4,-1
 334.134 105.217 l 1,5,-1
 474.836 350 l 1,0,-1
204.836 350 m 1,6,-1
 64.1339 594.783 l 1,7,-1
 107.797 619.876 l 1,8,-1
 263.154 350 l 1,9,-1
 107.797 80.1236 l 1,10,-1
 64.1339 105.217 l 1,11,-1
 204.836 350 l 1,6,-1
EndSplineSet
EndChar

StartChar: questiondown
Encoding: 191 191 115
Width: 583
Flags: HW
LayerCount: 2
Fore
SplineSet
421 675 m 1,0,-1
 522 675 l 1,1,-1
 522 573 l 1,2,-1
 421 573 l 1,3,-1
 421 675 l 1,0,-1
36 338 m 2,4,5
 36 355.645 36 355.645 49.6777 369.322 c 128,-1,6
 63.3556 383 63.3556 383 81 383 c 2,7,-1
 421 383 l 1,8,-1
 421 465 l 1,9,-1
 522 465 l 1,10,-1
 522 362 l 2,11,12
 522 344.355 522 344.355 508.322 330.678 c 128,-1,13
 494.645 317 494.645 317 477 317 c 2,14,-1
 137 317 l 1,15,-1
 137 92 l 1,16,-1
 421 92 l 1,17,-1
 421 150 l 1,18,-1
 522 150 l 1,19,-1
 522 70 l 2,20,21
 522 52.3556 522 52.3556 508.322 38.6777 c 128,-1,22
 494.645 25 494.645 25 477 25 c 2,23,-1
 81 25 l 2,24,25
 63.3553 25 63.3553 25 49.6777 38.6777 c 128,-1,26
 36 52.3553 36 52.3553 36 70 c 2,27,-1
 36 338 l 2,4,5
EndSplineSet
EndChar

StartChar: Agrave
Encoding: 192 192 116
Width: 682
Flags: HW
LayerCount: 2
Fore
SplineSet
239.88 886.684 m 1,0,-1
 278.784 872.044 l 1,1,-1
 239.88 879.697 l 1,2,-1
 239.88 886.684 l 1,0,-1
321.706 528.262 m 1,3,-1
 151.793 40 l 1,4,-1
 14 40 l 1,5,-1
 247.693 660 l 1,6,-1
 395.846 660 l 1,7,-1
 630.279 40 l 1,8,-1
 308.366 40 l 1,9,-1
 308.366 112 l 1,10,-1
 466.997 112 l 1,11,-1
 321.706 528.262 l 1,3,-1
EndSplineSet
EndChar

StartChar: Aacute
Encoding: 193 193 117
Width: 682
Flags: HW
LayerCount: 2
Fore
SplineSet
402.629 886.684 m 1,0,-1
 402.629 879.697 l 1,1,-1
 363.725 872.044 l 1,2,-1
 402.629 886.684 l 1,0,-1
320.706 528.262 m 1,3,-1
 150.793 40 l 1,4,-1
 13 40 l 1,5,-1
 246.693 660 l 1,6,-1
 394.846 660 l 1,7,-1
 629.279 40 l 1,8,-1
 307.366 40 l 1,9,-1
 307.366 112 l 1,10,-1
 465.997 112 l 1,11,-1
 320.706 528.262 l 1,3,-1
EndSplineSet
EndChar

StartChar: Acircumflex
Encoding: 194 194 118
Width: 687
Flags: HW
LayerCount: 2
Fore
SplineSet
366.626 875.346 m 1,0,-1
 323.755 887.152 l 1,1,-1
 280.884 875.346 l 1,2,-1
 323.755 897.932 l 1,3,-1
 366.626 875.346 l 1,0,-1
323.706 528.262 m 1,4,-1
 153.793 40 l 1,5,-1
 16 40 l 1,6,-1
 249.693 660 l 1,7,-1
 397.846 660 l 1,8,-1
 632.279 40 l 1,9,-1
 310.366 40 l 1,10,-1
 310.366 112 l 1,11,-1
 468.997 112 l 1,12,-1
 323.706 528.262 l 1,4,-1
EndSplineSet
EndChar

StartChar: Atilde
Encoding: 195 195 119
Width: 691
Flags: HW
LayerCount: 2
Fore
SplineSet
300.9 871.277 m 0,0,1
 272.208 884 272.208 884 243.07 884 c 0,2,3
 225.321 884 225.321 884 207.169 877.723 c 1,4,5
 213.053 883.129 213.053 883.129 218.205 885.957 c 0,6,7
 231.04 893 231.04 893 243.07 893 c 0,8,9
 259.027 893 259.027 893 275.441 885.723 c 0,10,11
 296.797 876.252 296.797 876.252 317.777 864.881 c 0,12,13
 340.836 852.373 340.836 852.373 363.551 841.912 c 0,14,15
 391.59 829 391.59 829 418.461 829 c 0,16,17
 431.236 829 431.236 829 444.477 832.752 c 1,18,19
 440.384 828.254 440.384 828.254 436.983 825.969 c 0,20,21
 428.098 820 428.098 820 418.461 820 c 0,22,23
 405.242 820 405.242 820 389.852 827.088 c 0,24,25
 369.108 836.64 369.108 836.64 347.93 848.122 c 0,26,27
 324.642 860.75 324.642 860.75 300.9 871.277 c 0,0,1
325.706 528.262 m 1,28,-1
 155.793 40 l 1,29,-1
 18 40 l 1,30,-1
 251.693 660 l 1,31,-1
 399.846 660 l 1,32,-1
 634.279 40 l 1,33,-1
 312.366 40 l 1,34,-1
 312.366 112 l 1,35,-1
 470.997 112 l 1,36,-1
 325.706 528.262 l 1,28,-1
EndSplineSet
EndChar

StartChar: Adieresis
Encoding: 196 196 120
Width: 691
Flags: HW
LayerCount: 2
Fore
SplineSet
448.554 863 m 0,0,1
 448.554 849.596 448.554 849.596 441.7 839.394 c 0,2,3
 435.389 830 435.389 830 420.967 830 c 0,4,5
 407.668 830 407.668 830 403.129 836.943 c 0,6,7
 395.05 849.304 395.05 849.304 395.05 864 c 0,8,9
 395.05 877.696 395.05 877.696 403.128 890.056 c 0,10,11
 407.668 897 407.668 897 420.967 897 c 0,12,13
 435.39 897 435.39 897 440.334 889.638 c 0,14,15
 448.554 877.403 448.554 877.403 448.554 863 c 0,0,1
256.459 863 m 0,16,17
 256.459 849.596 256.459 849.596 249.606 839.394 c 0,18,19
 243.295 830 243.295 830 228.872 830 c 0,20,21
 215.573 830 215.573 830 211.034 836.943 c 0,22,23
 202.955 849.304 202.955 849.304 202.955 864 c 0,24,25
 202.955 877.696 202.955 877.696 211.034 890.057 c 0,26,27
 215.573 897 215.573 897 228.872 897 c 0,28,29
 243.295 897 243.295 897 248.24 889.638 c 0,30,31
 256.459 877.403 256.459 877.403 256.459 863 c 0,16,17
325.706 528.262 m 1,32,-1
 155.793 40 l 1,33,-1
 18 40 l 1,34,-1
 251.693 660 l 1,35,-1
 399.846 660 l 1,36,-1
 634.279 40 l 1,37,-1
 312.366 40 l 1,38,-1
 312.366 112 l 1,39,-1
 470.997 112 l 1,40,-1
 325.706 528.262 l 1,32,-1
EndSplineSet
EndChar

StartChar: Aring
Encoding: 197 197 121
Width: 683
Flags: HW
LayerCount: 2
Fore
SplineSet
281.158 863.555 m 0,0,1
 277.464 873.877 277.464 873.877 277.464 885 c 128,-1,2
 277.464 896.123 277.464 896.123 281.158 906.444 c 0,3,4
 282.906 911.327 282.906 911.327 285.258 915.641 c 2,5,-1
 288.671 921.898 l 1,6,-1
 264.618 937.489 l 1,7,-1
 260.855 930.901 l 2,8,9
 249.119 910.353 249.119 910.353 249.119 885 c 128,-1,10
 249.119 859.647 249.119 859.647 260.855 839.099 c 2,11,-1
 264.618 832.511 l 1,12,-1
 288.671 848.102 l 1,13,-1
 285.258 854.359 l 2,14,15
 282.907 858.673 282.907 858.673 281.158 863.555 c 0,0,1
305.897 936.136 m 0,16,17
 313.427 940 313.427 940 321.755 940 c 128,-1,18
 330.083 940 330.083 940 337.442 936.223 c 0,19,20
 341.763 934.007 341.763 934.007 345.185 931.332 c 2,21,-1
 351.083 926.721 l 1,22,-1
 367.692 950.831 l 1,23,-1
 362.276 955.264 l 2,24,25
 344.274 970 344.274 970 321.755 970 c 128,-1,26
 299.234 970 299.234 970 281.231 955.261 c 2,27,-1
 275.815 950.827 l 1,28,-1
 292.424 926.719 l 1,29,-1
 298.323 931.33 l 2,30,31
 301.746 934.005 301.746 934.005 305.897 936.136 c 0,16,17
362.39 906.337 m 0,32,33
 366.047 896.122 366.047 896.122 366.047 885 c 128,-1,34
 366.047 873.878 366.047 873.878 362.39 863.662 c 0,35,36
 360.602 858.671 360.602 858.671 358.252 854.36 c 2,37,-1
 354.838 848.102 l 1,38,-1
 378.893 832.512 l 1,39,-1
 382.655 839.1 l 2,40,41
 394.39 859.648 394.39 859.648 394.39 885 c 128,-1,42
 394.39 910.351 394.39 910.351 382.655 930.899 c 2,43,-1
 378.893 937.487 l 1,44,-1
 354.839 921.897 l 1,45,-1
 358.253 915.639 l 2,46,47
 360.602 911.329 360.602 911.329 362.39 906.337 c 0,32,33
337.831 833.976 m 0,48,49
 330.083 830 330.083 830 321.755 830 c 128,-1,50
 313.427 830 313.427 830 305.897 833.864 c 0,51,52
 301.746 835.994 301.746 835.994 298.324 838.669 c 2,53,-1
 292.425 843.282 l 1,54,-1
 275.816 819.173 l 1,55,-1
 281.231 814.739 l 2,56,57
 299.234 800 299.234 800 321.755 800 c 128,-1,58
 344.277 800 344.277 800 362.28 814.74 c 2,59,-1
 367.696 819.175 l 1,60,-1
 351.085 843.281 l 1,61,-1
 345.187 838.669 l 2,62,63
 341.765 835.995 341.765 835.995 337.831 833.976 c 0,48,49
321.706 528.262 m 1,64,-1
 151.793 40 l 1,65,-1
 14 40 l 1,66,-1
 247.693 660 l 1,67,-1
 395.846 660 l 1,68,-1
 630.279 40 l 1,69,-1
 308.366 40 l 1,70,-1
 308.366 112 l 1,71,-1
 466.997 112 l 1,72,-1
 321.706 528.262 l 1,64,-1
EndSplineSet
EndChar

StartChar: AE
Encoding: 198 198 122
Width: 1050
Flags: HW
LayerCount: 2
Fore
SplineSet
507.769 532.873 m 1,0,-1
 137.327 40 l 1,1,-1
 12 40 l 1,2,-1
 488.321 660 l 1,3,-1
 950.359 660 l 1,4,-1
 917.202 588 l 1,5,-1
 622.998 588 l 1,6,-1
 622.998 368 l 1,7,-1
 902.818 368 l 1,8,-1
 902.818 332 l 1,9,-1
 622.998 332 l 1,10,-1
 622.998 112 l 1,11,-1
 950.359 112 l 1,12,-1
 917.202 40 l 1,13,-1
 354.443 40 l 1,14,-1
 354.443 112 l 1,15,-1
 507.769 112 l 1,16,-1
 507.769 532.873 l 1,0,-1
EndSplineSet
EndChar

StartChar: Ccedilla
Encoding: 199 199 123
Width: 470
Flags: HW
LayerCount: 2
Fore
SplineSet
218.833 -59 m 0,0,1
 206.264 -59 206.264 -59 194.29 -61.3984 c 1,2,-1
 190.305 0 l 1,3,-1
 55.3955 0 l 2,4,5
 45.1035 0 45.1035 0 35.7188 9.34766 c 0,6,7
 27 18.0332 27 18.0332 27 30 c 2,8,-1
 27 590 l 2,9,10
 27 601.251 27 601.251 36.0645 610.5 c 0,11,12
 45.375 620 45.375 620 55.3955 620 c 2,13,-1
 429.389 620 l 1,14,-1
 396.231 548 l 1,15,-1
 143.958 548 l 1,16,-1
 143.958 72 l 1,17,-1
 429.389 72 l 1,18,-1
 396.231 0 l 1,19,-1
 246.641 0 l 1,20,-1
 242.615 -62.0371 l 1,21,22
 231.008 -59 231.008 -59 218.833 -59 c 0,0,1
287.972 -98.3105 m 0,23,24
 287.724 -97.7764 287.724 -97.7764 287.186 -96.6602 c 1,25,26
 289.706 -99.0303 289.706 -99.0303 291.903 -101.663 c 0,27,28
 297.773 -108.694 297.773 -108.694 301.334 -118.878 c 0,29,30
 304.724 -128.575 304.724 -128.575 304.724 -144 c 0,31,32
 304.724 -164.222 304.724 -164.222 298.881 -175.858 c 0,33,34
 292.236 -189.092 292.236 -189.092 281.664 -196.74 c 0,35,36
 275.201 -201.418 275.201 -201.418 267.049 -205.01 c 1,37,38
 275.151 -198.062 275.151 -198.062 281.261 -189.574 c 0,39,40
 296.33 -168.635 296.33 -168.635 296.33 -138 c 0,41,42
 296.33 -116.313 296.33 -116.313 287.972 -98.3105 c 0,23,24
EndSplineSet
EndChar

StartChar: Egrave
Encoding: 200 200 124
Width: 469
Flags: HW
LayerCount: 2
Fore
SplineSet
167.547 885.836 m 1,0,-1
 197.348 872.42 l 1,1,-1
 167.547 879.433 l 1,2,-1
 167.547 885.836 l 1,0,-1
429.541 112 m 1,3,-1
 396.384 40 l 1,4,-1
 28 40 l 1,5,-1
 28 660 l 1,6,-1
 429.541 660 l 1,7,-1
 396.384 588 l 1,8,-1
 149.451 588 l 1,9,-1
 149.451 368 l 1,10,-1
 382 368 l 1,11,-1
 382 332 l 1,12,-1
 149.451 332 l 1,13,-1
 149.451 112 l 1,14,-1
 429.541 112 l 1,3,-1
EndSplineSet
EndChar

StartChar: Eacute
Encoding: 201 201 125
Width: 470
Flags: HW
LayerCount: 2
Fore
SplineSet
300.641 885.836 m 1,0,-1
 300.641 879.433 l 1,1,-1
 270.84 872.42 l 1,2,-1
 300.641 885.836 l 1,0,-1
428.541 112 m 1,3,-1
 395.384 40 l 1,4,-1
 27 40 l 1,5,-1
 27 660 l 1,6,-1
 428.541 660 l 1,7,-1
 395.384 588 l 1,8,-1
 148.451 588 l 1,9,-1
 148.451 368 l 1,10,-1
 381 368 l 1,11,-1
 381 332 l 1,12,-1
 148.451 332 l 1,13,-1
 148.451 112 l 1,14,-1
 428.541 112 l 1,3,-1
EndSplineSet
EndChar

StartChar: Ecircumflex
Encoding: 202 202 126
Width: 475
Flags: HW
LayerCount: 2
Fore
SplineSet
273.372 875.721 m 1,0,-1
 236.575 887.223 l 1,1,-1
 200.488 875.788 l 1,2,-1
 236.626 897.694 l 1,3,-1
 273.372 875.721 l 1,0,-1
431.541 112 m 1,4,-1
 398.384 40 l 1,5,-1
 30 40 l 1,6,-1
 30 660 l 1,7,-1
 431.541 660 l 1,8,-1
 398.384 588 l 1,9,-1
 151.451 588 l 1,10,-1
 151.451 368 l 1,11,-1
 384 368 l 1,12,-1
 384 332 l 1,13,-1
 151.451 332 l 1,14,-1
 151.451 112 l 1,15,-1
 431.541 112 l 1,4,-1
EndSplineSet
EndChar

StartChar: Edieresis
Encoding: 203 203 127
Width: 478
Flags: HW
LayerCount: 2
Fore
SplineSet
348 863 m 0,0,1
 348 850.092 348 850.092 338.037 837.703 c 0,2,3
 331.84 830 331.84 830 317.61 830 c 0,4,5
 307.229 830 307.229 830 303.781 836.309 c 0,6,7
 296.907 848.891 296.907 848.891 296.907 864 c 0,8,9
 296.907 878.109 296.907 878.109 303.781 890.691 c 0,10,11
 307.229 897 307.229 897 317.61 897 c 0,12,13
 331.84 897 331.84 897 338.332 888.93 c 0,14,15
 348 876.908 348 876.908 348 863 c 0,0,1
178.281 863 m 0,16,17
 178.281 849.18 178.281 849.18 171.42 836.961 c 0,18,19
 167.512 830 167.512 830 156.612 830 c 0,20,21
 145.27 830 145.27 830 139.586 837.543 c 0,22,23
 130 849.791 130 849.791 130 864 c 0,24,25
 130 877.209 130 877.209 139.586 889.457 c 0,26,27
 145.27 897 145.27 897 156.612 897 c 0,28,29
 167.512 897 167.512 897 171.288 890.274 c 0,30,31
 178.281 877.82 178.281 877.82 178.281 863 c 0,16,17
432.541 112 m 1,32,-1
 399.384 40 l 1,33,-1
 31 40 l 1,34,-1
 31 660 l 1,35,-1
 432.541 660 l 1,36,-1
 399.384 588 l 1,37,-1
 152.451 588 l 1,38,-1
 152.451 368 l 1,39,-1
 385 368 l 1,40,-1
 385 332 l 1,41,-1
 152.451 332 l 1,42,-1
 152.451 112 l 1,43,-1
 432.541 112 l 1,32,-1
EndSplineSet
EndChar

StartChar: Igrave
Encoding: 204 204 128
Width: 203
Flags: HW
LayerCount: 2
Fore
SplineSet
2 887.5 m 1,0,-1
 52.2354 871.711 l 1,1,-1
 2 879.964 l 1,2,-1
 2 887.5 l 1,0,-1
166 660 m 1,3,-1
 166 40 l 1,4,-1
 36 40 l 1,5,-1
 36 660 l 1,6,-1
 166 660 l 1,3,-1
EndSplineSet
EndChar

StartChar: Iacute
Encoding: 205 205 129
Width: 203
Flags: HW
LayerCount: 2
Fore
SplineSet
168 887.5 m 1,0,-1
 168 879.964 l 1,1,-1
 117.765 871.711 l 1,2,-1
 168 887.5 l 1,0,-1
132 660 m 1,3,-1
 132 40 l 1,4,-1
 2 40 l 1,5,-1
 2 660 l 1,6,-1
 132 660 l 1,3,-1
EndSplineSet
EndChar

StartChar: Icircumflex
Encoding: 206 206 130
Width: 153
Flags: HW
LayerCount: 2
Fore
SplineSet
28.8838 875.526 m 1,0,-1
 -14.5576 887.184 l 1,1,-1
 -58 875.526 l 1,2,-1
 -14.5576 897.826 l 1,3,-1
 28.8838 875.526 l 1,0,-1
24.4424 660 m 1,4,-1
 24.4424 40 l 1,5,-1
 -55.5576 40 l 1,6,-1
 -55.5576 660 l 1,7,-1
 24.4424 660 l 1,4,-1
EndSplineSet
EndChar

StartChar: Idieresis
Encoding: 207 207 131
Width: 153
Flags: HW
LayerCount: 2
Fore
SplineSet
201 863 m 0,0,1
 201 850.091 201 850.091 191.206 837.914 c 0,2,3
 184.84 830 184.84 830 166 830 c 0,4,5
 148.489 830 148.489 830 142.5 837.652 c 0,6,7
 133 849.791 133 849.791 133 864 c 0,8,9
 133 877.209 133 877.209 142.5 889.348 c 0,10,11
 148.489 897 148.489 897 166 897 c 0,12,13
 184.84 897 184.84 897 191.332 888.93 c 0,14,15
 201 876.908 201 876.908 201 863 c 0,0,1
21 863 m 0,16,17
 21 850.091 21 850.091 11.1758 837.876 c 0,18,19
 4.83984 830 4.83984 830 -14 830 c 0,20,21
 -31.5107 830 -31.5107 830 -37.5 837.652 c 0,22,23
 -47 849.791 -47 849.791 -47 864 c 0,24,25
 -47 877.209 -47 877.209 -37.5 889.348 c 0,26,27
 -31.5107 897 -31.5107 897 -14 897 c 0,28,29
 4.83984 897 4.83984 897 11.3311 888.931 c 0,30,31
 21 876.909 21 876.909 21 863 c 0,16,17
116 660 m 1,32,-1
 116 40 l 1,33,-1
 36 40 l 1,34,-1
 36 660 l 1,35,-1
 116 660 l 1,32,-1
EndSplineSet
EndChar

StartChar: Ntilde
Encoding: 209 209 132
Width: 486
Flags: HW
LayerCount: 2
Fore
SplineSet
221.867 871.064 m 0,0,1
 196.811 884 196.811 884 171.289 884 c 0,2,3
 156.139 884 156.139 884 138.646 878.01 c 1,4,5
 145.143 883.188 145.143 883.188 150.539 885.993 c 2,6,-1
 150.72 886.087 l 2,7,8
 161.558 893 161.558 893 171.289 893 c 0,9,10
 184.485 893 184.485 893 198.158 885.94 c 0,11,12
 216.417 876.51 216.417 876.51 234.38 865.17 c 0,13,14
 254.245 852.622 254.245 852.622 273.785 842.144 c 0,15,16
 298.29 829 298.29 829 321.883 829 c 0,17,18
 332.761 829 332.761 829 345.567 832.512 c 1,19,20
 341.188 828.356 341.188 828.356 337.522 826.119 c 2,21,-1
 337.169 825.903 l 1,22,-1
 336.743 825.595 l 2,23,24
 329.46 820 329.46 820 321.883 820 c 0,25,26
 311.053 820 311.053 820 298.268 826.857 c 0,27,28
 280.494 836.391 280.494 836.391 262.375 847.835 c 0,29,30
 242.338 860.486 242.338 860.486 221.867 871.064 c 0,0,1
152.854 588 m 1,31,-1
 152.854 40 l 1,32,-1
 31 40 l 1,33,-1
 31 660 l 1,34,-1
 425 660 l 2,35,36
 435.706 660 435.706 660 445.551 650.385 c 0,37,38
 455 641.155 455 641.155 455 630 c 2,39,-1
 455 40 l 1,40,-1
 333.146 40 l 1,41,-1
 333.146 588 l 1,42,-1
 152.854 588 l 1,31,-1
EndSplineSet
EndChar

StartChar: Ograve
Encoding: 210 210 133
Width: 479
Flags: HW
LayerCount: 2
Fore
SplineSet
170.948 885.945 m 1,0,-1
 201.922 872.37 l 1,1,-1
 170.948 879.467 l 1,2,-1
 170.948 885.945 l 1,0,-1
58 40 m 2,3,4
 47.0146 40 47.0146 40 37.0947 49.458 c 0,5,6
 28 58.1299 28 58.1299 28 70 c 2,7,-1
 28 630 l 2,8,9
 28 641.155 28 641.155 37.4492 650.385 c 0,10,11
 47.2939 660 47.2939 660 58 660 c 2,12,-1
 422 660 l 2,13,14
 432.706 660 432.706 660 442.551 650.385 c 0,15,16
 452 641.155 452 641.155 452 630 c 2,17,-1
 452 70 l 2,18,19
 452 58.1289 452 58.1289 442.896 49.4492 c 0,20,21
 432.986 40 432.986 40 422 40 c 2,22,-1
 58 40 l 2,3,4
330.146 588 m 1,23,-1
 149.854 588 l 1,24,-1
 149.854 112 l 1,25,-1
 330.146 112 l 1,26,-1
 330.146 588 l 1,23,-1
EndSplineSet
EndChar

StartChar: Oacute
Encoding: 211 211 134
Width: 478
Flags: HW
LayerCount: 2
Fore
SplineSet
307.052 885.945 m 1,0,-1
 307.052 879.467 l 1,1,-1
 276.078 872.37 l 1,2,-1
 307.052 885.945 l 1,0,-1
56 40 m 2,3,4
 45.0146 40 45.0146 40 35.0947 49.458 c 0,5,6
 26 58.1299 26 58.1299 26 70 c 2,7,-1
 26 630 l 2,8,9
 26 641.155 26 641.155 35.4492 650.385 c 0,10,11
 45.2939 660 45.2939 660 56 660 c 2,12,-1
 420 660 l 2,13,14
 430.706 660 430.706 660 440.551 650.385 c 0,15,16
 450 641.155 450 641.155 450 630 c 2,17,-1
 450 70 l 2,18,19
 450 58.1289 450 58.1289 440.896 49.4492 c 0,20,21
 430.986 40 430.986 40 420 40 c 2,22,-1
 56 40 l 2,3,4
328.146 588 m 1,23,-1
 147.854 588 l 1,24,-1
 147.854 112 l 1,25,-1
 328.146 112 l 1,26,-1
 328.146 588 l 1,23,-1
EndSplineSet
EndChar

StartChar: Ocircumflex
Encoding: 212 212 135
Width: 483
Flags: HW
LayerCount: 2
Fore
SplineSet
277.957 875.744 m 1,0,-1
 241 887.221 l 1,1,-1
 204.043 875.744 l 1,2,-1
 241 897.7 l 1,3,-1
 277.957 875.744 l 1,0,-1
59 40 m 2,4,5
 48.0146 40 48.0146 40 38.0947 49.458 c 0,6,7
 29 58.1299 29 58.1299 29 70 c 2,8,-1
 29 630 l 2,9,10
 29 641.155 29 641.155 38.4492 650.385 c 0,11,12
 48.2939 660 48.2939 660 59 660 c 2,13,-1
 423 660 l 2,14,15
 433.706 660 433.706 660 443.551 650.385 c 0,16,17
 453 641.155 453 641.155 453 630 c 2,18,-1
 453 70 l 2,19,20
 453 58.1289 453 58.1289 443.896 49.4492 c 0,21,22
 433.986 40 433.986 40 423 40 c 2,23,-1
 59 40 l 2,4,5
331.146 588 m 1,24,-1
 150.854 588 l 1,25,-1
 150.854 112 l 1,26,-1
 331.146 112 l 1,27,-1
 331.146 588 l 1,24,-1
EndSplineSet
EndChar

StartChar: Otilde
Encoding: 213 213 136
Width: 486
Flags: HW
LayerCount: 2
Fore
SplineSet
221.867 871.064 m 0,0,1
 196.811 884 196.811 884 171.289 884 c 0,2,3
 156.139 884 156.139 884 138.646 878.01 c 1,4,5
 145.143 883.188 145.143 883.188 150.539 885.993 c 2,6,-1
 150.72 886.087 l 2,7,8
 161.558 893 161.558 893 171.289 893 c 0,9,10
 184.485 893 184.485 893 198.158 885.94 c 0,11,12
 216.417 876.51 216.417 876.51 234.38 865.17 c 0,13,14
 254.245 852.622 254.245 852.622 273.785 842.144 c 0,15,16
 298.29 829 298.29 829 321.883 829 c 0,17,18
 332.761 829 332.761 829 345.567 832.512 c 1,19,20
 341.188 828.356 341.188 828.356 337.522 826.119 c 2,21,-1
 337.169 825.903 l 1,22,-1
 336.743 825.595 l 2,23,24
 329.46 820 329.46 820 321.883 820 c 0,25,26
 311.053 820 311.053 820 298.268 826.857 c 0,27,28
 280.494 836.391 280.494 836.391 262.375 847.835 c 0,29,30
 242.338 860.486 242.338 860.486 221.867 871.064 c 0,0,1
61 40 m 2,31,32
 50.0146 40 50.0146 40 40.0947 49.458 c 0,33,34
 31 58.1299 31 58.1299 31 70 c 2,35,-1
 31 630 l 2,36,37
 31 641.155 31 641.155 40.4492 650.385 c 0,38,39
 50.2939 660 50.2939 660 61 660 c 2,40,-1
 425 660 l 2,41,42
 435.706 660 435.706 660 445.551 650.385 c 0,43,44
 455 641.155 455 641.155 455 630 c 2,45,-1
 455 70 l 2,46,47
 455 58.1289 455 58.1289 445.896 49.4492 c 0,48,49
 435.986 40 435.986 40 425 40 c 2,50,-1
 61 40 l 2,31,32
333.146 588 m 1,51,-1
 152.854 588 l 1,52,-1
 152.854 112 l 1,53,-1
 333.146 112 l 1,54,-1
 333.146 588 l 1,51,-1
EndSplineSet
EndChar

StartChar: Odieresis
Encoding: 214 214 137
Width: 486
Flags: HW
LayerCount: 2
Fore
SplineSet
342.035 837.702 m 1,0,-1
 341.794 837.359 l 2,1,2
 336.611 830 336.611 830 324.751 830 c 0,3,4
 314.374 830 314.374 830 310.79 836.385 c 0,5,6
 303.744 848.939 303.744 848.939 303.744 864 c 0,7,8
 303.744 878.061 303.744 878.061 310.79 890.615 c 0,9,10
 314.374 897 314.374 897 324.751 897 c 0,11,12
 336.611 897 336.611 897 341.794 889.641 c 2,13,-1
 342.035 889.298 l 1,14,-1
 342.332 888.93 l 2,15,16
 352 876.908 352 876.908 352 863 c 0,17,18
 352 850.092 352 850.092 342.332 838.07 c 2,19,-1
 342.035 837.702 l 1,0,-1
182.256 863 m 0,20,21
 182.256 849.229 182.256 849.229 176.332 838.958 c 0,22,23
 171.165 830 171.165 830 159.815 830 c 0,24,25
 148.844 830 148.844 830 143.979 837.005 c 0,26,-1
 143.5 837.652 l 2,27,28
 134 849.791 134 849.791 134 864 c 0,29,30
 134 877.209 134 877.209 143.5 889.348 c 0,31,-1
 143.979 889.996 l 2,32,33
 148.844 897 148.844 897 159.815 897 c 0,34,35
 171.166 897 171.166 897 175.089 890.197 c 0,36,37
 182.256 877.771 182.256 877.771 182.256 863 c 0,20,21
61 40 m 2,38,39
 50.0146 40 50.0146 40 40.0947 49.458 c 0,40,41
 31 58.1299 31 58.1299 31 70 c 2,42,-1
 31 630 l 2,43,44
 31 641.155 31 641.155 40.4492 650.385 c 0,45,46
 50.2939 660 50.2939 660 61 660 c 2,47,-1
 425 660 l 2,48,49
 435.706 660 435.706 660 445.551 650.385 c 0,50,51
 455 641.155 455 641.155 455 630 c 2,52,-1
 455 70 l 2,53,54
 455 58.1289 455 58.1289 445.896 49.4492 c 0,55,56
 435.986 40 435.986 40 425 40 c 2,57,-1
 61 40 l 2,38,39
333.146 588 m 1,58,-1
 152.854 588 l 1,59,-1
 152.854 112 l 1,60,-1
 333.146 112 l 1,61,-1
 333.146 588 l 1,58,-1
EndSplineSet
EndChar

StartChar: Oslash
Encoding: 216 216 138
Width: 551
Flags: HW
LayerCount: 2
Fore
SplineSet
40.3115 -23.8975 m 1,0,-1
 29 -15.3018 l 1,1,-1
 56.0996 17.6572 l 1,2,-1
 46.708 36.4424 l 1,3,-1
 46.708 591 l 2,4,5
 46.708 602.432 46.708 602.432 55.9912 611.715 c 128,-1,6
 65.2764 621 65.2764 621 76.708 621 c 2,7,-1
 464.036 621 l 1,8,-1
 476.239 635.156 l 1,9,-1
 489.159 625.166 l 1,10,-1
 470.708 601.969 l 1,11,-1
 470.708 31 l 2,12,13
 470.708 19.1289 470.708 19.1289 461.604 10.4492 c 0,14,15
 451.693 1 451.693 1 440.708 1 c 2,16,-1
 60.8516 1 l 1,17,-1
 40.3115 -23.8975 l 1,0,-1
353.271 589 m 1,18,-1
 164.284 589 l 1,19,-1
 164.284 199.906 l 1,20,-1
 353.271 506.492 l 1,21,-1
 353.271 589 l 1,18,-1
353.271 490.094 m 1,22,-1
 164.284 183.508 l 1,23,-1
 164.284 112 l 1,24,-1
 353.271 112 l 1,25,-1
 353.271 490.094 l 1,22,-1
EndSplineSet
EndChar

StartChar: Ugrave
Encoding: 217 217 139
Width: 479
Flags: HW
LayerCount: 2
Fore
SplineSet
170.948 885.945 m 1,0,-1
 201.922 872.37 l 1,1,-1
 170.948 879.467 l 1,2,-1
 170.948 885.945 l 1,0,-1
58 40 m 2,3,4
 47.0146 40 47.0146 40 37.0947 49.458 c 0,5,6
 28 58.1299 28 58.1299 28 70 c 2,7,-1
 28 660 l 1,8,-1
 149.854 660 l 1,9,-1
 149.854 112 l 1,10,-1
 330.146 112 l 1,11,-1
 330.146 660 l 1,12,-1
 452 660 l 1,13,-1
 452 40 l 1,14,-1
 58 40 l 2,3,4
EndSplineSet
EndChar

StartChar: Uacute
Encoding: 218 218 140
Width: 480
Flags: HW
LayerCount: 2
Fore
SplineSet
308.052 885.945 m 1,0,-1
 308.052 879.467 l 1,1,-1
 277.078 872.37 l 1,2,-1
 308.052 885.945 l 1,0,-1
57 40 m 2,3,4
 46.0146 40 46.0146 40 36.0947 49.458 c 0,5,6
 27 58.1299 27 58.1299 27 70 c 2,7,-1
 27 660 l 1,8,-1
 148.854 660 l 1,9,-1
 148.854 112 l 1,10,-1
 329.146 112 l 1,11,-1
 329.146 660 l 1,12,-1
 451 660 l 1,13,-1
 451 40 l 1,14,-1
 57 40 l 2,3,4
EndSplineSet
EndChar

StartChar: Ucircumflex
Encoding: 219 219 141
Width: 484
Flags: HW
LayerCount: 2
Fore
SplineSet
278.957 875.744 m 1,0,-1
 242 887.221 l 1,1,-1
 205.043 875.744 l 1,2,-1
 242 897.7 l 1,3,-1
 278.957 875.744 l 1,0,-1
60 40 m 2,4,5
 49.0146 40 49.0146 40 39.0947 49.458 c 0,6,7
 30 58.1299 30 58.1299 30 70 c 2,8,-1
 30 660 l 1,9,-1
 151.854 660 l 1,10,-1
 151.854 112 l 1,11,-1
 332.146 112 l 1,12,-1
 332.146 660 l 1,13,-1
 454 660 l 1,14,-1
 454 40 l 1,15,-1
 60 40 l 2,4,5
EndSplineSet
EndChar

StartChar: Udieresis
Encoding: 220 220 142
Width: 487
Flags: HW
LayerCount: 2
Fore
SplineSet
342.035 837.702 m 1,0,-1
 341.794 837.359 l 2,1,2
 336.611 830 336.611 830 324.751 830 c 0,3,4
 314.374 830 314.374 830 310.79 836.385 c 0,5,6
 303.744 848.939 303.744 848.939 303.744 864 c 0,7,8
 303.744 878.061 303.744 878.061 310.79 890.615 c 0,9,10
 314.374 897 314.374 897 324.751 897 c 0,11,12
 336.611 897 336.611 897 341.794 889.641 c 2,13,-1
 342.035 889.298 l 1,14,-1
 342.332 888.93 l 2,15,16
 352 876.908 352 876.908 352 863 c 0,17,18
 352 850.092 352 850.092 342.332 838.07 c 2,19,-1
 342.035 837.702 l 1,0,-1
182.256 863 m 0,20,21
 182.256 849.229 182.256 849.229 176.332 838.958 c 0,22,23
 171.165 830 171.165 830 159.815 830 c 0,24,25
 148.844 830 148.844 830 143.979 837.005 c 0,26,-1
 143.5 837.652 l 2,27,28
 134 849.791 134 849.791 134 864 c 0,29,30
 134 877.209 134 877.209 143.5 889.348 c 0,31,-1
 143.979 889.996 l 2,32,33
 148.844 897 148.844 897 159.815 897 c 0,34,35
 171.166 897 171.166 897 175.089 890.197 c 0,36,37
 182.256 877.771 182.256 877.771 182.256 863 c 0,20,21
61 40 m 2,38,39
 50.0146 40 50.0146 40 40.0947 49.458 c 0,40,41
 31 58.1299 31 58.1299 31 70 c 2,42,-1
 31 660 l 1,43,-1
 152.854 660 l 1,44,-1
 152.854 112 l 1,45,-1
 333.146 112 l 1,46,-1
 333.146 660 l 1,47,-1
 455 660 l 1,48,-1
 455 40 l 1,49,-1
 61 40 l 2,38,39
EndSplineSet
EndChar

StartChar: germandbls
Encoding: 223 223 143
Width: 494
Flags: HW
LayerCount: 2
Fore
SplineSet
155.854 528 m 2,0,-1
 155.854 80 l 1,1,-1
 34 80 l 1,2,-1
 34 520 l 2,3,4
 34 619.433 34 619.433 74.2852 659.715 c 128,-1,5
 114.57 700 114.57 700 194.368 700 c 2,6,-1
 428 700 l 2,7,8
 438.706 700 438.706 700 448.551 690.385 c 0,9,10
 458 681.155 458 681.155 458 670 c 2,11,-1
 458 443.227 l 2,12,13
 458 430.051 458 430.051 448.316 419.594 c 0,14,15
 439.092 409.633 439.092 409.633 430 409.633 c 2,16,-1
 415.84 409.633 l 1,17,-1
 411.122 327.785 l 1,18,-1
 424.952 325.975 l 2,19,20
 439.239 324.104 439.239 324.104 453.332 314.043 c 0,21,22
 458 310.86 458 310.86 458 307 c 2,23,-1
 458 85 l 2,24,25
 458 73.1289 458 73.1289 448.896 64.4492 c 0,26,27
 438.986 55 438.986 55 428 55 c 2,28,-1
 265.153 55 l 1,29,-1
 265.153 127 l 1,30,-1
 336.146 127 l 1,31,-1
 336.146 347 l 1,32,-1
 293.837 347 l 1,33,-1
 293.837 383 l 1,34,-1
 336.146 383 l 1,35,-1
 336.146 628 l 1,36,-1
 230.224 628 l 2,37,38
 193.41 628 193.41 628 174.093 601.064 c 0,39,40
 155.854 575.629 155.854 575.629 155.854 528 c 2,0,-1
EndSplineSet
EndChar

StartChar: agrave
Encoding: 224 224 144
Width: 428
Flags: HW
LayerCount: 2
Fore
SplineSet
152.265 710.527 m 1,0,-1
 179.41 697.564 l 1,1,-1
 152.265 704.34 l 1,2,-1
 152.265 710.527 l 1,0,-1
57 40 m 2,3,4
 45.5684 40 45.5684 40 36.2852 49.2852 c 128,-1,5
 27 58.5684 27 58.5684 27 70 c 2,6,-1
 27 245 l 2,7,8
 27 255.432 27 255.432 36.2852 264.716 c 128,-1,9
 45.5693 274 45.5693 274 57 274 c 2,10,-1
 282.575 274 l 1,11,-1
 282.575 428 l 1,12,-1
 27 428 l 1,13,-1
 27 500 l 1,14,-1
 373 500 l 2,15,16
 384.432 500 384.432 500 393.666 490.764 c 0,17,18
 403 481.08 403 481.08 403 469.021 c 2,19,-1
 403 40 l 1,20,-1
 57 40 l 2,3,4
282.575 238 m 1,21,-1
 147.425 238 l 1,22,-1
 147.425 111 l 1,23,-1
 282.575 111 l 1,24,-1
 282.575 238 l 1,21,-1
EndSplineSet
EndChar

StartChar: aacute
Encoding: 225 225 145
Width: 427
Flags: HW
LayerCount: 2
Fore
SplineSet
273.735 710.526 m 1,0,-1
 273.735 704.34 l 1,1,-1
 246.59 697.564 l 1,2,-1
 273.735 710.526 l 1,0,-1
53 40 m 2,3,4
 41.5684 40 41.5684 40 32.2852 49.2852 c 128,-1,5
 23 58.5684 23 58.5684 23 70 c 2,6,-1
 23 245 l 2,7,8
 23 255.432 23 255.432 32.2852 264.716 c 128,-1,9
 41.5693 274 41.5693 274 53 274 c 2,10,-1
 278.575 274 l 1,11,-1
 278.575 428 l 1,12,-1
 23 428 l 1,13,-1
 23 500 l 1,14,-1
 369 500 l 2,15,16
 380.432 500 380.432 500 389.666 490.764 c 0,17,18
 399 481.08 399 481.08 399 469.021 c 2,19,-1
 399 40 l 1,20,-1
 53 40 l 2,3,4
278.575 238 m 1,21,-1
 143.425 238 l 1,22,-1
 143.425 111 l 1,23,-1
 278.575 111 l 1,24,-1
 278.575 238 l 1,21,-1
EndSplineSet
EndChar

StartChar: acircumflex
Encoding: 226 226 146
Width: 433
Flags: HW
LayerCount: 2
Fore
SplineSet
251.858 700.755 m 1,0,-1
 216 712.223 l 1,1,-1
 180.142 700.755 l 1,2,-1
 216 722.693 l 1,3,-1
 251.858 700.755 l 1,0,-1
58 40 m 2,4,5
 46.5684 40 46.5684 40 37.2852 49.2852 c 128,-1,6
 28 58.5684 28 58.5684 28 70 c 2,7,-1
 28 245 l 2,8,9
 28 255.432 28 255.432 37.2852 264.716 c 128,-1,10
 46.5693 274 46.5693 274 58 274 c 2,11,-1
 283.575 274 l 1,12,-1
 283.575 428 l 1,13,-1
 28 428 l 1,14,-1
 28 500 l 1,15,-1
 374 500 l 2,16,17
 385.432 500 385.432 500 394.666 490.764 c 0,18,19
 404 481.08 404 481.08 404 469.021 c 2,20,-1
 404 40 l 1,21,-1
 58 40 l 2,4,5
283.575 238 m 1,22,-1
 148.425 238 l 1,23,-1
 148.425 111 l 1,24,-1
 283.575 111 l 1,25,-1
 283.575 238 l 1,22,-1
EndSplineSet
EndChar

StartChar: atilde
Encoding: 227 227 147
Width: 437
Flags: HW
LayerCount: 2
Fore
SplineSet
236.343 672.667 m 0,0,1
 234.732 673.78 234.732 673.78 232.801 675.083 c 1,2,3
 239.351 671.011 239.351 671.011 245.741 667.275 c 0,4,5
 268.455 654 268.455 654 290.879 654 c 0,6,7
 305.817 654 305.817 654 320.812 658.055 c 1,8,9
 315.788 653.55 315.788 653.55 311.929 651.386 c 0,10,11
 300.546 645 300.546 645 290.879 645 c 0,12,13
 280.739 645 280.739 645 269.234 651.725 c 0,14,15
 252.955 661.24 252.955 661.24 236.343 672.667 c 0,0,1
209.529 690.331 m 0,16,17
 212.365 688.376 212.365 688.376 215.631 686.184 c 1,18,19
 207.286 691.331 207.286 691.331 199.105 695.934 c 0,20,21
 175.887 709 175.887 709 152.187 709 c 0,22,23
 134.08 709 134.08 709 112.989 702.137 c 1,24,25
 120.106 707.631 120.106 707.631 126.792 710.695 c 0,26,27
 141.974 718 141.974 718 152.187 718 c 0,28,29
 164.024 718 164.024 718 176.346 711.066 c 0,30,31
 193.084 701.647 193.084 701.647 209.529 690.331 c 0,16,17
60 40 m 2,32,33
 48.5684 40 48.5684 40 39.2852 49.2852 c 128,-1,34
 30 58.5684 30 58.5684 30 70 c 2,35,-1
 30 245 l 2,36,37
 30 255.432 30 255.432 39.2852 264.716 c 128,-1,38
 48.5693 274 48.5693 274 60 274 c 2,39,-1
 285.575 274 l 1,40,-1
 285.575 428 l 1,41,-1
 30 428 l 1,42,-1
 30 500 l 1,43,-1
 376 500 l 2,44,45
 387.432 500 387.432 500 396.666 490.764 c 0,46,47
 406 481.08 406 481.08 406 469.021 c 2,48,-1
 406 40 l 1,49,-1
 60 40 l 2,32,33
285.575 238 m 1,50,-1
 150.425 238 l 1,51,-1
 150.425 111 l 1,52,-1
 285.575 111 l 1,53,-1
 285.575 238 l 1,50,-1
EndSplineSet
EndChar

StartChar: adieresis
Encoding: 228 228 148
Width: 437
Flags: HW
LayerCount: 2
Fore
SplineSet
327 688 m 0,0,1
 327 675.092 327 675.092 317.042 662.71 c 0,2,3
 310.84 655 310.84 655 293.829 655 c 0,4,5
 284.049 655 284.049 655 280.907 661.101 c 0,6,7
 274.386 673.759 274.386 673.759 274.386 689 c 0,8,9
 274.386 703.241 274.386 703.241 280.908 715.9 c 0,10,11
 284.049 722 284.049 722 293.829 722 c 0,12,13
 310.84 722 310.84 722 317.332 713.93 c 0,14,15
 327 701.908 327 701.908 327 688 c 0,0,1
161.614 688 m 0,16,17
 161.614 674.046 161.614 674.046 154.919 661.399 c 0,18,19
 151.532 655 151.532 655 140.577 655 c 0,20,21
 124.489 655 124.489 655 118.5 662.652 c 0,22,23
 109 674.791 109 674.791 109 689 c 0,24,25
 109 702.209 109 702.209 118.5 714.348 c 0,26,27
 124.489 722 124.489 722 140.577 722 c 0,28,29
 151.532 722 151.532 722 154.981 715.484 c 0,30,31
 161.614 702.954 161.614 702.954 161.614 688 c 0,16,17
60 40 m 2,32,33
 48.5684 40 48.5684 40 39.2852 49.2852 c 128,-1,34
 30 58.5684 30 58.5684 30 70 c 2,35,-1
 30 245 l 2,36,37
 30 255.432 30 255.432 39.2852 264.716 c 128,-1,38
 48.5693 274 48.5693 274 60 274 c 2,39,-1
 285.575 274 l 1,40,-1
 285.575 428 l 1,41,-1
 30 428 l 1,42,-1
 30 500 l 1,43,-1
 376 500 l 2,44,45
 387.432 500 387.432 500 396.666 490.764 c 0,46,47
 406 481.08 406 481.08 406 469.021 c 2,48,-1
 406 40 l 1,49,-1
 60 40 l 2,32,33
285.575 238 m 1,50,-1
 150.425 238 l 1,51,-1
 150.425 111 l 1,52,-1
 285.575 111 l 1,53,-1
 285.575 238 l 1,50,-1
EndSplineSet
EndChar

StartChar: aring
Encoding: 229 229 149
Width: 424
Flags: HW
LayerCount: 2
Fore
SplineSet
180.919 687.751 m 0,0,1
 177.88 698.522 177.88 698.522 177.88 710 c 128,-1,2
 177.88 721.478 177.88 721.478 180.874 732.09 c 0,3,4
 182.279 737.069 182.279 737.069 184.161 741.449 c 2,5,-1
 186.844 747.691 l 1,6,-1
 164.303 762.226 l 1,7,-1
 161.087 755.082 l 2,8,9
 151.98 734.851 151.98 734.851 151.98 710 c 128,-1,10
 151.98 685.148 151.98 685.148 161.087 664.917 c 2,11,-1
 164.303 657.773 l 1,12,-1
 186.844 672.308 l 1,13,-1
 184.161 678.551 l 2,14,15
 182.279 682.93 182.279 682.93 180.919 687.751 c 0,0,1
199.873 761.487 m 0,16,17
 205.268 765 205.268 765 211 765 c 128,-1,18
 216.732 765 216.732 765 220.47 762.565 c 0,19,20
 225.109 759.546 225.109 759.546 227.671 757.003 c 2,21,-1
 233.093 751.623 l 1,22,-1
 249.228 774.909 l 1,23,-1
 244.751 779.562 l 2,24,25
 229.895 795 229.895 795 211 795 c 128,-1,26
 192.11 795 192.11 795 177.254 779.566 c 2,27,-1
 172.776 774.914 l 1,28,-1
 188.907 751.627 l 1,29,-1
 194.33 757.004 l 2,30,31
 196.893 759.546 196.893 759.546 199.873 761.487 c 0,16,17
241.155 731.987 m 0,32,33
 244.119 721.478 244.119 721.478 244.119 710 c 128,-1,34
 244.119 698.522 244.119 698.522 241.155 688.013 c 0,35,36
 239.722 682.933 239.722 682.933 237.84 678.554 c 2,37,-1
 235.155 672.311 l 1,38,-1
 257.699 657.775 l 1,39,-1
 260.914 664.919 l 2,40,41
 270.02 685.15 270.02 685.15 270.02 710 c 128,-1,42
 270.02 734.849 270.02 734.849 260.915 755.079 c 2,43,-1
 257.7 762.222 l 1,44,-1
 235.156 747.689 l 1,45,-1
 237.84 741.446 l 2,46,47
 239.722 737.068 239.722 737.068 241.155 731.987 c 0,32,33
221.842 658.327 m 0,48,49
 216.732 655 216.732 655 211 655 c 128,-1,50
 205.268 655 205.268 655 200.139 658.339 c 0,51,52
 196.891 660.455 196.891 660.455 194.328 662.997 c 2,53,-1
 188.906 668.376 l 1,54,-1
 172.774 645.088 l 1,55,-1
 177.252 640.436 l 2,56,57
 192.107 625 192.107 625 211 625 c 128,-1,58
 229.893 625 229.893 625 244.75 640.438 c 2,59,-1
 249.227 645.09 l 1,60,-1
 233.093 668.378 l 1,61,-1
 227.671 662.997 l 2,62,63
 225.108 660.454 225.108 660.454 221.842 658.327 c 0,48,49
53 40 m 2,64,65
 41.5684 40 41.5684 40 32.2852 49.2852 c 128,-1,66
 23 58.5684 23 58.5684 23 70 c 2,67,-1
 23 245 l 2,68,69
 23 255.432 23 255.432 32.2852 264.716 c 128,-1,70
 41.5693 274 41.5693 274 53 274 c 2,71,-1
 278.575 274 l 1,72,-1
 278.575 428 l 1,73,-1
 23 428 l 1,74,-1
 23 500 l 1,75,-1
 369 500 l 2,76,77
 380.432 500 380.432 500 389.666 490.764 c 0,78,79
 399 481.08 399 481.08 399 469.021 c 2,80,-1
 399 40 l 1,81,-1
 53 40 l 2,64,65
278.575 238 m 1,82,-1
 143.425 238 l 1,83,-1
 143.425 111 l 1,84,-1
 278.575 111 l 1,85,-1
 278.575 238 l 1,82,-1
EndSplineSet
EndChar

StartChar: ae
Encoding: 230 230 150
Width: 984
Flags: HW
LayerCount: 2
Fore
SplineSet
66 40 m 2,0,1
 55.0146 40 55.0146 40 45.0947 49.458 c 0,2,3
 36 58.1299 36 58.1299 36 70 c 2,4,-1
 36 245 l 2,5,6
 36 255.156 36 255.156 45.4492 264.385 c 0,7,8
 55.293 274 55.293 274 66 274 c 2,9,-1
 341.625 274 l 1,10,-1
 341.625 428 l 1,11,-1
 36 428 l 1,12,-1
 36 500 l 1,13,-1
 430.228 500 l 2,14,15
 438.715 500 438.715 500 446.841 491.585 c 0,16,17
 455.427 482.694 455.427 482.694 456.164 472.017 c 2,18,-1
 457.125 458.083 l 1,19,-1
 528.875 458.083 l 1,20,-1
 529.836 472.017 l 2,21,22
 530.573 482.694 530.573 482.694 539.16 491.586 c 0,23,24
 547.285 500 547.285 500 555.772 500 c 2,25,-1
 920 500 l 2,26,27
 930.708 500 930.708 500 940.51 490.424 c 0,28,29
 950 480.878 950 480.878 950 469.229 c 2,30,-1
 950 270.167 l 2,31,32
 950 257.363 950 257.363 940.817 248.044 c 0,33,34
 930.921 238 930.921 238 920 238 c 2,35,-1
 644.375 238 l 1,36,-1
 644.375 111 l 1,37,-1
 927.368 111 l 1,38,-1
 894.453 40 l 1,39,-1
 555.772 40 l 2,40,41
 546.798 40 546.798 40 537.809 48.1572 c 0,42,43
 530.469 54.8203 530.469 54.8203 529.836 63.9824 c 2,44,-1
 528.836 78.5078 l 1,45,-1
 456.061 75.3906 l 1,46,-1
 456.061 40 l 1,47,-1
 66 40 l 2,0,1
823.172 428 m 1,48,-1
 644.375 428 l 1,49,-1
 644.375 274 l 1,50,-1
 823.172 274 l 1,51,-1
 823.172 428 l 1,48,-1
341.625 238 m 1,52,-1
 162.829 238 l 1,53,-1
 162.829 111 l 1,54,-1
 341.625 111 l 1,55,-1
 341.625 238 l 1,52,-1
EndSplineSet
EndChar

StartChar: ccedilla
Encoding: 231 231 151
Width: 422
Flags: HW
LayerCount: 2
Fore
SplineSet
403.349 -138 m 0,0,1
 403.349 -117.062 403.349 -117.062 394.811 -98.6533 c 1,2,3
 396.182 -100.043 396.182 -100.043 397.374 -101.411 c 0,4,-1
 397.935 -102.011 l 2,5,6
 405.567 -109.469 405.567 -109.469 410.671 -119.976 c 0,7,8
 415.15 -129.201 415.15 -129.201 415.15 -144 c 0,9,10
 415.15 -163.426 415.15 -163.426 407.346 -174.613 c 0,11,-1
 406.974 -175.174 l 2,12,13
 398.222 -189.004 398.222 -189.004 386.958 -196.938 c 0,14,15
 381.427 -201.051 381.427 -201.051 374.547 -204.362 c 1,16,17
 382.131 -197.602 382.131 -197.602 387.958 -189.28 c 0,18,19
 403.349 -168.427 403.349 -168.427 403.349 -138 c 0,0,1
352.842 0 m 1,20,-1
 348.94 -61.8145 l 1,21,22
 337.969 -59 337.969 -59 326.476 -59 c 128,-1,23
 314.934 -59 314.934 -59 303.275 -61.2354 c 1,24,-1
 299.408 0 l 1,25,-1
 181.796 0 l 2,26,27
 171.858 0 171.858 0 163.643 9.20312 c 128,-1,28
 155.388 18.4512 155.388 18.4512 155.388 30 c 2,29,-1
 155.388 415 l 2,30,31
 155.388 426.549 155.388 426.549 163.7 435.86 c 128,-1,32
 171.858 445 171.858 445 181.796 445 c 2,33,-1
 509.691 445 l 1,34,-1
 476.534 373 l 1,35,-1
 262.995 373 l 1,36,-1
 262.995 71 l 1,37,-1
 509.519 71 l 1,38,-1
 476.605 0 l 1,39,-1
 352.842 0 l 1,20,-1
292.939 -56.251 m 1,40,-1
 25 -122.536 l 1,41,-1
 27.7822 -123.38 l 1,42,-1
 54.7207 -131.032 l 1,43,-1
 60.8203 -129.618 l 2,44,45
 61.6123 -129.433 61.6123 -129.433 62.1328 -129.313 c 128,-1,46
 62.6709 -129.186 62.6709 -129.186 62.9736 -129.118 c 0,47,-1
 69.4639 -127.612 l 2,48,49
 69.708 -127.556 69.708 -127.556 69.9551 -127.498 c 128,-1,50
 70.2021 -127.44 70.2021 -127.44 71.1494 -127.221 c 2,51,-1
 72.1953 -126.979 l 1,52,-1
 74.2959 -126.491 l 1,53,-1
 75.1543 -126.292 l 2,54,55
 76.1602 -126.059 76.1602 -126.059 76.3525 -126.014 c 128,-1,56
 76.5439 -125.97 76.5439 -125.97 77.1943 -125.818 c 128,-1,57
 77.7783 -125.682 77.7783 -125.682 78.1104 -125.607 c 128,-1,58
 78.4424 -125.532 78.4424 -125.532 78.6689 -125.477 c 2,59,-1
 84.4844 -124.127 l 2,60,61
 85.0273 -123.998 85.0273 -123.998 85.3174 -123.932 c 128,-1,62
 85.6084 -123.866 85.6084 -123.866 86.2324 -123.722 c 2,63,-1
 89.6553 -122.927 l 2,64,65
 89.8916 -122.866 89.8916 -122.866 90.2432 -122.787 c 128,-1,66
 90.5947 -122.707 90.5947 -122.707 91.2334 -122.561 c 128,-1,67
 91.8975 -122.404 91.8975 -122.404 92.2012 -122.334 c 128,-1,68
 92.5049 -122.264 92.5049 -122.264 93.0264 -122.145 c 2,69,-1
 105.242 -119.311 l 1,70,-1
 107.276 -118.839 l 1,71,-1
 109.699 -118.276 l 1,72,-1
 112.132 -117.712 l 1,73,-1
 114.187 -117.235 l 2,74,75
 116.353 -116.733 116.353 -116.733 116.384 -116.726 c 128,-1,76
 116.414 -116.718 116.414 -116.718 117.516 -116.463 c 0,77,78
 118.974 -116.124 118.974 -116.124 119.17 -116.079 c 128,-1,79
 119.365 -116.034 119.365 -116.034 120.167 -115.848 c 128,-1,80
 120.969 -115.661 120.969 -115.661 121.195 -115.607 c 128,-1,81
 121.421 -115.554 121.421 -115.554 122.664 -115.269 c 2,82,-1
 130.649 -113.415 l 2,83,84
 131.924 -113.118 131.924 -113.118 132.167 -113.063 c 128,-1,85
 132.409 -113.008 132.409 -113.008 133.229 -112.816 c 2,86,-1
 138.073 -111.692 l 1,87,-1
292.968 -63.7441 m 1,88,-1
 292.968 -63.7441 l 1,88,-1
EndSplineSet
EndChar

StartChar: egrave
Encoding: 232 232 152
Width: 426
Flags: HW
LayerCount: 2
Fore
SplineSet
151.948 710.527 m 1,0,-1
 179.093 697.564 l 1,1,-1
 151.948 704.34 l 1,2,-1
 151.948 710.527 l 1,0,-1
58 40 m 2,3,4
 46.5684 40 46.5684 40 37.2852 49.2852 c 128,-1,5
 28 58.5684 28 58.5684 28 70 c 2,6,-1
 28 469.221 l 2,7,8
 28 481.152 28 481.152 37.3242 490.754 c 0,9,10
 46.5693 500 46.5693 500 58 500 c 2,11,-1
 374 500 l 2,12,13
 385.432 500 385.432 500 394.677 490.754 c 0,14,15
 404 481.152 404 481.152 404 469.221 c 2,16,-1
 404 270.166 l 2,17,18
 404 257.835 404 257.835 394.638 247.869 c 128,-1,19
 385.366 238 385.366 238 374 238 c 2,20,-1
 148.425 238 l 1,21,-1
 148.425 111 l 1,22,-1
 381.368 111 l 1,23,-1
 348.454 40 l 1,24,-1
 58 40 l 2,3,4
283.575 428 m 1,25,-1
 148.425 428 l 1,26,-1
 148.425 274 l 1,27,-1
 283.575 274 l 1,28,-1
 283.575 428 l 1,25,-1
EndSplineSet
EndChar

StartChar: eacute
Encoding: 233 233 153
Width: 426
Flags: HW
LayerCount: 2
Fore
SplineSet
274.418 710.526 m 1,0,-1
 274.418 704.34 l 1,1,-1
 247.274 697.564 l 1,2,-1
 274.418 710.526 l 1,0,-1
55 40 m 2,3,4
 43.5684 40 43.5684 40 34.2852 49.2852 c 128,-1,5
 25 58.5684 25 58.5684 25 70 c 2,6,-1
 25 469.221 l 2,7,8
 25 481.152 25 481.152 34.3242 490.754 c 0,9,10
 43.5693 500 43.5693 500 55 500 c 2,11,-1
 371 500 l 2,12,13
 382.432 500 382.432 500 391.677 490.754 c 0,14,15
 401 481.152 401 481.152 401 469.221 c 2,16,-1
 401 270.166 l 2,17,18
 401 257.835 401 257.835 391.638 247.869 c 128,-1,19
 382.366 238 382.366 238 371 238 c 2,20,-1
 145.425 238 l 1,21,-1
 145.425 111 l 1,22,-1
 378.368 111 l 1,23,-1
 345.454 40 l 1,24,-1
 55 40 l 2,3,4
280.575 428 m 1,25,-1
 145.425 428 l 1,26,-1
 145.425 274 l 1,27,-1
 280.575 274 l 1,28,-1
 280.575 428 l 1,25,-1
EndSplineSet
EndChar

StartChar: ecircumflex
Encoding: 234 234 154
Width: 431
Flags: HW
LayerCount: 2
Fore
SplineSet
251.331 700.777 m 1,0,-1
 215.697 712.223 l 1,1,-1
 179.617 700.732 l 1,2,-1
 215.662 722.693 l 1,3,-1
 251.331 700.777 l 1,0,-1
59 40 m 2,4,5
 47.5684 40 47.5684 40 38.2852 49.2852 c 128,-1,6
 29 58.5684 29 58.5684 29 70 c 2,7,-1
 29 469.221 l 2,8,9
 29 481.152 29 481.152 38.3242 490.754 c 0,10,11
 47.5693 500 47.5693 500 59 500 c 2,12,-1
 375 500 l 2,13,14
 386.432 500 386.432 500 395.677 490.754 c 0,15,16
 405 481.152 405 481.152 405 469.221 c 2,17,-1
 405 270.166 l 2,18,19
 405 257.835 405 257.835 395.638 247.869 c 128,-1,20
 386.366 238 386.366 238 375 238 c 2,21,-1
 149.425 238 l 1,22,-1
 149.425 111 l 1,23,-1
 382.368 111 l 1,24,-1
 349.454 40 l 1,25,-1
 59 40 l 2,4,5
284.575 428 m 1,26,-1
 149.425 428 l 1,27,-1
 149.425 274 l 1,28,-1
 284.575 274 l 1,29,-1
 284.575 428 l 1,26,-1
EndSplineSet
EndChar

StartChar: edieresis
Encoding: 235 235 155
Width: 435
Flags: HW
LayerCount: 2
Fore
SplineSet
326 688 m 0,0,1
 326 675.092 326 675.092 316.049 662.718 c 0,2,3
 309.84 655 309.84 655 293.34 655 c 0,4,5
 283.733 655 283.733 655 280.592 661.101 c 0,6,7
 274.071 673.759 274.071 673.759 274.071 689 c 0,8,9
 274.071 703.241 274.071 703.241 280.592 715.9 c 0,10,11
 283.733 722 283.733 722 293.34 722 c 0,12,13
 309.841 722 309.841 722 316.332 713.93 c 0,14,15
 326 701.908 326 701.908 326 688 c 0,0,1
161.297 688 m 0,16,17
 161.297 674.046 161.297 674.046 154.604 661.401 c 0,18,19
 151.215 655 151.215 655 139.983 655 c 0,20,21
 123.489 655 123.489 655 117.5 662.652 c 0,22,23
 108 674.791 108 674.791 108 689 c 0,24,25
 108 702.209 108 702.209 117.5 714.348 c 0,26,27
 123.489 722 123.489 722 139.983 722 c 0,28,29
 151.215 722 151.215 722 154.664 715.484 c 0,30,31
 161.297 702.954 161.297 702.954 161.297 688 c 0,16,17
61 40 m 2,32,33
 49.5684 40 49.5684 40 40.2852 49.2852 c 128,-1,34
 31 58.5684 31 58.5684 31 70 c 2,35,-1
 31 469.221 l 2,36,37
 31 481.152 31 481.152 40.3242 490.754 c 0,38,39
 49.5693 500 49.5693 500 61 500 c 2,40,-1
 377 500 l 2,41,42
 388.432 500 388.432 500 397.677 490.754 c 0,43,44
 407 481.152 407 481.152 407 469.221 c 2,45,-1
 407 270.166 l 2,46,47
 407 257.835 407 257.835 397.638 247.869 c 128,-1,48
 388.366 238 388.366 238 377 238 c 2,49,-1
 151.425 238 l 1,50,-1
 151.425 111 l 1,51,-1
 384.368 111 l 1,52,-1
 351.454 40 l 1,53,-1
 61 40 l 2,32,33
286.575 428 m 1,54,-1
 151.425 428 l 1,55,-1
 151.425 274 l 1,56,-1
 286.575 274 l 1,57,-1
 286.575 428 l 1,54,-1
EndSplineSet
EndChar

StartChar: igrave
Encoding: 236 236 156
Width: 203
Flags: HW
LayerCount: 2
Fore
SplineSet
2 712.5 m 1,0,-1
 52.2354 696.711 l 1,1,-1
 2 704.964 l 1,2,-1
 2 712.5 l 1,0,-1
166 500 m 1,3,-1
 166 55 l 1,4,-1
 36 55 l 1,5,-1
 36 500 l 1,6,-1
 166 500 l 1,3,-1
EndSplineSet
EndChar

StartChar: iacute
Encoding: 237 237 157
Width: 203
Flags: HW
LayerCount: 2
Fore
SplineSet
168 712.5 m 1,0,-1
 168 704.964 l 1,1,-1
 117.765 696.711 l 1,2,-1
 168 712.5 l 1,0,-1
132 500 m 1,3,-1
 132 55 l 1,4,-1
 2 55 l 1,5,-1
 2 500 l 1,6,-1
 132 500 l 1,3,-1
EndSplineSet
EndChar

StartChar: icircumflex
Encoding: 238 238 158
Width: 153
Flags: HW
LayerCount: 2
Fore
SplineSet
28.8838 700.526 m 1,0,-1
 -14.5576 712.184 l 1,1,-1
 -58 700.526 l 1,2,-1
 -14.5576 722.826 l 1,3,-1
 28.8838 700.526 l 1,0,-1
24.4424 500 m 1,4,-1
 24.4424 55 l 1,5,-1
 -55.5576 55 l 1,6,-1
 -55.5576 500 l 1,7,-1
 24.4424 500 l 1,4,-1
EndSplineSet
EndChar

StartChar: idieresis
Encoding: 239 239 159
Width: 153
Flags: HW
LayerCount: 2
Fore
SplineSet
201 688 m 0,0,1
 201 675.091 201 675.091 191.206 662.914 c 0,2,3
 184.84 655 184.84 655 166 655 c 0,4,5
 148.489 655 148.489 655 142.5 662.652 c 0,6,7
 133 674.791 133 674.791 133 689 c 0,8,9
 133 702.209 133 702.209 142.5 714.348 c 0,10,11
 148.489 722 148.489 722 166 722 c 0,12,13
 184.84 722 184.84 722 191.332 713.93 c 0,14,15
 201 701.908 201 701.908 201 688 c 0,0,1
21 688 m 0,16,17
 21 675.091 21 675.091 11.1758 662.876 c 0,18,19
 4.83984 655 4.83984 655 -14 655 c 0,20,21
 -31.5107 655 -31.5107 655 -37.5 662.652 c 0,22,23
 -47 674.791 -47 674.791 -47 689 c 0,24,25
 -47 702.209 -47 702.209 -37.5 714.348 c 0,26,27
 -31.5107 722 -31.5107 722 -14 722 c 0,28,29
 4.83984 722 4.83984 722 11.3311 713.931 c 0,30,31
 21 701.908 21 701.908 21 688 c 0,16,17
116 500 m 1,32,-1
 116 55 l 1,33,-1
 36 55 l 1,34,-1
 36 500 l 1,35,-1
 116 500 l 1,32,-1
EndSplineSet
EndChar

StartChar: ntilde
Encoding: 241 241 160
Width: 439
Flags: HW
LayerCount: 2
Fore
SplineSet
238.343 672.667 m 0,0,1
 236.731 673.78 236.731 673.78 234.801 675.083 c 1,2,3
 241.35 671.011 241.35 671.011 247.741 667.275 c 0,4,5
 270.455 654 270.455 654 292.879 654 c 0,6,7
 307.817 654 307.817 654 322.812 658.055 c 1,8,9
 317.788 653.55 317.788 653.55 313.929 651.386 c 0,10,11
 302.546 645 302.546 645 292.879 645 c 0,12,13
 282.739 645 282.739 645 271.234 651.725 c 0,14,15
 254.956 661.238 254.956 661.238 238.343 672.667 c 0,0,1
211.529 690.331 m 0,16,17
 214.366 688.379 214.366 688.379 217.631 686.184 c 1,18,19
 209.284 691.331 209.284 691.331 201.105 695.934 c 0,20,21
 177.887 709 177.887 709 154.187 709 c 0,22,23
 136.08 709 136.08 709 114.989 702.137 c 1,24,25
 122.106 707.631 122.106 707.631 128.792 710.695 c 0,26,27
 143.974 718 143.974 718 154.187 718 c 0,28,29
 166.024 718 166.024 718 178.346 711.066 c 0,30,31
 195.084 701.647 195.084 701.647 211.529 690.331 c 0,16,17
152.425 428 m 1,32,-1
 152.425 55 l 1,33,-1
 32 55 l 1,34,-1
 32 500 l 1,35,-1
 378 500 l 2,36,37
 389.432 500 389.432 500 398.716 490.715 c 128,-1,38
 408 481.432 408 481.432 408 470 c 2,39,-1
 408 55 l 1,40,-1
 287.575 55 l 1,41,-1
 287.575 428 l 1,42,-1
 152.425 428 l 1,32,-1
EndSplineSet
EndChar

StartChar: ograve
Encoding: 242 242 161
Width: 429
Flags: HW
LayerCount: 2
Fore
SplineSet
153.265 710.527 m 1,0,-1
 180.41 697.564 l 1,1,-1
 153.265 704.34 l 1,2,-1
 153.265 710.527 l 1,0,-1
58 55 m 2,3,4
 46.5684 55 46.5684 55 37.2852 64.2852 c 128,-1,5
 28 73.5684 28 73.5684 28 85 c 2,6,-1
 28 470 l 2,7,8
 28 481.432 28 481.432 37.2852 490.716 c 128,-1,9
 46.5693 500 46.5693 500 58 500 c 2,10,-1
 374 500 l 2,11,12
 385.432 500 385.432 500 394.716 490.715 c 128,-1,13
 404 481.432 404 481.432 404 470 c 2,14,-1
 404 85 l 2,15,16
 404 73.5693 404 73.5693 394.715 64.2842 c 128,-1,17
 385.432 55 385.432 55 374 55 c 2,18,-1
 58 55 l 2,3,4
283.575 428 m 1,19,-1
 148.425 428 l 1,20,-1
 148.425 126 l 1,21,-1
 283.575 126 l 1,22,-1
 283.575 428 l 1,19,-1
EndSplineSet
EndChar

StartChar: oacute
Encoding: 243 243 162
Width: 429
Flags: HW
LayerCount: 2
Fore
SplineSet
275.735 710.526 m 1,0,-1
 275.735 704.34 l 1,1,-1
 248.59 697.564 l 1,2,-1
 275.735 710.526 l 1,0,-1
55 55 m 2,3,4
 43.5684 55 43.5684 55 34.2852 64.2852 c 128,-1,5
 25 73.5684 25 73.5684 25 85 c 2,6,-1
 25 470 l 2,7,8
 25 481.432 25 481.432 34.2852 490.716 c 128,-1,9
 43.5693 500 43.5693 500 55 500 c 2,10,-1
 371 500 l 2,11,12
 382.432 500 382.432 500 391.716 490.715 c 128,-1,13
 401 481.432 401 481.432 401 470 c 2,14,-1
 401 85 l 2,15,16
 401 73.5693 401 73.5693 391.715 64.2842 c 128,-1,17
 382.432 55 382.432 55 371 55 c 2,18,-1
 55 55 l 2,3,4
280.575 428 m 1,19,-1
 145.425 428 l 1,20,-1
 145.425 126 l 1,21,-1
 280.575 126 l 1,22,-1
 280.575 428 l 1,19,-1
EndSplineSet
EndChar

StartChar: ocircumflex
Encoding: 244 244 163
Width: 434
Flags: HW
LayerCount: 2
Fore
SplineSet
252.858 700.755 m 1,0,-1
 217 712.223 l 1,1,-1
 181.142 700.755 l 1,2,-1
 217 722.693 l 1,3,-1
 252.858 700.755 l 1,0,-1
59 55 m 2,4,5
 47.5684 55 47.5684 55 38.2852 64.2852 c 128,-1,6
 29 73.5684 29 73.5684 29 85 c 2,7,-1
 29 470 l 2,8,9
 29 481.432 29 481.432 38.2852 490.716 c 128,-1,10
 47.5693 500 47.5693 500 59 500 c 2,11,-1
 375 500 l 2,12,13
 386.432 500 386.432 500 395.716 490.715 c 128,-1,14
 405 481.432 405 481.432 405 470 c 2,15,-1
 405 85 l 2,16,17
 405 73.5693 405 73.5693 395.715 64.2842 c 128,-1,18
 386.432 55 386.432 55 375 55 c 2,19,-1
 59 55 l 2,4,5
284.575 428 m 1,20,-1
 149.425 428 l 1,21,-1
 149.425 126 l 1,22,-1
 284.575 126 l 1,23,-1
 284.575 428 l 1,20,-1
EndSplineSet
EndChar

StartChar: otilde
Encoding: 245 245 164
Width: 438
Flags: HW
LayerCount: 2
Fore
SplineSet
237.343 672.667 m 0,0,1
 235.734 673.78 235.734 673.78 233.801 675.083 c 1,2,3
 240.35 671.011 240.35 671.011 246.741 667.275 c 0,4,5
 269.455 654 269.455 654 291.879 654 c 0,6,7
 306.817 654 306.817 654 321.812 658.055 c 1,8,9
 316.788 653.55 316.788 653.55 312.929 651.386 c 0,10,11
 301.546 645 301.546 645 291.879 645 c 0,12,13
 281.739 645 281.739 645 270.234 651.725 c 0,14,15
 253.958 661.238 253.958 661.238 237.343 672.667 c 0,0,1
210.529 690.331 m 0,16,17
 213.365 688.376 213.365 688.376 216.631 686.184 c 1,18,19
 208.286 691.331 208.286 691.331 200.105 695.934 c 0,20,21
 176.887 709 176.887 709 153.187 709 c 0,22,23
 135.08 709 135.08 709 113.989 702.137 c 1,24,25
 121.106 707.631 121.106 707.631 127.792 710.695 c 0,26,27
 142.974 718 142.974 718 153.187 718 c 0,28,29
 165.024 718 165.024 718 177.346 711.066 c 0,30,31
 194.084 701.647 194.084 701.647 210.529 690.331 c 0,16,17
61 55 m 2,32,33
 49.5684 55 49.5684 55 40.2852 64.2852 c 128,-1,34
 31 73.5684 31 73.5684 31 85 c 2,35,-1
 31 470 l 2,36,37
 31 481.432 31 481.432 40.2852 490.716 c 128,-1,38
 49.5693 500 49.5693 500 61 500 c 2,39,-1
 377 500 l 2,40,41
 388.432 500 388.432 500 397.716 490.715 c 128,-1,42
 407 481.432 407 481.432 407 470 c 2,43,-1
 407 85 l 2,44,45
 407 73.5693 407 73.5693 397.715 64.2842 c 128,-1,46
 388.432 55 388.432 55 377 55 c 2,47,-1
 61 55 l 2,32,33
286.575 428 m 1,48,-1
 151.425 428 l 1,49,-1
 151.425 126 l 1,50,-1
 286.575 126 l 1,51,-1
 286.575 428 l 1,48,-1
EndSplineSet
EndChar

StartChar: odieresis
Encoding: 246 246 165
Width: 438
Flags: HW
LayerCount: 2
Fore
SplineSet
328 688 m 0,0,1
 328 675.092 328 675.092 318.042 662.71 c 0,2,3
 311.84 655 311.84 655 294.829 655 c 0,4,5
 285.049 655 285.049 655 281.907 661.101 c 0,6,7
 275.386 673.759 275.386 673.759 275.386 689 c 0,8,9
 275.386 703.241 275.386 703.241 281.908 715.9 c 0,10,11
 285.049 722 285.049 722 294.829 722 c 0,12,13
 311.84 722 311.84 722 318.332 713.93 c 0,14,15
 328 701.908 328 701.908 328 688 c 0,0,1
162.614 688 m 0,16,17
 162.614 674.046 162.614 674.046 155.919 661.399 c 0,18,19
 152.532 655 152.532 655 141.577 655 c 0,20,21
 125.489 655 125.489 655 119.5 662.652 c 0,22,23
 110 674.791 110 674.791 110 689 c 0,24,25
 110 702.209 110 702.209 119.5 714.348 c 0,26,27
 125.489 722 125.489 722 141.577 722 c 0,28,29
 152.532 722 152.532 722 155.981 715.484 c 0,30,31
 162.614 702.954 162.614 702.954 162.614 688 c 0,16,17
61 55 m 2,32,33
 49.5684 55 49.5684 55 40.2852 64.2852 c 128,-1,34
 31 73.5684 31 73.5684 31 85 c 2,35,-1
 31 470 l 2,36,37
 31 481.432 31 481.432 40.2852 490.716 c 128,-1,38
 49.5693 500 49.5693 500 61 500 c 2,39,-1
 377 500 l 2,40,41
 388.432 500 388.432 500 397.716 490.715 c 128,-1,42
 407 481.432 407 481.432 407 470 c 2,43,-1
 407 85 l 2,44,45
 407 73.5693 407 73.5693 397.715 64.2842 c 128,-1,46
 388.432 55 388.432 55 377 55 c 2,47,-1
 61 55 l 2,32,33
286.575 428 m 1,48,-1
 151.425 428 l 1,49,-1
 151.425 126 l 1,50,-1
 286.575 126 l 1,51,-1
 286.575 428 l 1,48,-1
EndSplineSet
EndChar

StartChar: divide
Encoding: 247 247 166
Width: 328
Flags: HW
LayerCount: 2
Fore
SplineSet
177.829 536 m 0,0,1
 177.829 521.576 177.829 521.576 172.498 508.441 c 0,2,3
 170.29 503 170.29 503 164 503 c 0,4,5
 158.405 503 158.405 503 156.295 508.345 c 0,6,7
 151.18 521.3 151.18 521.3 151.18 537 c 0,8,9
 151.18 551.701 151.18 551.701 156.295 564.656 c 0,10,11
 158.405 570 158.405 570 164 570 c 0,12,13
 170.291 570 170.291 570 172.626 564.244 c 0,14,15
 177.829 551.424 177.829 551.424 177.829 536 c 0,0,1
317 386 m 1,16,-1
 317 314 l 1,17,-1
 11 314 l 1,18,-1
 11 386 l 1,19,-1
 317 386 l 1,16,-1
172.626 135.756 m 0,20,21
 170.29 130 170.29 130 164 130 c 128,-1,22
 157.709 130 157.709 130 155.332 135.858 c 0,23,24
 150.171 148.576 150.171 148.576 150.171 163 c 0,25,26
 150.171 178.424 150.171 178.424 155.374 191.245 c 0,27,28
 157.709 197 157.709 197 164 197 c 128,-1,29
 170.291 197 170.291 197 172.626 191.245 c 0,30,31
 177.829 178.424 177.829 178.424 177.829 163 c 0,32,33
 177.829 148.576 177.829 148.576 172.626 135.756 c 0,20,21
EndSplineSet
EndChar

StartChar: oslash
Encoding: 248 248 167
Width: 492
Flags: HW
LayerCount: 2
Fore
SplineSet
146.608 127 m 1,0,-1
 287.44 127 l 1,1,-1
 287.44 429 l 1,2,-1
 146.608 429 l 1,3,-1
 146.608 127 l 1,0,-1
45.9893 58.46 m 2,4,-1
 33.167 62.124 l 1,5,-1
 30.2236 76.8467 l 2,6,7
 29.5098 80.4141 29.5098 80.4141 29.1914 82.959 c 0,8,9
 29 84.4902 29 84.4902 29 85 c 2,10,-1
 29 470 l 2,11,12
 29 481.432 29 481.432 38.2852 490.715 c 128,-1,13
 47.5693 500 47.5693 500 59 500 c 2,14,-1
 375 500 l 2,15,16
 380.51 500 380.51 500 386.351 498.053 c 2,17,-1
 400.972 493.179 l 1,18,-1
 403.776 479.156 l 2,19,20
 404.559 475.24 404.559 475.24 404.902 472.84 c 0,21,22
 405 472.155 405 472.155 405 470 c 2,23,-1
 405 85 l 2,24,25
 405 74.293 405 74.293 395.385 64.4492 c 0,26,27
 386.155 55 386.155 55 375 55 c 2,28,-1
 59 55 l 2,29,30
 58.3564 55 58.3564 55 58.0254 55.0898 c 0,31,32
 52.7598 56.5273 52.7598 56.5273 45.9893 58.46 c 2,4,-1
EndSplineSet
EndChar

StartChar: ugrave
Encoding: 249 249 168
Width: 430
Flags: HW
LayerCount: 2
Fore
SplineSet
153.265 710.527 m 1,0,-1
 180.41 697.564 l 1,1,-1
 153.265 704.34 l 1,2,-1
 153.265 710.527 l 1,0,-1
58 55 m 2,3,4
 46.5684 55 46.5684 55 37.2852 64.2852 c 128,-1,5
 28 73.5684 28 73.5684 28 85 c 2,6,-1
 28 500 l 1,7,-1
 148.425 500 l 1,8,-1
 148.425 126 l 1,9,-1
 283.575 126 l 1,10,-1
 283.575 500 l 1,11,-1
 404 500 l 1,12,-1
 404 55 l 1,13,-1
 58 55 l 2,3,4
EndSplineSet
EndChar

StartChar: uacute
Encoding: 250 250 169
Width: 430
Flags: HW
LayerCount: 2
Fore
SplineSet
275.735 710.526 m 1,0,-1
 275.735 704.34 l 1,1,-1
 248.59 697.564 l 1,2,-1
 275.735 710.526 l 1,0,-1
55 55 m 2,3,4
 43.5684 55 43.5684 55 34.2852 64.2852 c 128,-1,5
 25 73.5684 25 73.5684 25 85 c 2,6,-1
 25 500 l 1,7,-1
 145.425 500 l 1,8,-1
 145.425 126 l 1,9,-1
 280.575 126 l 1,10,-1
 280.575 500 l 1,11,-1
 401 500 l 1,12,-1
 401 55 l 1,13,-1
 55 55 l 2,3,4
EndSplineSet
EndChar

StartChar: ucircumflex
Encoding: 251 251 170
Width: 435
Flags: HW
LayerCount: 2
Fore
SplineSet
252.858 700.755 m 1,0,-1
 217 712.223 l 1,1,-1
 181.142 700.755 l 1,2,-1
 217 722.693 l 1,3,-1
 252.858 700.755 l 1,0,-1
59 55 m 2,4,5
 47.5684 55 47.5684 55 38.2852 64.2852 c 128,-1,6
 29 73.5684 29 73.5684 29 85 c 2,7,-1
 29 500 l 1,8,-1
 149.425 500 l 1,9,-1
 149.425 126 l 1,10,-1
 284.575 126 l 1,11,-1
 284.575 500 l 1,12,-1
 405 500 l 1,13,-1
 405 55 l 1,14,-1
 59 55 l 2,4,5
EndSplineSet
EndChar

StartChar: udieresis
Encoding: 252 252 171
Width: 439
Flags: HW
LayerCount: 2
Fore
SplineSet
328 688 m 0,0,1
 328 675.092 328 675.092 318.042 662.71 c 0,2,3
 311.84 655 311.84 655 294.829 655 c 0,4,5
 285.049 655 285.049 655 281.907 661.101 c 0,6,7
 275.386 673.759 275.386 673.759 275.386 689 c 0,8,9
 275.386 703.241 275.386 703.241 281.908 715.9 c 0,10,11
 285.049 722 285.049 722 294.829 722 c 0,12,13
 311.84 722 311.84 722 318.332 713.93 c 0,14,15
 328 701.908 328 701.908 328 688 c 0,0,1
162.614 688 m 0,16,17
 162.614 674.046 162.614 674.046 155.919 661.399 c 0,18,19
 152.532 655 152.532 655 141.577 655 c 0,20,21
 125.489 655 125.489 655 119.5 662.652 c 0,22,23
 110 674.791 110 674.791 110 689 c 0,24,25
 110 702.209 110 702.209 119.5 714.348 c 0,26,27
 125.489 722 125.489 722 141.577 722 c 0,28,29
 152.532 722 152.532 722 155.981 715.484 c 0,30,31
 162.614 702.954 162.614 702.954 162.614 688 c 0,16,17
61 55 m 2,32,33
 49.5684 55 49.5684 55 40.2852 64.2852 c 128,-1,34
 31 73.5684 31 73.5684 31 85 c 2,35,-1
 31 500 l 1,36,-1
 151.425 500 l 1,37,-1
 151.425 126 l 1,38,-1
 286.575 126 l 1,39,-1
 286.575 500 l 1,40,-1
 407 500 l 1,41,-1
 407 55 l 1,42,-1
 61 55 l 2,32,33
EndSplineSet
EndChar

StartChar: ydieresis
Encoding: 255 255 172
Width: 437
Flags: HW
LayerCount: 2
Fore
SplineSet
327 688 m 0,0,1
 327 675.092 327 675.092 317.045 662.714 c 0,2,3
 310.84 655 310.84 655 293.626 655 c 0,4,5
 283.707 655 283.707 655 280.565 661.101 c 0,6,7
 274.044 673.759 274.044 673.759 274.044 689 c 0,8,9
 274.044 703.241 274.044 703.241 280.566 715.9 c 0,10,11
 283.708 722 283.708 722 293.626 722 c 0,12,13
 310.84 722 310.84 722 317.332 713.93 c 0,14,15
 327 701.908 327 701.908 327 688 c 0,0,1
161.271 688 m 0,16,17
 161.271 674.045 161.271 674.045 154.487 661.228 c 0,18,19
 151.19 655 151.19 655 140.374 655 c 0,20,21
 124.489 655 124.489 655 118.5 662.652 c 0,22,23
 109 674.791 109 674.791 109 689 c 0,24,25
 109 702.209 109 702.209 118.5 714.348 c 0,26,27
 124.489 722 124.489 722 140.374 722 c 0,28,29
 151.19 722 151.19 722 154.639 715.484 c 0,30,31
 161.271 702.955 161.271 702.955 161.271 688 c 0,16,17
59 0 m 2,32,33
 47.5684 0 47.5684 0 38.3076 9.2627 c 128,-1,34
 29 18.5684 29 18.5684 29 30 c 2,35,-1
 29 445 l 1,36,-1
 149.425 445 l 1,37,-1
 149.425 72 l 1,38,-1
 284.575 72 l 1,39,-1
 284.575 445 l 1,40,-1
 405 445 l 1,41,-1
 405 -203 l 2,42,43
 405 -214.431 405 -214.431 395.715 -223.716 c 128,-1,44
 386.432 -233 386.432 -233 375 -233 c 2,45,-1
 84.6162 -233 l 1,46,-1
 51.459 -161 l 1,47,-1
 284.575 -161 l 1,48,-1
 284.575 0 l 1,49,-1
 59 0 l 2,32,33
EndSplineSet
EndChar

StartChar: numbersign
Encoding: 35 35 173
Width: 809
Flags: HW
LayerCount: 2
Fore
SplineSet
207.657 182 m 1,0,-1
 65.2751 182 l 1,1,-1
 74.8445 239 l 1,2,-1
 217.573 239 l 1,3,-1
 256.657 461 l 1,4,-1
 114.275 461 l 1,5,-1
 123.844 518 l 1,6,-1
 266.573 518 l 1,7,-1
 291.573 660 l 1,8,-1
 347.011 660 l 1,9,-1
 321.011 518 l 1,10,-1
 544.341 518 l 1,11,-1
 570.341 660 l 1,12,-1
 625.343 660 l 1,13,-1
 600.343 518 l 1,14,-1
 742.725 518 l 1,15,-1
 733.156 461 l 1,16,-1
 590.427 461 l 1,17,-1
 551.343 239 l 1,18,-1
 693.725 239 l 1,19,-1
 684.156 182 l 1,20,-1
 541.427 182 l 1,21,-1
 516.427 40 l 1,22,-1
 460.989 40 l 1,23,-1
 486.989 182 l 1,24,-1
 263.659 182 l 1,25,-1
 237.659 40 l 1,26,-1
 182.657 40 l 1,27,-1
 207.657 182 l 1,0,-1
495.341 239 m 1,28,-1
 535.989 461 l 1,29,-1
 312.659 461 l 1,30,-1
 272.011 239 l 1,31,-1
 495.341 239 l 1,28,-1
EndSplineSet
EndChar

StartChar: breve
Encoding: 728 728 174
Width: 316
Flags: W
HStem: 600 7.63715
VStem: 152.988 43.1328
LayerCount: 2
Fore
SplineSet
158 600 m 1,0,1
 154.296 600 154.296 600 152.988 600.092 c 1,2,3
 156.653 600 156.653 600 158 600 c 1,0,1
158 600 m 1,4,5
 177.405 600 177.405 600 196.121 607.637 c 1,6,7
 177.929 600 177.929 600 158 600 c 1,4,5
EndSplineSet
EndChar

StartChar: caron
Encoding: 711 711 175
Width: 438
Flags: HW
LayerCount: 2
Fore
SplineSet
44 689.313 m 1,0,-1
 44 695.597 l 1,1,-1
 219 655.347 l 1,2,-1
 394 695.597 l 1,3,-1
 394 689.313 l 1,4,-1
 219 612.313 l 1,5,-1
 44 689.313 l 1,0,-1
EndSplineSet
EndChar

StartChar: circumflex
Encoding: 710 710 176
Width: 440
Flags: HW
LayerCount: 2
Fore
SplineSet
45 622.687 m 1,0,-1
 220 699.687 l 1,1,-1
 395 622.687 l 1,2,-1
 395 616.403 l 1,3,-1
 220 656.653 l 1,4,-1
 45 616.403 l 1,5,-1
 45 622.687 l 1,0,-1
EndSplineSet
EndChar

StartChar: dotaccent
Encoding: 729 729 177
Width: 200
Flags: HW
LayerCount: 2
Fore
SplineSet
63.6876 613.408 m 0,0,1
 51 629.619 51 629.619 51 649 c 0,2,3
 51 667.381 51 667.381 63.6876 683.592 c 0,4,5
 74.181 697 74.181 697 99 697 c 0,6,7
 125.025 697 125.025 697 136.02 683.331 c 0,8,9
 149 667.193 149 667.193 149 648 c 0,10,11
 149 629.807 149 629.807 136.02 613.669 c 0,12,13
 125.025 600 125.025 600 99 600 c 0,14,15
 74.181 600 74.181 600 63.6876 613.408 c 0,0,1
EndSplineSet
EndChar

StartChar: hungarumlaut
Encoding: 733 733 178
Width: 279
Flags: HW
LayerCount: 2
Fore
SplineSet
204.87 724 m 1,0,-1
 221.641 724 l 1,1,-1
 181.324 610 l 1,2,-1
 178.455 610 l 1,3,-1
 204.87 724 l 1,0,-1
84.8697 724 m 1,4,-1
 101.641 724 l 1,5,-1
 61.3241 610 l 1,6,-1
 58.455 610 l 1,7,-1
 84.8697 724 l 1,4,-1
EndSplineSet
EndChar

StartChar: ogonek
Encoding: 731 731 179
Width: 300
Flags: HW
LayerCount: 2
Fore
SplineSet
144.288 -20 m 1,0,1
 140.737 -25.7216 140.737 -25.7216 137.58 -31.4792 c 0,2,3
 128.052 -48.8524 128.052 -48.8524 121.858 -66.873 c 0,4,5
 115 -86.823 115 -86.823 115 -106 c 0,6,7
 115 -146.379 115 -146.379 141.132 -163.801 c 0,8,9
 162.43 -178 162.43 -178 191 -178 c 0,10,11
 217.921 -178 217.921 -178 246.743 -168.924 c 1,12,-1
 243.398 -179.873 l 1,13,14
 229.503 -185.367 229.503 -185.367 213.69 -188.467 c 0,15,16
 190.572 -193 190.572 -193 166 -193 c 0,17,18
 142.959 -193 142.959 -193 120.834 -187.69 c 0,19,20
 99.9384 -182.675 99.9384 -182.675 83.9917 -172.453 c 0,21,22
 69.6601 -163.266 69.6601 -163.266 60.7061 -147.597 c 0,23,24
 52 -132.361 52 -132.361 52 -109 c 0,25,26
 52 -88.0781 52 -88.0781 62.5188 -63.2537 c 0,27,28
 71.4883 -42.0856 71.4883 -42.0856 89.4736 -20 c 1,29,-1
 144.288 -20 l 1,0,1
EndSplineSet
EndChar

StartChar: ring
Encoding: 730 730 180
Width: 240
Flags: HW
LayerCount: 2
Fore
SplineSet
92.8632 604.99 m 0,0,1
 80.0538 611.302 80.0538 611.302 70.6777 620.678 c 0,2,3
 65.5784 625.777 65.5784 625.777 61.6064 631.859 c 1,4,5
 65.5458 626.099 65.5458 626.099 70.8223 620.822 c 0,6,7
 88.0043 603.641 88.0043 603.641 110.315 600.637 c 1,8,9
 101.595 601.782 101.595 601.782 92.8632 604.99 c 0,0,1
110.315 600.637 m 1,10,11
 115.042 600 115.042 600 120 600 c 1,12,13
 115.159 600 115.159 600 110.315 600.637 c 1,10,11
120 600 m 1,14,15
 141.167 600 141.167 600 158.136 611.603 c 1,16,17
 152.776 608.103 152.776 608.103 146.652 605.479 c 0,18,19
 133.869 600 133.869 600 120 600 c 1,14,15
158.136 611.603 m 1,20,21
 163.899 615.544 163.899 615.544 169.178 620.822 c 128,-1,22
 174.454 626.098 174.454 626.098 178.393 631.858 c 1,23,24
 174.421 625.777 174.421 625.777 169.322 620.678 c 128,-1,25
 164.221 615.576 164.221 615.576 158.136 611.603 c 1,20,21
178.393 631.858 m 1,26,27
 190 648.829 190 648.829 190 670 c 1,28,29
 190 656.131 190 656.131 184.521 643.348 c 0,30,31
 181.895 637.221 181.895 637.221 178.393 631.858 c 1,26,27
190 670 m 1,32,33
 190 691.17 190 691.17 178.394 708.14 c 1,34,35
 181.896 702.778 181.896 702.778 184.521 696.652 c 0,36,37
 190 683.869 190 683.869 190 670 c 1,32,33
178.394 708.14 m 1,38,39
 174.454 713.901 174.454 713.901 169.178 719.178 c 128,-1,40
 163.9 724.455 163.9 724.455 158.138 728.395 c 1,41,42
 164.222 724.423 164.222 724.423 169.322 719.322 c 128,-1,43
 174.422 714.223 174.422 714.223 178.394 708.14 c 1,38,39
158.138 728.395 m 1,44,45
 141.168 740 141.168 740 120 740 c 1,46,47
 133.869 740 133.869 740 146.652 734.521 c 0,48,49
 152.777 731.896 152.777 731.896 158.138 728.395 c 1,44,45
120 740 m 1,50,51
 98.8338 740 98.8338 740 81.8647 728.397 c 1,52,53
 87.2249 731.897 87.2249 731.897 93.348 734.521 c 0,54,55
 106.131 740 106.131 740 120 740 c 1,50,51
81.8647 728.397 m 1,56,57
 76.1015 724.457 76.1015 724.457 70.8223 719.178 c 128,-1,58
 65.5452 713.901 65.5452 713.901 61.6055 708.14 c 1,59,60
 65.5778 714.223 65.5778 714.223 70.6777 719.322 c 128,-1,61
 75.7795 724.424 75.7795 724.424 81.8647 728.397 c 1,56,57
61.6055 708.14 m 1,62,63
 50 691.169 50 691.169 50 670 c 1,64,65
 50 683.869 50 683.869 55.4786 696.652 c 0,66,67
 58.104 702.778 58.104 702.778 61.6055 708.14 c 1,62,63
50 670 m 1,68,69
 50 648.83 50 648.83 61.6064 631.859 c 1,70,71
 58.1043 637.221 58.1043 637.221 55.4786 643.348 c 0,72,73
 50 656.131 50 656.131 50 670 c 1,68,69
EndSplineSet
EndChar

StartChar: tilde
Encoding: 732 732 181
Width: 449
Flags: HW
LayerCount: 2
Fore
SplineSet
53 659.47 m 1,0,1
 69.41 676.938 69.41 676.938 85.4164 684.273 c 0,2,3
 104.458 693 104.458 693 123 693 c 0,4,5
 145.518 693 145.518 693 168.317 684.556 c 0,6,7
 194.494 674.862 194.494 674.862 220.187 663.226 c 0,8,9
 247.319 650.939 247.319 650.939 274.026 640.666 c 0,10,11
 304.356 629 304.356 629 333 629 c 0,12,13
 362.534 629 362.534 629 388.731 643.696 c 0,14,15
 390.158 644.496 390.158 644.496 392 645.613 c 1,16,-1
 392 625.031 l 1,17,18
 377.375 605.656 377.375 605.656 364.269 598.304 c 0,19,20
 349.467 590 349.467 590 333 590 c 0,21,22
 313.64 590 313.64 590 291.974 598.334 c 0,23,24
 266.629 608.083 266.629 608.083 240.813 619.774 c 0,25,26
 213.513 632.137 213.513 632.137 185.683 642.444 c 0,27,28
 154.479 654 154.479 654 123 654 c 0,29,30
 93.5458 654 93.5458 654 64.5836 640.727 c 0,31,32
 59.1427 638.233 59.1427 638.233 53 634.652 c 1,33,-1
 53 659.47 l 1,0,1
EndSplineSet
EndChar

StartChar: OE
Encoding: 338 338 182
Width: 1075
Flags: HW
LayerCount: 2
Fore
SplineSet
66 40 m 2,0,1
 54.5684 40 54.5684 40 45.2852 49.2852 c 128,-1,2
 36 58.5684 36 58.5684 36 70 c 2,3,-1
 36 630 l 2,4,5
 36 641.432 36 641.432 45.2852 650.716 c 128,-1,6
 54.5684 660 54.5684 660 66 660 c 2,7,-1
 474.805 660 l 2,8,9
 484.459 660 484.459 660 492.53 651.089 c 0,10,11
 495.391 647.931 495.391 647.931 497.245 644.724 c 0,12,13
 501.006 638.222 501.006 638.222 501.006 630 c 2,14,-1
 501.006 615 l 1,15,-1
 575.429 615 l 1,16,-1
 575.429 660 l 1,17,-1
 1019.54 660 l 1,18,-1
 986.383 588 l 1,19,-1
 691.243 588 l 1,20,-1
 691.243 368 l 1,21,-1
 972 368 l 1,22,-1
 972 332 l 1,23,-1
 691.243 332 l 1,24,-1
 691.243 112 l 1,25,-1
 1019.54 112 l 1,26,-1
 986.383 40 l 1,27,-1
 575.429 40 l 1,28,-1
 575.429 77.8623 l 1,29,-1
 503.268 83.7305 l 1,30,-1
 501.387 69.7178 l 2,31,32
 499.607 56.4541 499.607 56.4541 490.843 47.5049 c 0,33,34
 483.493 40 483.493 40 474.805 40 c 2,35,-1
 66 40 l 2,0,1
385.191 588 m 1,36,-1
 163.108 588 l 1,37,-1
 163.108 112 l 1,38,-1
 385.191 112 l 1,39,-1
 385.191 588 l 1,36,-1
EndSplineSet
EndChar

StartChar: Ydieresis
Encoding: 376 376 183
Width: 561
Flags: HW
LayerCount: 2
Fore
SplineSet
361.089 863 m 0,0,1
 361.089 849.407 361.089 849.407 353.61 837.342 c 0,2,3
 349.06 830 349.06 830 336.296 830 c 0,4,5
 324.576 830 324.576 830 320.56 836.659 c 0,6,7
 313.046 849.117 313.046 849.117 313.046 864 c 0,8,9
 313.046 877.884 313.046 877.884 320.56 890.341 c 0,10,11
 324.576 897 324.576 897 336.296 897 c 0,12,13
 349.06 897 349.06 897 353.446 889.923 c 0,14,15
 361.089 877.593 361.089 877.593 361.089 863 c 0,0,1
183.847 863 m 0,16,17
 183.847 849.407 183.847 849.407 176.269 837.183 c 0,18,19
 171.818 830 171.818 830 159.055 830 c 0,20,21
 147.335 830 147.335 830 143.318 836.659 c 0,22,23
 135.805 849.117 135.805 849.117 135.805 864 c 0,24,25
 135.805 877.884 135.805 877.884 143.317 890.34 c 0,26,27
 147.335 897 147.335 897 159.055 897 c 0,28,29
 171.818 897 171.818 897 176.204 889.922 c 0,30,31
 183.847 877.593 183.847 877.593 183.847 863 c 0,16,17
296.356 326.374 m 1,32,-1
 296.356 40 l 1,33,-1
 200.537 40 l 1,34,-1
 200.537 326.336 l 1,35,-1
 11 660 l 1,36,-1
 157.919 660 l 1,37,-1
 248.446 474.312 l 1,38,-1
 338.975 660 l 1,39,-1
 486.542 660 l 1,40,-1
 296.356 326.374 l 1,32,-1
EndSplineSet
EndChar

StartChar: fi
Encoding: 64257 64257 184
Width: 629
Flags: HW
LayerCount: 2
Fore
SplineSet
85 25 m 1,0,-1
 85 317 l 1,1,-1
 27 317 l 1,2,-1
 27 383 l 1,3,-1
 85 383 l 1,4,-1
 85 655 l 2,5,6
 85 672.645 85 672.645 98.6777 686.322 c 128,-1,7
 112.355 700 112.355 700 130 700 c 2,8,-1
 579.963 700 l 1,9,-1
 532.989 598 l 1,10,-1
 232.003 598 l 1,11,-1
 232.003 383 l 1,12,-1
 332.618 383 l 1,13,-1
 332.618 317 l 1,14,-1
 232.003 317 l 1,15,-1
 232.003 25 l 1,16,-1
 85 25 l 1,0,-1
439.305 25 m 1,17,-1
 439.305 460 l 1,18,-1
 594 460 l 1,19,-1
 594 25 l 1,20,-1
 439.305 25 l 1,17,-1
EndSplineSet
EndChar

StartChar: fl
Encoding: 64258 64258 185
Width: 630
Flags: HW
LayerCount: 2
Fore
SplineSet
85 25 m 1,0,-1
 85 317 l 1,1,-1
 27 317 l 1,2,-1
 27 383 l 1,3,-1
 85 383 l 1,4,-1
 85 655 l 2,5,6
 85 672.645 85 672.645 98.6777 686.322 c 128,-1,7
 112.355 700 112.355 700 130 700 c 2,8,-1
 594 700 l 1,9,-1
 594 50 l 1,10,-1
 439.305 50 l 1,11,-1
 439.305 598 l 1,12,-1
 232.003 598 l 1,13,-1
 232.003 383 l 1,14,-1
 332.618 383 l 1,15,-1
 332.618 317 l 1,16,-1
 232.003 317 l 1,17,-1
 232.003 25 l 1,18,-1
 85 25 l 1,0,-1
EndSplineSet
EndChar

StartChar: dotlessi
Encoding: 305 305 186
Width: 203
Flags: HW
LayerCount: 2
Fore
SplineSet
166 500 m 1,0,-1
 166 55 l 1,1,-1
 36 55 l 1,2,-1
 36 500 l 1,3,-1
 166 500 l 1,0,-1
EndSplineSet
EndChar

StartChar: oe
Encoding: 339 339 187
Width: 984
Flags: HW
LayerCount: 2
Fore
SplineSet
66 40 m 2,0,1
 55.0146 40 55.0146 40 45.0947 49.458 c 0,2,3
 36 58.1299 36 58.1299 36 70 c 2,4,-1
 36 469.229 l 2,5,6
 36 480.878 36 480.878 45.4883 490.423 c 0,7,8
 55.293 500 55.293 500 66 500 c 2,9,-1
 430.228 500 l 2,10,11
 438.735 500 438.735 500 446.418 492.06 c 0,12,13
 455.034 483.154 455.034 483.154 456.275 470.703 c 2,14,-1
 457.64 456.99 l 1,15,-1
 528.893 458.336 l 1,16,-1
 529.836 472.016 l 2,17,18
 530.183 477.04 530.183 477.04 532.227 481.407 c 0,19,20
 534.84 486.994 534.84 486.994 538.976 491.363 c 0,21,22
 542.857 495.464 542.857 495.464 548.164 498.067 c 0,23,24
 552.102 500 552.102 500 555.772 500 c 2,25,-1
 920 500 l 2,26,27
 930.708 500 930.708 500 940.51 490.424 c 0,28,29
 950 480.878 950 480.878 950 469.229 c 2,30,-1
 950 270.167 l 2,31,32
 950 257.363 950 257.363 940.817 248.044 c 0,33,34
 930.921 238 930.921 238 920 238 c 2,35,-1
 644.375 238 l 1,36,-1
 644.375 111 l 1,37,-1
 927.368 111 l 1,38,-1
 894.453 40 l 1,39,-1
 555.772 40 l 2,40,41
 547.008 40 547.008 40 538.812 48.2695 c 128,-1,42
 530.553 56.6025 530.553 56.6025 529.836 66.9766 c 2,43,-1
 504.628 443.933 l 1,44,-1
 456.438 69.7031 l 2,45,46
 454.673 56.4189 454.673 56.4189 445.994 47.4668 c 0,47,48
 438.756 40 438.756 40 430.228 40 c 2,49,-1
 66 40 l 2,0,1
823.172 428 m 1,50,-1
 644.375 428 l 1,51,-1
 644.375 274 l 1,52,-1
 823.172 274 l 1,53,-1
 823.172 428 l 1,50,-1
341.625 428 m 1,54,-1
 162.829 428 l 1,55,-1
 162.829 126 l 1,56,-1
 341.625 126 l 1,57,-1
 341.625 428 l 1,54,-1
EndSplineSet
EndChar

StartChar: florin
Encoding: 402 402 188
Width: 408
Flags: HW
LayerCount: 2
Fore
SplineSet
190.656 -233 m 2,0,-1
 51.1572 -233 l 1,1,-1
 18 -161 l 1,2,-1
 134.133 -161 l 1,3,-1
 134.133 334.699 l 1,4,-1
 77.541 334.699 l 1,5,-1
 77.541 372.344 l 1,6,-1
 134.133 372.344 l 1,7,-1
 134.133 670 l 2,8,9
 134.133 682.752 134.133 682.752 140.449 692.482 c 0,10,11
 144.907 700 144.907 700 149.152 700 c 2,12,-1
 349.083 700 l 1,13,-1
 315.924 628 l 1,14,-1
 205.128 628 l 1,15,-1
 205.128 374.068 l 1,16,-1
 301.541 374.068 l 1,17,-1
 301.541 336.426 l 1,18,-1
 205.128 336.426 l 1,19,-1
 205.128 -203 l 2,20,21
 205.128 -215.752 205.128 -215.752 199.358 -225.483 c 0,22,23
 194.901 -233 194.901 -233 190.656 -233 c 2,0,-1
EndSplineSet
EndChar

StartChar: quotesinglbase
Encoding: 8218 8218 189
Width: 210
Flags: HW
LayerCount: 2
Fore
SplineSet
95.6213 125 m 1,0,-1
 160.014 125 l 1,1,-1
 114.46 -58 l 1,2,-1
 50.8531 -58 l 1,3,-1
 95.6213 125 l 1,0,-1
EndSplineSet
EndChar

StartChar: quotedblbase
Encoding: 8222 8222 190
Width: 451
Flags: HW
LayerCount: 2
Fore
SplineSet
293.079 125 m 1,0,-1
 392.986 125 l 1,1,-1
 345.848 -92 l 1,2,-1
 245.127 -92 l 1,3,-1
 293.079 125 l 1,0,-1
106.152 125 m 1,4,-1
 206.873 125 l 1,5,-1
 158.921 -92 l 1,6,-1
 59.0138 -92 l 1,7,-1
 106.152 125 l 1,4,-1
EndSplineSet
EndChar

StartChar: quoteleft
Encoding: 8216 8216 191
Width: 252
Flags: HW
LayerCount: 2
Fore
SplineSet
99.1683 644 m 1,0,-1
 200.011 644 l 1,1,-1
 152.832 426 l 1,2,-1
 51.9892 426 l 1,3,-1
 99.1683 644 l 1,0,-1
EndSplineSet
EndChar

StartChar: quoteright
Encoding: 8217 8217 192
Width: 252
Flags: HW
LayerCount: 2
Fore
SplineSet
99.1683 644 m 1,0,-1
 200.011 644 l 1,1,-1
 152.832 426 l 1,2,-1
 51.9892 426 l 1,3,-1
 99.1683 644 l 1,0,-1
EndSplineSet
EndChar

StartChar: quotedblleft
Encoding: 8220 8220 193
Width: 451
Flags: HW
LayerCount: 2
Fore
SplineSet
293.095 645 m 1,0,-1
 393.011 645 l 1,1,-1
 345.832 427 l 1,2,-1
 245.102 427 l 1,3,-1
 293.095 645 l 1,0,-1
106.168 645 m 1,4,-1
 206.898 645 l 1,5,-1
 158.905 427 l 1,6,-1
 58.9892 427 l 1,7,-1
 106.168 645 l 1,4,-1
EndSplineSet
EndChar

StartChar: quotedblright
Encoding: 8221 8221 194
Width: 451
Flags: HW
LayerCount: 2
Fore
SplineSet
293.095 645 m 1,0,-1
 393.011 645 l 1,1,-1
 345.832 427 l 1,2,-1
 245.102 427 l 1,3,-1
 293.095 645 l 1,0,-1
106.168 645 m 1,4,-1
 206.898 645 l 1,5,-1
 158.905 427 l 1,6,-1
 58.9892 427 l 1,7,-1
 106.168 645 l 1,4,-1
EndSplineSet
EndChar

StartChar: fraction
Encoding: 8260 8260 195
Width: 506
Flags: HW
LayerCount: 2
Fore
SplineSet
417.508 675 m 1,0,-1
 459.92 675 l 1,1,-1
 88.4919 25 l 1,2,-1
 46.0795 25 l 1,3,-1
 417.508 675 l 1,0,-1
EndSplineSet
EndChar

StartChar: guilsinglleft
Encoding: 8249 8249 196
Width: 293
Flags: HW
LayerCount: 2
Fore
SplineSet
34.8464 350 m 1,0,-1
 190.203 619.876 l 1,1,-1
 233.866 594.783 l 1,2,-1
 93.1643 350 l 1,3,-1
 233.866 105.217 l 1,4,-1
 190.203 80.1236 l 1,5,-1
 34.8464 350 l 1,0,-1
EndSplineSet
EndChar

StartChar: guilsinglright
Encoding: 8250 8250 197
Width: 293
Flags: HW
LayerCount: 2
Fore
SplineSet
199.836 350 m 1,0,-1
 59.1339 594.783 l 1,1,-1
 102.797 619.876 l 1,2,-1
 258.154 350 l 1,3,-1
 102.797 80.1236 l 1,4,-1
 59.1339 105.217 l 1,5,-1
 199.836 350 l 1,0,-1
EndSplineSet
EndChar

StartChar: endash
Encoding: 8211 8211 198
Width: 500
Flags: HW
LayerCount: 2
Fore
SplineSet
25 375 m 1,0,-1
 475 375 l 1,1,-1
 475 325 l 1,2,-1
 25 325 l 1,3,-1
 25 375 l 1,0,-1
EndSplineSet
EndChar

StartChar: emdash
Encoding: 8212 8212 199
Width: 1000
Flags: HW
LayerCount: 2
Fore
SplineSet
25 375 m 1,0,-1
 975 375 l 1,1,-1
 975 325 l 1,2,-1
 25 325 l 1,3,-1
 25 375 l 1,0,-1
EndSplineSet
EndChar

StartChar: lessequal
Encoding: 8804 8804 200
Width: 572
Flags: HW
LayerCount: 2
Fore
SplineSet
38 470.375 m 1,0,-1
 481.36 686.513 l 1,1,-1
 509.691 627.585 l 1,2,-1
 99.9058 428 l 1,3,-1
 509.691 228.415 l 1,4,-1
 481.36 169.487 l 1,5,-1
 38 385.625 l 1,6,-1
 38 470.375 l 1,0,-1
38 75 m 1,7,-1
 518 75 l 1,8,-1
 518 25 l 1,9,-1
 38 25 l 1,10,-1
 38 75 l 1,7,-1
EndSplineSet
EndChar

StartChar: approxequal
Encoding: 8776 8776 201
Width: 539
Flags: HW
LayerCount: 2
Fore
SplineSet
57 504.044 m 1,0,1
 80.383 536.141 80.383 536.141 102.077 548.111 c 0,2,3
 125.438 561 125.438 561 148 561 c 0,4,5
 175.51 561 175.51 561 203.024 548.301 c 0,6,7
 234.556 533.747 234.556 533.747 266.132 515.773 c 0,8,9
 299.434 496.817 299.434 496.817 331.752 481.428 c 0,10,11
 368.352 464 368.352 464 404 464 c 0,12,13
 438.568 464 438.568 464 470.367 485.199 c 0,14,15
 475.678 488.739 475.678 488.739 481 493.268 c 1,16,-1
 481 439.372 l 1,17,18
 461.253 404.214 461.253 404.214 442.633 391.801 c 0,19,20
 423.43 379 423.43 379 404 379 c 0,21,22
 379.649 379 379.649 379 353.248 391.572 c 0,23,24
 322.581 406.175 322.581 406.175 290.867 424.227 c 0,25,26
 257.44 443.254 257.44 443.254 223.976 458.699 c 0,27,28
 186.492 476 186.492 476 148 476 c 0,29,30
 112.385 476 112.385 476 77.6369 456.229 c 0,31,32
 67.4484 450.432 67.4484 450.432 57 441.935 c 1,33,-1
 57 504.044 l 1,0,1
57 264.044 m 1,34,35
 80.384 296.142 80.384 296.142 102.077 308.111 c 0,36,37
 125.44 321 125.44 321 148 321 c 0,38,39
 175.51 321 175.51 321 203.024 308.301 c 0,40,41
 234.556 293.747 234.556 293.747 266.132 275.773 c 0,42,43
 299.435 256.817 299.435 256.817 331.752 241.428 c 0,44,45
 368.352 224 368.352 224 404 224 c 0,46,47
 438.569 224 438.569 224 470.367 245.199 c 0,48,49
 475.678 248.739 475.678 248.739 481 253.268 c 1,50,-1
 481 199.372 l 1,51,52
 461.252 164.214 461.252 164.214 442.633 151.801 c 0,53,54
 423.431 139 423.431 139 404 139 c 0,55,56
 379.649 139 379.649 139 353.248 151.572 c 0,57,58
 322.575 166.178 322.575 166.178 290.867 184.227 c 0,59,60
 257.441 203.254 257.441 203.254 223.977 218.699 c 0,61,62
 186.49 236 186.49 236 148 236 c 0,63,64
 112.386 236 112.386 236 77.6369 216.229 c 0,65,66
 67.4492 210.433 67.4492 210.433 57 201.935 c 1,67,-1
 57 264.044 l 1,34,35
EndSplineSet
EndChar

StartChar: notequal
Encoding: 8800 8800 202
Width: 492
Flags: HW
LayerCount: 2
Fore
SplineSet
394.068 574.275 m 2,0,-1
 365.361 530.841 l 2,1,2
 385.119 560.715 385.119 560.715 394.068 574.275 c 2,0,-1
36 475 m 1,3,-1
 456 475 l 1,4,-1
 456 425 l 1,5,-1
 36 425 l 1,6,-1
 36 475 l 1,3,-1
97.9325 125.725 m 2,7,-1
 126.633 169.149 l 2,8,9
 106.87 139.271 106.87 139.271 97.9325 125.725 c 2,7,-1
456 225 m 1,10,-1
 36 225 l 1,11,-1
 36 275 l 1,12,-1
 456 275 l 1,13,-1
 456 225 l 1,10,-1
EndSplineSet
EndChar

StartChar: partialdiff
Encoding: 8706 8706 203
Width: 481
Flags: HW
LayerCount: 2
Fore
SplineSet
145.651 14.2662 m 0,0,1
 170.422 -5 170.422 -5 207 -5 c 0,2,3
 248.421 -5 248.421 -5 284.048 14.5946 c 0,4,5
 317.707 33.1067 317.707 33.1067 345.014 63.2003 c 0,6,7
 371.493 92.381 371.493 92.381 392.412 130.464 c 0,8,9
 413.002 167.949 413.002 167.949 426.717 209.094 c 2,10,-1
 428 212.943 l 1,11,-1
 428 229 l 2,12,13
 428 274.275 428 274.275 419.156 307.442 c 0,14,15
 409.936 342.017 409.936 342.017 393.126 364.83 c 0,16,17
 375.382 388.911 375.382 388.911 351.675 400.106 c 0,18,19
 328.606 411 328.606 411 302 411 c 0,20,21
 263.708 411 263.708 411 224.667 390.022 c 0,22,23
 220.766 387.926 220.766 387.926 216.941 385.686 c 1,24,25
 247.561 397 247.561 397 281 397 c 0,26,27
 322.724 397 322.724 397 355.082 372.938 c 0,28,29
 386.435 349.625 386.435 349.625 398.514 290.959 c 2,30,-1
 409.805 236.114 l 1,31,32
 407.469 228.203 407.469 228.203 405.202 221.159 c 0,33,34
 391.862 179.709 391.862 179.709 371.865 141.621 c 0,35,36
 352.231 104.224 352.231 104.224 326.667 74.9414 c 0,37,38
 302.218 46.9354 302.218 46.9354 271.317 30.6024 c 0,39,40
 241.799 15 241.799 15 207 15 c 0,41,42
 164.712 15 164.712 15 134.855 23.6897 c 1,43,44
 139.968 18.6867 139.968 18.6867 145.651 14.2662 c 0,0,1
393.639 546.876 m 1,45,46
 373.118 569.691 373.118 569.691 347.29 584.271 c 0,47,48
 310.568 605 310.568 605 263 605 c 0,49,50
 233.809 605 233.809 605 207.434 596.353 c 1,51,52
 239.923 625 239.923 625 281 625 c 0,53,54
 316.049 625 316.049 625 342.058 606.593 c 0,55,56
 370.206 586.672 370.206 586.672 389.988 553.263 c 0,57,58
 391.741 550.303 391.741 550.303 393.639 546.876 c 1,45,46
216.941 385.686 m 1,59,60
 184.252 366.545 184.252 366.545 157.071 336.893 c 0,61,62
 126.894 303.972 126.894 303.972 107.251 260.867 c 0,63,64
 87 216.428 87 216.428 87 167 c 0,65,66
 87 140.853 87 140.853 91.8662 112.736 c 0,67,68
 97.0139 82.9944 97.0139 82.9944 109.744 58.1131 c 0,69,70
 119.836 38.3875 119.836 38.3875 134.855 23.6897 c 1,71,72
 131.607 24.6352 131.607 24.6352 128.506 25.6835 c 0,73,74
 97.9795 36.0022 97.9795 36.0022 78.8567 53.4621 c 0,75,76
 60.3327 70.3754 60.3327 70.3754 51.3571 91.9328 c 1,77,78
 43 115.772 43 115.772 43 142 c 0,79,80
 43 183.916 43 183.916 62.0145 228.736 c 0,81,82
 81.4424 274.53 81.4424 274.53 114.786 312.505 c 0,83,84
 147.875 350.19 147.875 350.19 191.504 374.07 c 0,85,86
 203.969 380.893 203.969 380.893 216.941 385.686 c 1,59,60
EndSplineSet
EndChar

StartChar: greaterequal
Encoding: 8805 8805 204
Width: 572
Flags: HW
LayerCount: 2
Fore
SplineSet
62.3087 228.415 m 1,0,-1
 472.094 428 l 1,1,-1
 62.3087 627.585 l 1,2,-1
 90.6397 686.513 l 1,3,-1
 534 470.375 l 1,4,-1
 534 385.625 l 1,5,-1
 90.6397 169.487 l 1,6,-1
 62.3087 228.415 l 1,0,-1
54 75 m 1,7,-1
 534 75 l 1,8,-1
 534 25 l 1,9,-1
 54 25 l 1,10,-1
 54 75 l 1,7,-1
EndSplineSet
EndChar

StartChar: perthousand
Encoding: 8240 8240 205
Width: 1095
Flags: HW
LayerCount: 2
Fore
SplineSet
529.65 675 m 1,0,-1
 593.115 675 l 1,1,-1
 278.33 25 l 1,2,-1
 213.936 25 l 1,3,-1
 529.65 675 l 1,0,-1
55.7213 377.721 m 1,4,5
 53 381.172 53 381.172 53 385 c 2,6,-1
 53 665 l 2,7,8
 53 668.645 53 668.645 56.1777 671.822 c 128,-1,9
 59.3554 675 59.3554 675 63 675 c 2,10,-1
 256 675 l 2,11,12
 259.984 675 259.984 675 263.738 671.416 c 0,13,14
 267.89 667.453 267.89 667.453 268.976 662.924 c 1,15,-1
 266 385.134 l 2,16,17
 266 381.355 266 381.355 262.822 378.178 c 128,-1,18
 259.645 375 259.645 375 256 375 c 2,19,-1
 63 375 l 2,20,21
 59.1719 375 59.1719 375 55.7213 377.721 c 1,4,5
211 401 m 1,22,-1
 211 649 l 1,23,-1
 108 649 l 1,24,-1
 108 401 l 1,25,-1
 211 401 l 1,22,-1
839 315 m 2,26,27
 839 318.645 839 318.645 842.178 321.822 c 128,-1,28
 845.355 325 845.355 325 849 325 c 2,29,-1
 1042 325 l 2,30,31
 1045.64 325 1045.64 325 1048.82 321.822 c 128,-1,32
 1052 318.645 1052 318.645 1052 315 c 2,33,-1
 1052 35 l 2,34,35
 1052 31.3551 1052 31.3551 1048.82 28.1777 c 128,-1,36
 1045.64 25 1045.64 25 1042 25 c 2,37,-1
 849 25 l 2,38,39
 845.355 25 845.355 25 842.178 28.1777 c 128,-1,40
 839 31.3554 839 31.3554 839 35 c 2,41,-1
 839 315 l 2,26,27
542 315 m 2,42,43
 542 318.645 542 318.645 545.178 321.822 c 128,-1,44
 548.355 325 548.355 325 552 325 c 2,45,-1
 744 325 l 2,46,47
 747.645 325 747.645 325 750.822 321.822 c 128,-1,48
 754 318.645 754 318.645 754 315 c 2,49,-1
 754 35 l 2,50,51
 754 31.3554 754 31.3554 750.822 28.1777 c 128,-1,52
 747.645 25 747.645 25 744 25 c 2,53,-1
 552 25 l 2,54,55
 548.355 25 548.355 25 545.178 28.1777 c 128,-1,56
 542 31.3554 542 31.3554 542 35 c 2,57,-1
 542 315 l 2,42,43
997 51 m 1,58,-1
 997 299 l 1,59,-1
 894 299 l 1,60,-1
 894 51 l 1,61,-1
 997 51 l 1,58,-1
699 51 m 1,62,-1
 699 299 l 1,63,-1
 597 299 l 1,64,-1
 597 51 l 1,65,-1
 699 51 l 1,62,-1
EndSplineSet
EndChar

StartChar: ellipsis
Encoding: 8230 8230 206
Width: 493
Flags: HW
LayerCount: 2
Fore
SplineSet
364 91 m 1,0,-1
 431 91 l 1,1,-1
 431 25 l 1,2,-1
 364 25 l 1,3,-1
 364 91 l 1,0,-1
213 91 m 1,4,-1
 279 91 l 1,5,-1
 279 25 l 1,6,-1
 213 25 l 1,7,-1
 213 91 l 1,4,-1
61 91 m 1,8,-1
 128 91 l 1,9,-1
 128 25 l 1,10,-1
 61 25 l 1,11,-1
 61 91 l 1,8,-1
EndSplineSet
EndChar

StartChar: dagger
Encoding: 8224 8224 207
Width: 446
Flags: HW
LayerCount: 2
Fore
SplineSet
178.483 414 m 1,0,-1
 32 414 l 1,1,-1
 32 475 l 1,2,-1
 176.505 475 l 1,3,-1
 172.505 675 l 1,4,-1
 273.495 675 l 1,5,-1
 269.495 475 l 1,6,-1
 414 475 l 1,7,-1
 414 414 l 1,8,-1
 267.517 414 l 1,9,-1
 254.517 -208 l 1,10,-1
 191.483 -208 l 1,11,-1
 178.483 414 l 1,0,-1
EndSplineSet
EndChar

StartChar: daggerdbl
Encoding: 8225 8225 208
Width: 452
Flags: HW
LayerCount: 2
Fore
SplineSet
35 175 m 1,0,-1
 186.535 175 l 1,1,-1
 181.477 414 l 1,2,-1
 35 414 l 1,3,-1
 35 475 l 1,4,-1
 179.505 475 l 1,5,-1
 175.505 675 l 1,6,-1
 276.495 675 l 1,7,-1
 272.495 475 l 1,8,-1
 417 475 l 1,9,-1
 417 414 l 1,10,-1
 270.523 414 l 1,11,-1
 265.465 175 l 1,12,-1
 417 175 l 1,13,-1
 417 114 l 1,14,-1
 264.538 114 l 1,15,-1
 257.538 -208 l 1,16,-1
 194.462 -208 l 1,17,-1
 187.462 114 l 1,18,-1
 35 114 l 1,19,-1
 35 175 l 1,0,-1
EndSplineSet
EndChar

StartChar: bullet
Encoding: 8226 8226 209
Width: 400
Flags: HW
LayerCount: 2
Fore
SplineSet
93.8661 243.488 m 0,0,1
 73.9419 264.505 73.9419 264.505 61.9039 292.02 c 0,2,3
 50 319.23 50 319.23 50 350 c 128,-1,4
 50 380.77 50 380.77 61.9039 407.98 c 0,5,6
 74.0132 435.658 74.0132 435.658 94.1777 455.822 c 128,-1,7
 114.343 475.987 114.343 475.987 142.02 488.096 c 0,8,9
 169.229 500 169.229 500 200 500 c 128,-1,10
 230.77 500 230.77 500 257.98 488.096 c 0,11,12
 285.782 475.933 285.782 475.933 306.509 455.637 c 0,13,14
 326.919 435.653 326.919 435.653 338.466 408.283 c 128,-1,15
 350 380.943 350 380.943 350 350 c 128,-1,16
 350 319.23 350 319.23 338.096 292.02 c 0,17,18
 325.933 264.218 325.933 264.218 305.637 243.491 c 0,19,20
 285.653 223.081 285.653 223.081 258.283 211.534 c 128,-1,21
 230.943 200 230.943 200 200 200 c 128,-1,22
 169.058 200 169.058 200 141.718 211.534 c 0,23,24
 114.624 222.964 114.624 222.964 93.8661 243.488 c 0,0,1
EndSplineSet
EndChar

StartChar: trademark
Encoding: 8482 8482 210
Width: 659
Flags: HW
LayerCount: 2
Fore
SplineSet
290 457 m 1,0,-1
 597.934 457 l 1,1,2
 598 455.882 598 455.882 598 455 c 2,3,-1
 598 244 l 1,4,-1
 570 244 l 1,5,-1
 570 450 l 1,6,-1
 458 450 l 1,7,-1
 458 244 l 1,8,-1
 430 244 l 1,9,-1
 430 450 l 1,10,-1
 318 450 l 1,11,-1
 318 244 l 1,12,-1
 290 244 l 1,13,-1
 290 457 l 1,0,-1
124 450 m 1,14,-1
 54 450 l 1,15,-1
 54 457 l 1,16,-1
 223 457 l 1,17,-1
 223 450 l 1,18,-1
 153 450 l 1,19,-1
 153 244 l 1,20,-1
 124 244 l 1,21,-1
 124 450 l 1,14,-1
EndSplineSet
EndChar

StartChar: product
Encoding: 8719 8719 211
Width: 746
Flags: HW
LayerCount: 2
Fore
SplineSet
553.881 675 m 1,0,-1
 612.119 675 l 1,1,2
 598 653.964 598 653.964 598 620 c 2,3,-1
 598 -120 l 2,4,5
 598 -153.965 598 -153.965 612.119 -175 c 1,6,-1
 553.881 -175 l 1,7,8
 568 -153.965 568 -153.965 568 -120 c 2,9,-1
 568 620 l 2,10,11
 568 653.964 568 653.964 553.881 675 c 1,0,-1
192.119 675 m 1,12,13
 178 653.965 178 653.965 178 620 c 2,14,-1
 178 -120 l 2,15,16
 178 -153.966 178 -153.966 192.119 -175 c 1,17,-1
 133.881 -175 l 1,18,19
 148 -153.966 148 -153.966 148 -120 c 2,20,-1
 148 620 l 2,21,22
 148 653.965 148 653.965 133.881 675 c 1,23,-1
 192.119 675 l 1,12,13
EndSplineSet
EndChar

StartChar: summation
Encoding: 8721 8721 212
Width: 676
Flags: HW
LayerCount: 2
Fore
SplineSet
345.42 264.426 m 1,0,-1
 62.7925 675 l 1,1,-1
 82.1078 675 l 1,2,-1
 354.692 277.976 l 1,3,-1
 345.42 264.426 l 1,0,-1
69.6762 -165 m 1,4,-1
 558 -165 l 2,5,6
 589.909 -165 589.909 -165 611.827 -152.667 c 1,7,-1
 607.958 -175 l 1,8,-1
 62.7925 -175 l 1,9,-1
 69.6762 -165 l 1,4,-1
EndSplineSet
EndChar

StartChar: infinity
Encoding: 8734 8734 214
Width: 652
Flags: HW
LayerCount: 2
Fore
SplineSet
76.1898 265.169 m 1,0,1
 61.7319 279.84 61.7319 279.84 52.2897 300.778 c 0,2,3
 43 321.377 43 321.377 43 350 c 128,-1,4
 43 378.623 43 378.623 52.2897 399.222 c 0,5,6
 61.6848 420.055 61.6848 420.055 76.4157 433.592 c 128,-1,7
 91.3326 447.299 91.3326 447.299 110.778 454.592 c 0,8,9
 130.533 462 130.533 462 151 462 c 0,10,11
 191.01 462 191.01 462 214.002 445.633 c 0,12,13
 239.594 427.415 239.594 427.415 256.993 400.447 c 2,14,-1
 281.249 362.85 l 1,15,-1
 300.553 403.214 l 2,16,17
 310.902 424.851 310.902 424.851 324.092 445.578 c 0,18,19
 336.065 464.394 336.065 464.394 353.191 478.952 c 0,20,21
 369.767 493.041 369.767 493.041 393.044 501.505 c 128,-1,22
 416.405 510 416.405 510 450 510 c 0,23,24
 477.513 510 477.513 510 504.305 500.061 c 0,25,26
 530.312 490.413 530.312 490.413 550.509 470.637 c 0,27,28
 571.019 450.556 571.019 450.556 584.073 420.532 c 0,29,30
 597 390.801 597 390.801 597 350 c 128,-1,31
 597 309.199 597 309.199 584.073 279.468 c 0,32,33
 571.019 249.445 571.019 249.445 550.509 229.363 c 0,34,35
 530.313 209.587 530.313 209.587 504.305 199.939 c 0,36,37
 477.513 190 477.513 190 450 190 c 0,38,39
 416.405 190 416.405 190 393.044 198.495 c 128,-1,40
 369.62 207.013 369.62 207.013 352.458 221.244 c 0,41,42
 334.982 235.737 334.982 235.737 323.092 254.422 c 0,43,44
 309.902 275.149 309.902 275.149 299.553 296.786 c 2,45,-1
 279.714 338.269 l 1,46,-1
 255.685 299.064 l 2,47,48
 239.294 272.321 239.294 272.321 214.337 254.249 c 0,49,50
 191.899 238 191.899 238 151 238 c 0,51,52
 130.296 238 130.296 238 110.346 245.066 c 0,53,54
 91.3823 251.782 91.3823 251.782 76.1898 265.169 c 1,0,1
344.315 248.391 m 0,55,56
 363.352 226.975 363.352 226.975 388.4 213.854 c 0,57,58
 414.849 200 414.849 200 450 200 c 0,59,60
 475.533 200 475.533 200 499.778 209.092 c 0,61,62
 524.849 218.493 524.849 218.493 544.678 238.322 c 0,63,64
 564.202 257.847 564.202 257.847 575.607 285.456 c 128,-1,65
 587 313.039 587 313.039 587 350 c 0,66,67
 587 385.864 587 385.864 575.678 413.87 c 0,68,69
 564.271 442.084 564.271 442.084 544.678 461.678 c 0,70,71
 524.849 481.506 524.849 481.506 499.778 490.908 c 0,72,73
 475.534 500 475.534 500 450 500 c 0,74,75
 414.471 500 414.471 500 387.957 487.668 c 0,76,77
 362.093 475.638 362.093 475.638 342.795 455.134 c 0,78,79
 324.437 435.629 324.437 435.629 311.344 410.581 c 0,80,81
 299.633 388.177 299.633 388.177 288.447 364.786 c 2,82,-1
 283.171 353.756 l 1,83,-1
 288.639 342.82 l 2,84,85
 300.686 318.726 300.686 318.726 312.735 295.131 c 0,86,87
 326.19 268.781 326.19 268.781 344.315 248.391 c 0,55,56
151 248 m 0,88,89
 199.864 248 199.864 248 228.276 278.442 c 0,90,91
 251.53 303.357 251.53 303.357 270.078 338.271 c 2,92,-1
 276.309 350 l 1,93,-1
 270.078 361.729 l 2,94,95
 251.53 396.643 251.53 396.643 228.276 421.558 c 0,96,97
 199.864 452 199.864 452 151 452 c 0,98,99
 113.674 452 113.674 452 84.1267 426.392 c 0,100,101
 53 399.415 53 399.415 53 350 c 128,-1,102
 53 300.585 53 300.585 84.1267 273.608 c 0,103,104
 113.674 248 113.674 248 151 248 c 0,88,89
EndSplineSet
EndChar

StartChar: integral
Encoding: 8747 8747 215
Width: 252
Flags: HW
LayerCount: 2
Fore
SplineSet
177.425 676.657 m 1,0,1
 178.404 677.281 178.404 677.281 179.036 677.668 c 0,2,3
 191.035 685 191.035 685 206 685 c 0,4,5
 212.645 685 212.645 685 216.822 680.822 c 128,-1,6
 221 676.645 221 676.645 221 670 c 0,7,8
 221 661.705 221 661.705 217.662 656.728 c 1,9,10
 214.185 655 214.185 655 206 655 c 0,11,12
 204.298 655 204.298 655 203.569 655.307 c 0,13,14
 198.859 658.293 198.859 658.293 194.893 661.929 c 0,15,16
 188.751 667.557 188.751 667.557 184.109 671.685 c 0,17,18
 180.97 674.475 180.97 674.475 177.425 676.657 c 1,0,1
125.037 362.259 m 1,19,20
 128 306.555 128 306.555 128 250 c 0,21,22
 128 195.896 128 195.896 126.961 141.065 c 1,23,24
 124 195.267 124 195.267 124 250 c 0,25,26
 124 306.101 124 306.101 125.037 362.259 c 1,19,20
74.5754 -166.657 m 1,27,28
 73.5987 -167.28 73.5987 -167.28 72.9638 -167.668 c 0,29,30
 60.966 -175 60.966 -175 46 -175 c 0,31,32
 39.3553 -175 39.3553 -175 35.1777 -170.822 c 128,-1,33
 31 -166.645 31 -166.645 31 -160 c 0,34,35
 31 -151.705 31 -151.705 34.3379 -146.728 c 1,36,37
 37.815 -145 37.815 -145 46 -145 c 0,38,39
 47.7013 -145 47.7013 -145 48.4306 -145.307 c 0,40,41
 53.1409 -148.293 53.1409 -148.293 57.1069 -151.929 c 0,42,43
 63.2484 -157.559 63.2484 -157.559 67.8909 -161.685 c 0,44,45
 71.03 -164.476 71.03 -164.476 74.5754 -166.657 c 1,27,28
EndSplineSet
EndChar

StartChar: lozenge
Encoding: 9674 9674 216
Width: 532
Flags: HW
LayerCount: 2
Fore
SplineSet
42.6816 350 m 1,0,-1
 250.682 675 l 1,1,-1
 281.318 675 l 1,2,-1
 489.318 350 l 1,3,-1
 281.318 25 l 1,4,-1
 250.682 25 l 1,5,-1
 42.6816 350 l 1,0,-1
285.659 15 m 1,6,-1
 500.686 349.966 l 1,7,-1
 286.697 685 l 1,8,-1
 246.341 685 l 1,9,-1
 31.314 350.034 l 1,10,-1
 245.303 15 l 1,11,-1
 285.659 15 l 1,6,-1
EndSplineSet
EndChar

StartChar: Omega
Encoding: 937 937 217
AltUni2: 002126.ffffffff.0
Width: 762
Flags: HW
LayerCount: 2
Fore
SplineSet
618.842 173.728 m 1,0,-1
 709.61 173.728 l 1,1,-1
 660.234 77.5 l 1,2,-1
 449.86 77.5 l 1,3,-1
 465.163 525.5 l 1,4,-1
 268.737 525.5 l 1,5,-1
 225.207 77.5 l 1,6,-1
 75.376 77.5 l 1,7,-1
 26 173.728 l 1,8,-1
 103.85 173.728 l 1,9,-1
 73.0791 273.97 l 2,10,11
 62.3047 309.066 62.3047 309.066 62.3047 366.494 c 2,12,-1
 62.3047 407.44 l 2,13,14
 62.3047 516.084 62.3047 516.084 108.734 567.152 c 1,15,16
 166.001 622.5 166.001 622.5 280.603 622.5 c 2,17,-1
 445.747 622.5 l 2,18,19
 560.502 622.5 560.502 622.5 612.816 566.989 c 0,20,21
 661.306 517.91 661.306 517.91 661.306 407.44 c 2,22,-1
 661.306 366.494 l 2,23,24
 661.306 309.582 661.306 309.582 650.293 274.349 c 2,25,-1
 618.842 173.728 l 1,0,-1
EndSplineSet
EndChar

StartChar: pi
Encoding: 960 960 218
Width: 707
Flags: HW
LayerCount: 2
Fore
SplineSet
268.748 428 m 1,0,-1
 268.748 55 l 1,1,-1
 162.795 55 l 1,2,-1
 162.795 428 l 1,3,-1
 26 428 l 1,4,-1
 26 500 l 1,5,-1
 659.541 500 l 1,6,-1
 626.384 428 l 1,7,-1
 542.622 428 l 1,8,-1
 542.622 55 l 1,9,-1
 436.557 55 l 1,10,-1
 436.557 428 l 1,11,-1
 268.748 428 l 1,0,-1
EndSplineSet
EndChar

StartChar: exclam
Encoding: 33 33 220
Width: 216
Flags: HW
LayerCount: 2
Fore
SplineSet
76 660 m 1,0,-1
 148 660 l 1,1,-1
 148 250 l 1,2,-1
 76 250 l 1,3,-1
 76 660 l 1,0,-1
76 112 m 1,4,-1
 148 112 l 1,5,-1
 148 40 l 1,6,-1
 76 40 l 1,7,-1
 76 112 l 1,4,-1
EndSplineSet
EndChar

StartChar: uni2206
Encoding: 8710 8710 221
Width: 722
Flags: HW
LayerCount: 2
Fore
SplineSet
356.894 675 m 1,0,-1
 365.106 675 l 1,1,-1
 669.677 25 l 1,2,-1
 52.3227 25 l 1,3,-1
 356.894 675 l 1,0,-1
686.36 15 m 1,4,-1
 361 707.812 l 1,5,-1
 35.6399 15 l 1,6,-1
 686.36 15 l 1,4,-1
EndSplineSet
EndChar

StartChar: quotedbl
Encoding: 34 34 222
Width: 451
Flags: HW
LayerCount: 2
Fore
SplineSet
305.152 630 m 1,0,-1
 374.417 630 l 1,1,-1
 333.731 442 l 1,2,-1
 263.764 442 l 1,3,-1
 305.152 630 l 1,0,-1
118.269 630 m 1,4,-1
 188.236 630 l 1,5,-1
 146.848 442 l 1,6,-1
 77.5827 442 l 1,7,-1
 118.269 630 l 1,4,-1
EndSplineSet
EndChar

StartChar: brokenbar
Encoding: 166 166 225
Width: 219
Flags: HW
LayerCount: 2
Fore
SplineSet
76 777 m 1,0,-1
 148 777 l 1,1,-1
 148 414 l 1,2,-1
 76 414 l 1,3,-1
 76 777 l 1,0,-1
76 260 m 1,4,-1
 148 260 l 1,5,-1
 148 -76 l 1,6,-1
 76 -76 l 1,7,-1
 76 260 l 1,4,-1
EndSplineSet
EndChar

StartChar: twosuperior
Encoding: 178 178 226
Width: 518
Flags: HW
LayerCount: 2
Fore
SplineSet
113.957 310.37 m 0,0,1
 109 314.946 109 314.946 109 322 c 2,2,-1
 109 483 l 2,3,4
 109 490.054 109 490.054 113.957 494.63 c 0,5,6
 119.775 500 119.775 500 126 500 c 2,7,-1
 333 500 l 1,8,-1
 333 634 l 1,9,-1
 109 634 l 1,10,-1
 109 675 l 1,11,-1
 392 675 l 2,12,13
 397.495 675 397.495 675 403.891 669.315 c 0,14,15
 409 664.773 409 664.773 409 658 c 2,16,-1
 409 497 l 2,17,18
 409 490.227 409 490.227 403.891 485.685 c 0,19,20
 397.495 480 397.495 480 392 480 c 2,21,-1
 185 480 l 1,22,-1
 185 346 l 1,23,-1
 409 346 l 1,24,-1
 409 305 l 1,25,-1
 126 305 l 2,26,27
 119.775 305 119.775 305 113.957 310.37 c 0,0,1
EndSplineSet
EndChar

StartChar: threesuperior
Encoding: 179 179 227
Width: 518
Flags: HW
LayerCount: 2
Fore
SplineSet
333 510.707 m 1,0,-1
 333 634 l 1,1,-1
 109 634 l 1,2,-1
 109 675 l 1,3,-1
 392 675 l 2,4,5
 397.495 675 397.495 675 403.891 669.315 c 0,6,7
 409 664.773 409 664.773 409 658 c 2,8,-1
 409 532 l 2,9,10
 409 525.263 409 525.263 404.436 521.225 c 0,11,12
 397.776 515.333 397.776 515.333 392.219 514.936 c 2,13,-1
 333 510.707 l 1,0,-1
179 493.445 m 1,14,-1
 279.841 480 l 1,15,-1
 179 480 l 1,16,-1
 179 493.445 l 1,14,-1
333 472.912 m 1,17,-1
 390.696 465.219 l 2,18,19
 399.139 464.093 399.139 464.093 406.373 458.596 c 0,20,21
 409 456.599 409 456.599 409 455 c 2,22,-1
 409 322 l 2,23,24
 409 315.227 409 315.227 403.891 310.685 c 0,25,26
 397.495 305 397.495 305 392 305 c 2,27,-1
 109 305 l 1,28,-1
 109 346 l 1,29,-1
 333 346 l 1,30,-1
 333 472.912 l 1,17,-1
EndSplineSet
EndChar

StartChar: onesuperior
Encoding: 185 185 228
Width: 341
Flags: HW
LayerCount: 2
Fore
SplineSet
155 634 m 1,0,-1
 99.0727 634 l 1,1,-1
 117.996 675 l 1,2,-1
 231 675 l 1,3,-1
 231 305 l 1,4,-1
 155 305 l 1,5,-1
 155 634 l 1,0,-1
EndSplineSet
EndChar

StartChar: onequarter
Encoding: 188 188 229
Width: 967
Flags: HW
LayerCount: 2
Fore
SplineSet
572.508 675 m 1,0,-1
 614.92 675 l 1,1,-1
 243.492 25 l 1,2,-1
 201.079 25 l 1,3,-1
 572.508 675 l 1,0,-1
138 634 m 1,4,-1
 82.0727 634 l 1,5,-1
 100.996 675 l 1,6,-1
 214 675 l 1,7,-1
 214 305 l 1,8,-1
 138 305 l 1,9,-1
 138 634 l 1,4,-1
604 395 m 1,10,-1
 680 395 l 1,11,-1
 680 150 l 1,12,-1
 828 150 l 1,13,-1
 828 255 l 1,14,-1
 904 255 l 1,15,-1
 904 25 l 1,16,-1
 828 25 l 1,17,-1
 828 130 l 1,18,-1
 604 130 l 1,19,-1
 604 395 l 1,10,-1
EndSplineSet
EndChar

StartChar: onehalf
Encoding: 189 189 230
Width: 967
Flags: HW
LayerCount: 2
Fore
SplineSet
572.508 675 m 1,0,-1
 614.92 675 l 1,1,-1
 243.492 25 l 1,2,-1
 201.079 25 l 1,3,-1
 572.508 675 l 1,0,-1
138 634 m 1,4,-1
 82.0727 634 l 1,5,-1
 100.996 675 l 1,6,-1
 214 675 l 1,7,-1
 214 305 l 1,8,-1
 138 305 l 1,9,-1
 138 634 l 1,4,-1
602 203 m 2,10,11
 602 210.054 602 210.054 606.957 214.63 c 0,12,13
 612.775 220 612.775 220 619 220 c 2,14,-1
 826 220 l 1,15,-1
 826 354 l 1,16,-1
 602 354 l 1,17,-1
 602 395 l 1,18,-1
 885 395 l 2,19,20
 890.495 395 890.495 395 896.891 389.315 c 0,21,22
 902 384.773 902 384.773 902 378 c 2,23,-1
 902 217 l 2,24,25
 902 210.226 902 210.226 896.891 205.685 c 0,26,27
 890.495 200 890.495 200 885 200 c 2,28,-1
 678 200 l 1,29,-1
 678 66 l 1,30,-1
 902 66 l 1,31,-1
 902 25 l 1,32,-1
 619 25 l 2,33,34
 612.775 25 612.775 25 606.957 30.3701 c 0,35,36
 602 34.9459 602 34.9459 602 42 c 2,37,-1
 602 203 l 2,10,11
EndSplineSet
EndChar

StartChar: threequarters
Encoding: 190 190 231
Width: 1103
Flags: HW
LayerCount: 2
Fore
SplineSet
706.508 675 m 1,0,-1
 748.92 675 l 1,1,-1
 377.492 25 l 1,2,-1
 335.08 25 l 1,3,-1
 706.508 675 l 1,0,-1
288 510.707 m 1,4,-1
 288 634 l 1,5,-1
 64 634 l 1,6,-1
 64 675 l 1,7,-1
 347 675 l 2,8,9
 352.495 675 352.495 675 358.891 669.315 c 0,10,11
 364 664.773 364 664.773 364 658 c 2,12,-1
 364 532 l 2,13,14
 364 525.263 364 525.263 359.436 521.225 c 0,15,16
 352.776 515.333 352.776 515.333 347.219 514.936 c 2,17,-1
 288 510.707 l 1,4,-1
134 493.445 m 1,18,-1
 234.841 480 l 1,19,-1
 134 480 l 1,20,-1
 134 493.445 l 1,18,-1
288 472.912 m 1,21,-1
 345.696 465.219 l 2,22,23
 354.139 464.093 354.139 464.093 361.373 458.596 c 0,24,25
 364 456.599 364 456.599 364 455 c 2,26,-1
 364 322 l 2,27,28
 364 315.227 364 315.227 358.891 310.685 c 0,29,30
 352.495 305 352.495 305 347 305 c 2,31,-1
 64 305 l 1,32,-1
 64 346 l 1,33,-1
 288 346 l 1,34,-1
 288 472.912 l 1,21,-1
738 395 m 1,35,-1
 814 395 l 1,36,-1
 814 150 l 1,37,-1
 962 150 l 1,38,-1
 962 255 l 1,39,-1
 1038 255 l 1,40,-1
 1038 25 l 1,41,-1
 962 25 l 1,42,-1
 962 130 l 1,43,-1
 738 130 l 1,44,-1
 738 395 l 1,35,-1
EndSplineSet
EndChar

StartChar: Eth
Encoding: 208 208 232
Width: 582
Flags: HW
LayerCount: 2
Fore
SplineSet
536.896 49.4492 m 0,0,1
 526.985 40 526.985 40 516 40 c 2,2,-1
 122 40 l 1,3,-1
 122 340 l 1,4,-1
 22 340 l 1,5,-1
 22 360 l 1,6,-1
 122 360 l 1,7,-1
 122 660 l 1,8,-1
 516 660 l 2,9,10
 526.706 660 526.706 660 536.551 650.385 c 0,11,12
 546 641.155 546 641.155 546 630 c 2,13,-1
 546 70 l 2,14,15
 546 58.1289 546 58.1289 536.896 49.4492 c 0,0,1
304.111 340 m 1,16,-1
 224.963 340 l 1,17,-1
 224.963 112 l 1,18,-1
 422.186 112 l 1,19,-1
 422.186 588 l 1,20,-1
 224.963 588 l 1,21,-1
 224.963 360 l 1,22,-1
 304.111 360 l 1,23,-1
 304.111 340 l 1,16,-1
EndSplineSet
EndChar

StartChar: multiply
Encoding: 215 215 233
Width: 358
Flags: HW
LayerCount: 2
Fore
SplineSet
27 201.322 m 1,0,-1
 152.104 350 l 1,1,-1
 27 498.678 l 1,2,-1
 62.6445 534.322 l 1,3,-1
 168.645 385.645 l 1,4,-1
 274.645 534.322 l 1,5,-1
 310.289 498.678 l 1,6,-1
 185.185 350 l 1,7,-1
 310.289 201.322 l 1,8,-1
 274.645 165.678 l 1,9,-1
 168.645 314.355 l 1,10,-1
 62.6445 165.678 l 1,11,-1
 27 201.322 l 1,0,-1
EndSplineSet
EndChar

StartChar: Yacute
Encoding: 221 221 234
Width: 556
Flags: HW
LayerCount: 2
Fore
SplineSet
320.328 886.321 m 1,0,-1
 320.328 879.582 l 1,1,-1
 285.705 872.2 l 1,2,-1
 320.328 886.321 l 1,0,-1
293.356 326.374 m 1,3,-1
 293.356 40 l 1,4,-1
 197.537 40 l 1,5,-1
 197.537 326.336 l 1,6,-1
 8 660 l 1,7,-1
 154.919 660 l 1,8,-1
 245.446 474.312 l 1,9,-1
 335.975 660 l 1,10,-1
 483.542 660 l 1,11,-1
 293.356 326.374 l 1,3,-1
EndSplineSet
EndChar

StartChar: Thorn
Encoding: 222 222 235
Width: 473
Flags: HW
LayerCount: 2
Fore
SplineSet
157.854 162 m 1,0,-1
 157.854 40 l 1,1,-1
 36 40 l 1,2,-1
 36 660 l 1,3,-1
 157.854 660 l 1,4,-1
 157.854 538 l 1,5,-1
 430 538 l 2,6,7
 440.706 538 440.706 538 450.551 528.385 c 0,8,9
 460 519.155 460 519.155 460 508 c 2,10,-1
 460 192 l 2,11,12
 460 180.129 460 180.129 450.896 171.449 c 0,13,14
 440.986 162 440.986 162 430 162 c 2,15,-1
 157.854 162 l 1,0,-1
338.146 465 m 1,16,-1
 157.854 465 l 1,17,-1
 157.854 199 l 1,18,-1
 338.146 199 l 1,19,-1
 338.146 465 l 1,16,-1
EndSplineSet
EndChar

StartChar: eth
Encoding: 240 240 236
Width: 440
Flags: HW
LayerCount: 2
Fore
SplineSet
63 80 m 2,0,1
 51.5684 80 51.5684 80 42.3066 89.2627 c 128,-1,2
 33 98.5684 33 98.5684 33 110 c 2,3,-1
 33 495 l 2,4,5
 33 506.432 33 506.432 42.2852 515.716 c 128,-1,6
 51.5693 525 51.5693 525 63 525 c 2,7,-1
 288.575 525 l 1,8,-1
 288.575 580 l 2,9,10
 288.575 627.426 288.575 627.426 271.892 652.776 c 0,11,12
 253.974 680 253.974 680 219.683 680 c 2,13,-1
 53 680 l 1,14,-1
 53 700 l 1,15,-1
 252.591 700 l 2,16,17
 328.431 700 328.431 700 368.715 659.715 c 128,-1,18
 409 619.433 409 619.433 409 520 c 2,19,-1
 409 80 l 1,20,-1
 63 80 l 2,0,1
288.575 428 m 1,21,-1
 153.425 428 l 1,22,-1
 153.425 127 l 1,23,-1
 288.575 127 l 1,24,-1
 288.575 428 l 1,21,-1
EndSplineSet
EndChar

StartChar: yacute
Encoding: 253 253 237
Width: 429
Flags: HW
LayerCount: 2
Fore
SplineSet
275.393 710.526 m 1,0,-1
 275.393 704.34 l 1,1,-1
 248.249 697.564 l 1,2,-1
 275.393 710.526 l 1,0,-1
54 0 m 2,3,4
 42.5684 0 42.5684 0 33.3076 9.2627 c 128,-1,5
 24 18.5684 24 18.5684 24 30 c 2,6,-1
 24 445 l 1,7,-1
 144.425 445 l 1,8,-1
 144.425 72 l 1,9,-1
 279.575 72 l 1,10,-1
 279.575 445 l 1,11,-1
 400 445 l 1,12,-1
 400 -203 l 2,13,14
 400 -214.431 400 -214.431 390.715 -223.716 c 128,-1,15
 381.432 -233 381.432 -233 370 -233 c 2,16,-1
 79.6162 -233 l 1,17,-1
 46.459 -161 l 1,18,-1
 279.575 -161 l 1,19,-1
 279.575 0 l 1,20,-1
 54 0 l 2,3,4
EndSplineSet
EndChar

StartChar: thorn
Encoding: 254 254 238
Width: 421
Flags: HW
LayerCount: 2
Fore
SplineSet
156.425 23.7012 m 1,0,-1
 156.425 -233 l 1,1,-1
 36 -233 l 1,2,-1
 36 700 l 1,3,-1
 156.425 700 l 1,4,-1
 156.425 515.091 l 1,5,-1
 382 515.091 l 2,6,7
 393.188 515.091 393.188 515.091 402.403 505.354 c 0,8,9
 412 495.003 412 495.003 412 481.962 c 2,10,-1
 412 57.7979 l 2,11,12
 412 44.4775 412 44.4775 402.375 33.873 c 0,13,14
 393.142 23.7012 393.142 23.7012 382 23.7012 c 2,15,-1
 156.425 23.7012 l 1,0,-1
291.575 428 m 1,16,-1
 156.425 428 l 1,17,-1
 156.425 127 l 1,18,-1
 291.575 127 l 1,19,-1
 291.575 428 l 1,16,-1
EndSplineSet
EndChar

StartChar: Abreve
Encoding: 258 258 239
Width: 683
Flags: HW
LayerCount: 2
Fore
SplineSet
321.706 528.262 m 1,0,-1
 151.793 40 l 1,1,-1
 14 40 l 1,2,-1
 247.693 660 l 1,3,-1
 395.846 660 l 1,4,-1
 630.279 40 l 1,5,-1
 308.366 40 l 1,6,-1
 308.366 112 l 1,7,-1
 466.997 112 l 1,8,-1
 321.706 528.262 l 1,0,-1
EndSplineSet
EndChar

StartChar: Amacron
Encoding: 256 256 240
Width: 689
Flags: HW
LayerCount: 2
Fore
SplineSet
324.706 528.262 m 1,0,-1
 154.793 40 l 1,1,-1
 17 40 l 1,2,-1
 250.693 660 l 1,3,-1
 398.846 660 l 1,4,-1
 633.279 40 l 1,5,-1
 311.366 40 l 1,6,-1
 311.366 112 l 1,7,-1
 469.997 112 l 1,8,-1
 324.706 528.262 l 1,0,-1
EndSplineSet
EndChar

StartChar: Aogonek
Encoding: 260 260 241
Width: 682
Flags: HW
LayerCount: 2
Fore
SplineSet
315.706 488.262 m 1,0,-1
 145.793 0 l 1,1,-1
 8 0 l 1,2,-1
 241.693 620 l 1,3,-1
 389.846 620 l 1,4,-1
 624.279 0 l 1,5,-1
 574.469 0 l 1,6,-1
 563.103 -10.1035 l 2,7,8
 551.194 -20.6885 551.194 -20.6885 539.331 -36.2969 c 0,9,10
 527.737 -51.5508 527.737 -51.5508 518.601 -69.2158 c 0,11,12
 509.509 -87.3965 509.509 -87.3965 504.565 -106.8 c 0,13,14
 499.524 -127.553 499.524 -127.553 499.524 -146 c 0,15,16
 499.524 -191.55 499.524 -191.55 527.739 -214.259 c 1,17,18
 525.227 -213.712 525.227 -213.712 523.045 -213.17 c 0,19,20
 507.449 -208.913 507.449 -208.913 496.119 -200.311 c 0,21,22
 486.93 -193.257 486.93 -193.257 480.999 -180.832 c 0,23,24
 475.251 -168.786 475.251 -168.786 475.251 -149 c 0,25,26
 475.251 -130.389 475.251 -130.389 482.134 -109.787 c 0,27,28
 489.305 -88.3252 489.305 -88.3252 505.802 -65.3613 c 2,29,-1
 555.541 0 l 1,30,-1
 302.366 0 l 1,31,-1
 302.366 72 l 1,32,-1
 460.997 72 l 1,33,-1
 315.706 488.262 l 1,0,-1
EndSplineSet
EndChar

StartChar: Cacute
Encoding: 262 262 242
Width: 469
Flags: HW
LayerCount: 2
Fore
SplineSet
300.641 885.836 m 1,0,-1
 300.641 879.433 l 1,1,-1
 270.84 872.42 l 1,2,-1
 300.641 885.836 l 1,0,-1
57 40 m 2,3,4
 46.0146 40 46.0146 40 36.0947 49.458 c 0,5,6
 27 58.1299 27 58.1299 27 70 c 2,7,-1
 27 630 l 2,8,9
 27 641.155 27 641.155 36.4492 650.385 c 0,10,11
 46.2939 660 46.2939 660 57 660 c 2,12,-1
 428.541 660 l 1,13,-1
 395.384 588 l 1,14,-1
 148.451 588 l 1,15,-1
 148.451 112 l 1,16,-1
 428.541 112 l 1,17,-1
 395.384 40 l 1,18,-1
 57 40 l 2,3,4
EndSplineSet
EndChar

StartChar: Ccaron
Encoding: 268 268 243
Width: 474
Flags: HW
LayerCount: 2
Fore
SplineSet
236.575 854.777 m 1,0,-1
 273.372 866.279 l 1,1,-1
 236.626 844.306 l 1,2,-1
 200.488 866.212 l 1,3,-1
 236.575 854.777 l 1,0,-1
60 40 m 2,4,5
 49.0146 40 49.0146 40 39.0947 49.458 c 0,6,7
 30 58.1299 30 58.1299 30 70 c 2,8,-1
 30 630 l 2,9,10
 30 641.155 30 641.155 39.4492 650.385 c 0,11,12
 49.2939 660 49.2939 660 60 660 c 2,13,-1
 431.541 660 l 1,14,-1
 398.384 588 l 1,15,-1
 151.451 588 l 1,16,-1
 151.451 112 l 1,17,-1
 431.541 112 l 1,18,-1
 398.384 40 l 1,19,-1
 60 40 l 2,4,5
EndSplineSet
EndChar

StartChar: Ccircumflex
Encoding: 264 264 244
Width: 474
Flags: HW
LayerCount: 2
Fore
SplineSet
273.372 875.721 m 1,0,-1
 236.575 887.223 l 1,1,-1
 200.488 875.788 l 1,2,-1
 236.626 897.694 l 1,3,-1
 273.372 875.721 l 1,0,-1
60 40 m 2,4,5
 49.0146 40 49.0146 40 39.0947 49.458 c 0,6,7
 30 58.1299 30 58.1299 30 70 c 2,8,-1
 30 630 l 2,9,10
 30 641.155 30 641.155 39.4492 650.385 c 0,11,12
 49.2939 660 49.2939 660 60 660 c 2,13,-1
 431.541 660 l 1,14,-1
 398.384 588 l 1,15,-1
 151.451 588 l 1,16,-1
 151.451 112 l 1,17,-1
 431.541 112 l 1,18,-1
 398.384 40 l 1,19,-1
 60 40 l 2,4,5
EndSplineSet
EndChar

StartChar: Cdotaccent
Encoding: 266 266 245
Width: 467
Flags: HW
LayerCount: 2
Fore
SplineSet
254.565 863 m 0,0,1
 254.565 849.178 254.565 849.178 247.634 836.835 c 0,2,3
 243.795 830 243.795 830 232.896 830 c 0,4,5
 222.944 830 222.944 830 219.498 836.309 c 0,6,7
 212.623 848.891 212.623 848.891 212.623 864 c 0,8,9
 212.623 878.109 212.623 878.109 219.498 890.691 c 0,10,11
 222.944 897 222.944 897 232.896 897 c 0,12,13
 243.795 897 243.795 897 247.572 890.273 c 0,14,15
 254.565 877.822 254.565 877.822 254.565 863 c 0,0,1
57 40 m 2,16,17
 46.0146 40 46.0146 40 36.0947 49.458 c 0,18,19
 27 58.1299 27 58.1299 27 70 c 2,20,-1
 27 630 l 2,21,22
 27 641.155 27 641.155 36.4492 650.385 c 0,23,24
 46.2939 660 46.2939 660 57 660 c 2,25,-1
 428.541 660 l 1,26,-1
 395.384 588 l 1,27,-1
 148.451 588 l 1,28,-1
 148.451 112 l 1,29,-1
 428.541 112 l 1,30,-1
 395.384 40 l 1,31,-1
 57 40 l 2,16,17
EndSplineSet
EndChar

StartChar: Dcaron
Encoding: 270 270 246
Width: 484
Flags: HW
LayerCount: 2
Fore
SplineSet
242 854.779 m 1,0,-1
 278.957 866.256 l 1,1,-1
 242 844.3 l 1,2,-1
 205.043 866.256 l 1,3,-1
 242 854.779 l 1,0,-1
444.896 49.4492 m 0,4,5
 434.986 40 434.986 40 424 40 c 2,6,-1
 30 40 l 1,7,-1
 30 660 l 1,8,-1
 424 660 l 2,9,10
 434.706 660 434.706 660 444.551 650.385 c 0,11,12
 454 641.155 454 641.155 454 630 c 2,13,-1
 454 70 l 2,14,15
 454 58.1289 454 58.1289 444.896 49.4492 c 0,4,5
332.146 588 m 1,16,-1
 151.854 588 l 1,17,-1
 151.854 112 l 1,18,-1
 332.146 112 l 1,19,-1
 332.146 588 l 1,16,-1
EndSplineSet
EndChar

StartChar: Dcroat
Encoding: 272 272 247
Width: 582
Flags: HW
LayerCount: 2
Fore
SplineSet
536.896 49.4492 m 0,0,1
 526.985 40 526.985 40 516 40 c 2,2,-1
 122 40 l 1,3,-1
 122 340 l 1,4,-1
 22 340 l 1,5,-1
 22 360 l 1,6,-1
 122 360 l 1,7,-1
 122 660 l 1,8,-1
 516 660 l 2,9,10
 526.706 660 526.706 660 536.551 650.385 c 0,11,12
 546 641.155 546 641.155 546 630 c 2,13,-1
 546 70 l 2,14,15
 546 58.1289 546 58.1289 536.896 49.4492 c 0,0,1
304.111 340 m 1,16,-1
 224.963 340 l 1,17,-1
 224.963 112 l 1,18,-1
 422.186 112 l 1,19,-1
 422.186 588 l 1,20,-1
 224.963 588 l 1,21,-1
 224.963 360 l 1,22,-1
 304.111 360 l 1,23,-1
 304.111 340 l 1,16,-1
EndSplineSet
EndChar

StartChar: Ecaron
Encoding: 282 282 248
Width: 475
Flags: HW
LayerCount: 2
Fore
SplineSet
236.575 854.777 m 1,0,-1
 273.372 866.279 l 1,1,-1
 236.626 844.306 l 1,2,-1
 200.488 866.212 l 1,3,-1
 236.575 854.777 l 1,0,-1
431.541 112 m 1,4,-1
 398.384 40 l 1,5,-1
 30 40 l 1,6,-1
 30 660 l 1,7,-1
 431.541 660 l 1,8,-1
 398.384 588 l 1,9,-1
 151.451 588 l 1,10,-1
 151.451 368 l 1,11,-1
 384 368 l 1,12,-1
 384 332 l 1,13,-1
 151.451 332 l 1,14,-1
 151.451 112 l 1,15,-1
 431.541 112 l 1,4,-1
EndSplineSet
EndChar

StartChar: Edotaccent
Encoding: 278 278 249
Width: 468
Flags: HW
LayerCount: 2
Fore
SplineSet
254.565 863 m 0,0,1
 254.565 849.178 254.565 849.178 247.634 836.835 c 0,2,3
 243.795 830 243.795 830 232.896 830 c 0,4,5
 222.944 830 222.944 830 219.498 836.309 c 0,6,7
 212.623 848.891 212.623 848.891 212.623 864 c 0,8,9
 212.623 878.109 212.623 878.109 219.498 890.691 c 0,10,11
 222.944 897 222.944 897 232.896 897 c 0,12,13
 243.795 897 243.795 897 247.572 890.273 c 0,14,15
 254.565 877.822 254.565 877.822 254.565 863 c 0,0,1
428.541 112 m 1,16,-1
 395.384 40 l 1,17,-1
 27 40 l 1,18,-1
 27 660 l 1,19,-1
 428.541 660 l 1,20,-1
 395.384 588 l 1,21,-1
 148.451 588 l 1,22,-1
 148.451 368 l 1,23,-1
 381 368 l 1,24,-1
 381 332 l 1,25,-1
 148.451 332 l 1,26,-1
 148.451 112 l 1,27,-1
 428.541 112 l 1,16,-1
EndSplineSet
EndChar

StartChar: Emacron
Encoding: 274 274 250
Width: 489
Flags: HW
LayerCount: 2
Fore
SplineSet
437.541 112 m 1,0,-1
 404.384 40 l 1,1,-1
 36 40 l 1,2,-1
 36 660 l 1,3,-1
 437.541 660 l 1,4,-1
 404.384 588 l 1,5,-1
 157.451 588 l 1,6,-1
 157.451 368 l 1,7,-1
 390 368 l 1,8,-1
 390 332 l 1,9,-1
 157.451 332 l 1,10,-1
 157.451 112 l 1,11,-1
 437.541 112 l 1,0,-1
EndSplineSet
EndChar

StartChar: Eogonek
Encoding: 280 280 251
Width: 473
Flags: HW
LayerCount: 2
Fore
SplineSet
311.515 -64.5742 m 2,0,-1
 355.027 4.77637 l 1,1,-1
 22 4.77637 l 1,2,-1
 22 660 l 1,3,-1
 423.541 660 l 1,4,-1
 390.384 588 l 1,5,-1
 143.454 588 l 1,6,-1
 143.454 368 l 1,7,-1
 376 368 l 1,8,-1
 376 332 l 1,9,-1
 143.454 332 l 1,10,-1
 143.454 87.1631 l 1,11,-1
 424.333 87.1631 l 1,12,-1
 390.046 3.37402 l 1,13,-1
 376.424 3.37402 l 1,14,-1
 364.958 -8.0957 l 2,15,16
 353.098 -19.6992 353.098 -19.6992 341.372 -36.6797 c 0,17,18
 330.058 -51.5537 330.058 -51.5537 320.935 -69.1963 c 0,19,20
 311.71 -87.5205 311.71 -87.5205 307.127 -107.125 c 0,21,22
 302.71 -127.741 302.71 -127.741 302.71 -146 c 0,23,24
 302.71 -192.048 302.71 -192.048 330.083 -214.212 c 1,25,26
 327.776 -213.694 327.776 -213.694 326.068 -213.272 c 0,27,28
 312.414 -209.146 312.414 -209.146 302.634 -200.799 c 0,29,30
 295.059 -193.847 295.059 -193.847 290.096 -181.412 c 128,-1,31
 285.192 -169.125 285.192 -169.125 285.192 -149 c 0,32,33
 285.192 -130.133 285.192 -130.133 291.009 -109.315 c 0,34,35
 297.037 -87.7422 297.037 -87.7422 311.515 -64.5742 c 2,0,-1
EndSplineSet
EndChar

StartChar: Gbreve
Encoding: 286 286 252
Width: 476
Flags: HW
LayerCount: 2
Fore
SplineSet
58 40 m 2,0,1
 47.0146 40 47.0146 40 37.0947 49.458 c 0,2,3
 28 58.1299 28 58.1299 28 70 c 2,4,-1
 28 630 l 2,5,6
 28 641.155 28 641.155 37.4492 650.385 c 0,7,8
 47.2939 660 47.2939 660 58 660 c 2,9,-1
 429.541 660 l 1,10,-1
 396.384 588 l 1,11,-1
 149.854 588 l 1,12,-1
 149.854 112 l 1,13,-1
 330.146 112 l 1,14,-1
 330.146 332 l 1,15,-1
 271.342 332 l 1,16,-1
 271.342 368 l 1,17,-1
 452 368 l 1,18,-1
 452 40 l 1,19,-1
 58 40 l 2,0,1
EndSplineSet
EndChar

StartChar: Gcircumflex
Encoding: 284 284 253
Width: 480
Flags: HW
LayerCount: 2
Fore
SplineSet
278.179 875.751 m 1,0,-1
 241.287 887.221 l 1,1,-1
 204.265 875.736 l 1,2,-1
 241.276 897.7 l 1,3,-1
 278.179 875.751 l 1,0,-1
60 40 m 2,4,5
 49.0146 40 49.0146 40 39.0947 49.458 c 0,6,7
 30 58.1299 30 58.1299 30 70 c 2,8,-1
 30 630 l 2,9,10
 30 641.155 30 641.155 39.4492 650.385 c 0,11,12
 49.2939 660 49.2939 660 60 660 c 2,13,-1
 431.541 660 l 1,14,-1
 398.384 588 l 1,15,-1
 151.854 588 l 1,16,-1
 151.854 112 l 1,17,-1
 332.146 112 l 1,18,-1
 332.146 332 l 1,19,-1
 273.342 332 l 1,20,-1
 273.342 368 l 1,21,-1
 454 368 l 1,22,-1
 454 40 l 1,23,-1
 60 40 l 2,4,5
EndSplineSet
EndChar

StartChar: Gdotaccent
Encoding: 288 288 254
Width: 472
Flags: HW
LayerCount: 2
Fore
SplineSet
259.006 863 m 0,0,1
 259.006 849.228 259.006 849.228 251.701 836.562 c 0,2,3
 247.916 830 247.916 830 236.565 830 c 0,4,5
 226.189 830 226.189 830 222.606 836.385 c 0,6,7
 215.559 848.938 215.559 848.938 215.559 864 c 0,8,9
 215.559 878.062 215.559 878.062 222.606 890.615 c 0,10,11
 226.189 897 226.189 897 236.565 897 c 0,12,13
 247.916 897 247.916 897 251.84 890.197 c 0,14,15
 259.006 877.772 259.006 877.772 259.006 863 c 0,0,1
56 40 m 2,16,17
 45.0146 40 45.0146 40 35.0947 49.458 c 0,18,19
 26 58.1299 26 58.1299 26 70 c 2,20,-1
 26 630 l 2,21,22
 26 641.155 26 641.155 35.4492 650.385 c 0,23,24
 45.2939 660 45.2939 660 56 660 c 2,25,-1
 427.541 660 l 1,26,-1
 394.384 588 l 1,27,-1
 147.854 588 l 1,28,-1
 147.854 112 l 1,29,-1
 328.146 112 l 1,30,-1
 328.146 332 l 1,31,-1
 269.342 332 l 1,32,-1
 269.342 368 l 1,33,-1
 450 368 l 1,34,-1
 450 40 l 1,35,-1
 56 40 l 2,16,17
EndSplineSet
EndChar

StartChar: Hbar
Encoding: 294 294 255
Width: 672
Flags: HW
LayerCount: 2
Fore
SplineSet
232.498 332 m 1,0,-1
 232.498 40 l 1,1,-1
 124 40 l 1,2,-1
 124 550 l 1,3,-1
 24 550 l 1,4,-1
 24 570 l 1,5,-1
 124 570 l 1,6,-1
 124 660 l 1,7,-1
 232.498 660 l 1,8,-1
 232.498 570 l 1,9,-1
 439.502 570 l 1,10,-1
 439.502 660 l 1,11,-1
 548 660 l 1,12,-1
 548 570 l 1,13,-1
 648 570 l 1,14,-1
 648 550 l 1,15,-1
 548 550 l 1,16,-1
 548 40 l 1,17,-1
 439.502 40 l 1,18,-1
 439.502 332 l 1,19,-1
 232.498 332 l 1,0,-1
439.502 550 m 1,20,-1
 232.498 550 l 1,21,-1
 232.498 368 l 1,22,-1
 439.502 368 l 1,23,-1
 439.502 550 l 1,20,-1
EndSplineSet
EndChar

StartChar: Hcircumflex
Encoding: 292 292 256
Width: 484
Flags: HW
LayerCount: 2
Fore
SplineSet
278.957 875.744 m 1,0,-1
 242 887.221 l 1,1,-1
 205.043 875.744 l 1,2,-1
 242 897.7 l 1,3,-1
 278.957 875.744 l 1,0,-1
151.854 332 m 1,4,-1
 151.854 40 l 1,5,-1
 30 40 l 1,6,-1
 30 660 l 1,7,-1
 151.854 660 l 1,8,-1
 151.854 368 l 1,9,-1
 332.146 368 l 1,10,-1
 332.146 660 l 1,11,-1
 454 660 l 1,12,-1
 454 40 l 1,13,-1
 332.146 40 l 1,14,-1
 332.146 332 l 1,15,-1
 151.854 332 l 1,4,-1
EndSplineSet
EndChar

StartChar: Idotaccent
Encoding: 304 304 257
Width: 193
Flags: HW
LayerCount: 2
Fore
SplineSet
130 863 m 0,0,1
 130 850.091 130 850.091 120.206 837.914 c 0,2,3
 113.84 830 113.84 830 95 830 c 0,4,5
 77.4893 830 77.4893 830 71.5 837.652 c 0,6,7
 62 849.791 62 849.791 62 864 c 0,8,9
 62 877.209 62 877.209 71.5 889.348 c 0,10,11
 77.4893 897 77.4893 897 95 897 c 0,12,13
 113.84 897 113.84 897 120.331 888.931 c 0,14,15
 130 876.909 130 876.909 130 863 c 0,0,1
161 660 m 1,16,-1
 161 40 l 1,17,-1
 31 40 l 1,18,-1
 31 660 l 1,19,-1
 161 660 l 1,16,-1
EndSplineSet
EndChar

StartChar: Imacron
Encoding: 298 298 258
Width: 153
Flags: HW
LayerCount: 2
Fore
SplineSet
35 660 m 1,0,-1
 35 40 l 1,1,-1
 -45 40 l 1,2,-1
 -45 660 l 1,3,-1
 35 660 l 1,0,-1
EndSplineSet
EndChar

StartChar: Iogonek
Encoding: 302 302 259
Width: 203
Flags: HW
LayerCount: 2
Fore
SplineSet
25.2793 -62.8574 m 2,0,-1
 36 -51.3105 l 1,1,-1
 36 635 l 1,2,-1
 166 635 l 1,3,-1
 166 0 l 1,4,-1
 96.792 0 l 1,5,-1
 85.4258 -8.20898 l 2,6,7
 73.5107 -18.3672 73.5107 -18.3672 61.6543 -33.335 c 0,8,9
 50.0596 -48.082 50.0596 -48.082 40.9727 -65.0684 c 0,10,11
 31.6758 -82.3867 31.6758 -82.3867 26.0869 -100.938 c 0,12,13
 20 -120.797 20 -120.797 20 -138.5 c 0,14,15
 20 -189.302 20 -189.302 50.0957 -214.232 c 1,16,17
 47.1807 -213.609 47.1807 -213.609 44.334 -212.897 c 0,18,19
 25.9004 -208.146 25.9004 -208.146 12.0869 -198.64 c 0,20,21
 0.856445 -190.49 0.856445 -190.49 -6.27051 -176.376 c 0,22,23
 -13 -163.192 -13 -163.192 -13 -141.5 c 0,24,25
 -13 -124.561 -13 -124.561 -4.40625 -104.774 c 0,26,27
 4.33301 -84.2432 4.33301 -84.2432 25.2793 -62.8574 c 2,0,-1
EndSplineSet
EndChar

StartChar: Itilde
Encoding: 296 296 260
Width: 153
Flags: HW
LayerCount: 2
Fore
SplineSet
117.037 827.229 m 0,0,1
 104.138 832.784 104.138 832.784 94.3809 839.338 c 1,2,3
 124.449 829 124.449 829 152.402 829 c 0,4,5
 168.991 829 168.991 829 185.564 833.383 c 1,6,7
 180.477 828.711 180.477 828.711 176.331 826.386 c 0,8,9
 164.948 820 164.948 820 152.402 820 c 0,10,11
 135.829 820 135.829 820 117.037 827.229 c 0,0,1
31.042 886.023 m 1,12,13
 39.5557 880.521 39.5557 880.521 47.2344 874.362 c 1,14,15
 22.0371 884 22.0371 884 -7.59766 884 c 0,16,17
 -30.1172 884 -30.1172 884 -53 876.838 c 1,18,19
 -45.5186 882.618 -45.5186 882.618 -38.9316 885.637 c 0,20,21
 -22.8662 893 -22.8662 893 -7.59766 893 c 0,22,23
 11.3428 893 11.3428 893 31.042 886.023 c 1,12,13
106.402 660 m 1,24,-1
 106.402 40 l 1,25,-1
 26.4023 40 l 1,26,-1
 26.4023 660 l 1,27,-1
 106.402 660 l 1,24,-1
EndSplineSet
EndChar

StartChar: Jcircumflex
Encoding: 308 308 261
Width: 315
Flags: HW
LayerCount: 2
Fore
SplineSet
164.983 875.526 m 1,0,-1
 121.541 887.184 l 1,1,-1
 78.0986 875.526 l 1,2,-1
 121.541 897.826 l 1,3,-1
 164.983 875.526 l 1,0,-1
209.256 49.2842 m 128,-1,5
 199.973 40 199.973 40 188.541 40 c 2,6,-1
 54.1572 40 l 1,7,-1
 21 112 l 1,8,-1
 123.995 112 l 1,9,-1
 123.995 660 l 1,10,-1
 218.541 660 l 1,11,-1
 218.541 70 l 2,12,4
 218.541 58.5684 218.541 58.5684 209.256 49.2842 c 128,-1,5
EndSplineSet
EndChar

StartChar: Lacute
Encoding: 313 313 262
Width: 465
Flags: HW
LayerCount: 2
Fore
SplineSet
292.96 885.836 m 1,0,-1
 292.96 879.433 l 1,1,-1
 263.16 872.42 l 1,2,-1
 292.96 885.836 l 1,0,-1
395.384 112 m 1,3,-1
 428.541 40 l 1,4,-1
 27 40 l 1,5,-1
 27 660 l 1,6,-1
 148.451 660 l 1,7,-1
 148.451 112 l 1,8,-1
 395.384 112 l 1,3,-1
EndSplineSet
EndChar

StartChar: Lslash
Encoding: 321 321 263
Width: 515
Flags: HW
LayerCount: 2
Fore
SplineSet
451.384 112 m 1,0,-1
 484.541 40 l 1,1,-1
 83 40 l 1,2,-1
 83 274.927 l 1,3,-1
 27 242.927 l 1,4,-1
 27 265.787 l 1,5,-1
 83 297.787 l 1,6,-1
 83 660 l 1,7,-1
 191.868 660 l 1,8,-1
 191.868 370.886 l 1,9,-1
 307.598 459.886 l 1,10,-1
 307.598 439.243 l 1,11,-1
 191.868 350.243 l 1,12,-1
 191.868 112 l 1,13,-1
 451.384 112 l 1,0,-1
EndSplineSet
EndChar

StartChar: Nacute
Encoding: 323 323 264
Width: 479
Flags: HW
LayerCount: 2
Fore
SplineSet
308.052 885.945 m 1,0,-1
 308.052 879.467 l 1,1,-1
 277.078 872.37 l 1,2,-1
 308.052 885.945 l 1,0,-1
148.854 588 m 1,3,-1
 148.854 40 l 1,4,-1
 27 40 l 1,5,-1
 27 660 l 1,6,-1
 421 660 l 2,7,8
 431.706 660 431.706 660 441.551 650.385 c 0,9,10
 451 641.155 451 641.155 451 630 c 2,11,-1
 451 40 l 1,12,-1
 329.146 40 l 1,13,-1
 329.146 588 l 1,14,-1
 148.854 588 l 1,3,-1
EndSplineSet
EndChar

StartChar: Ncaron
Encoding: 327 327 265
Width: 484
Flags: HW
LayerCount: 2
Fore
SplineSet
242 854.779 m 1,0,-1
 278.957 866.256 l 1,1,-1
 242 844.3 l 1,2,-1
 205.043 866.256 l 1,3,-1
 242 854.779 l 1,0,-1
151.854 588 m 1,4,-1
 151.854 40 l 1,5,-1
 30 40 l 1,6,-1
 30 660 l 1,7,-1
 424 660 l 2,8,9
 434.706 660 434.706 660 444.551 650.385 c 0,10,11
 454 641.155 454 641.155 454 630 c 2,12,-1
 454 40 l 1,13,-1
 332.146 40 l 1,14,-1
 332.146 588 l 1,15,-1
 151.854 588 l 1,4,-1
EndSplineSet
EndChar

StartChar: Ohungarumlaut
Encoding: 336 336 266
Width: 478
Flags: HW
LayerCount: 2
Fore
SplineSet
57 40 m 2,0,1
 46.0146 40 46.0146 40 36.0947 49.458 c 0,2,3
 27 58.1299 27 58.1299 27 70 c 2,4,-1
 27 630 l 2,5,6
 27 641.155 27 641.155 36.4492 650.385 c 0,7,8
 46.2939 660 46.2939 660 57 660 c 2,9,-1
 421 660 l 2,10,11
 431.706 660 431.706 660 441.551 650.385 c 0,12,13
 451 641.155 451 641.155 451 630 c 2,14,-1
 451 70 l 2,15,16
 451 58.1289 451 58.1289 441.896 49.4492 c 0,17,18
 431.986 40 431.986 40 421 40 c 2,19,-1
 57 40 l 2,0,1
329.146 588 m 1,20,-1
 148.854 588 l 1,21,-1
 148.854 112 l 1,22,-1
 329.146 112 l 1,23,-1
 329.146 588 l 1,20,-1
EndSplineSet
EndChar

StartChar: Omacron
Encoding: 332 332 267
Width: 496
Flags: HW
LayerCount: 2
Fore
SplineSet
66 40 m 2,0,1
 55.0146 40 55.0146 40 45.0947 49.458 c 0,2,3
 36 58.1299 36 58.1299 36 70 c 2,4,-1
 36 630 l 2,5,6
 36 641.155 36 641.155 45.4492 650.385 c 0,7,8
 55.2939 660 55.2939 660 66 660 c 2,9,-1
 430 660 l 2,10,11
 440.706 660 440.706 660 450.551 650.385 c 0,12,13
 460 641.155 460 641.155 460 630 c 2,14,-1
 460 70 l 2,15,16
 460 58.1289 460 58.1289 450.896 49.4492 c 0,17,18
 440.986 40 440.986 40 430 40 c 2,19,-1
 66 40 l 2,0,1
338.146 588 m 1,20,-1
 157.854 588 l 1,21,-1
 157.854 112 l 1,22,-1
 338.146 112 l 1,23,-1
 338.146 588 l 1,20,-1
EndSplineSet
EndChar

StartChar: Racute
Encoding: 340 340 268
Width: 495
Flags: HW
LayerCount: 2
Fore
SplineSet
315.045 885.994 m 1,0,-1
 315.045 879.48 l 1,1,-1
 283.702 872.347 l 1,2,-1
 315.045 885.994 l 1,0,-1
149.029 588 m 1,3,-1
 149.029 40 l 1,4,-1
 27 40 l 1,5,-1
 27 660 l 1,6,-1
 420 660 l 2,7,8
 431.432 660 431.432 660 440.716 650.715 c 128,-1,9
 450 641.431 450 641.431 450 630 c 2,10,-1
 450 362 l 2,11,12
 450 350.568 450 350.568 440.715 341.284 c 128,-1,13
 431.432 332 431.432 332 420 332 c 2,14,-1
 320.723 332 l 1,15,-1
 450.829 40 l 1,16,-1
 355.296 40 l 1,17,-1
 244.505 368 l 1,18,-1
 329.617 368 l 1,19,-1
 329.617 588 l 1,20,-1
 149.029 588 l 1,3,-1
EndSplineSet
EndChar

StartChar: Rcaron
Encoding: 344 344 269
Width: 500
Flags: HW
LayerCount: 2
Fore
SplineSet
248.443 854.779 m 1,0,-1
 285.705 866.288 l 1,1,-1
 248.486 844.298 l 1,2,-1
 211.689 866.231 l 1,3,-1
 248.443 854.779 l 1,0,-1
152.029 588 m 1,4,-1
 152.029 40 l 1,5,-1
 30 40 l 1,6,-1
 30 660 l 1,7,-1
 423 660 l 2,8,9
 434.432 660 434.432 660 443.716 650.715 c 128,-1,10
 453 641.431 453 641.431 453 630 c 2,11,-1
 453 362 l 2,12,13
 453 350.568 453 350.568 443.715 341.284 c 128,-1,14
 434.432 332 434.432 332 423 332 c 2,15,-1
 323.723 332 l 1,16,-1
 453.829 40 l 1,17,-1
 358.296 40 l 1,18,-1
 247.505 368 l 1,19,-1
 332.617 368 l 1,20,-1
 332.617 588 l 1,21,-1
 152.029 588 l 1,4,-1
EndSplineSet
EndChar

StartChar: Sacute
Encoding: 346 346 270
Width: 472
Flags: HW
LayerCount: 2
Fore
SplineSet
304.77 885.945 m 1,0,-1
 304.77 879.467 l 1,1,-1
 273.795 872.37 l 1,2,-1
 304.77 885.945 l 1,0,-1
437.896 49.4492 m 0,3,4
 427.986 40 427.986 40 417 40 c 2,5,-1
 78.6162 40 l 1,6,-1
 45.459 112 l 1,7,-1
 325.146 112 l 1,8,-1
 325.146 332 l 1,9,-1
 53 332 l 2,10,11
 42.0137 332 42.0137 332 32.1035 341.449 c 0,12,13
 23 350.129 23 350.129 23 362 c 2,14,-1
 23 630 l 2,15,16
 23 641.155 23 641.155 32.4492 650.385 c 0,17,18
 42.2939 660 42.2939 660 53 660 c 2,19,-1
 447 660 l 1,20,-1
 447 588 l 1,21,-1
 144.854 588 l 1,22,-1
 144.854 368 l 1,23,-1
 417 368 l 2,24,25
 427.707 368 427.707 368 437.551 358.385 c 0,26,27
 447 349.156 447 349.156 447 338 c 2,28,-1
 447 70 l 2,29,30
 447 58.1289 447 58.1289 437.896 49.4492 c 0,3,4
EndSplineSet
EndChar

StartChar: Scaron
Encoding: 352 352 271
Width: 477
Flags: HW
LayerCount: 2
Fore
SplineSet
238.713 854.779 m 1,0,-1
 275.735 866.264 l 1,1,-1
 238.724 844.3 l 1,2,-1
 201.821 866.249 l 1,3,-1
 238.713 854.779 l 1,0,-1
440.896 49.4492 m 0,4,5
 430.986 40 430.986 40 420 40 c 2,6,-1
 81.6162 40 l 1,7,-1
 48.459 112 l 1,8,-1
 328.146 112 l 1,9,-1
 328.146 332 l 1,10,-1
 56 332 l 2,11,12
 45.0137 332 45.0137 332 35.1035 341.449 c 0,13,14
 26 350.129 26 350.129 26 362 c 2,15,-1
 26 630 l 2,16,17
 26 641.155 26 641.155 35.4492 650.385 c 0,18,19
 45.2939 660 45.2939 660 56 660 c 2,20,-1
 450 660 l 1,21,-1
 450 588 l 1,22,-1
 147.854 588 l 1,23,-1
 147.854 368 l 1,24,-1
 420 368 l 2,25,26
 430.707 368 430.707 368 440.551 358.385 c 0,27,28
 450 349.156 450 349.156 450 338 c 2,29,-1
 450 70 l 2,30,31
 450 58.1289 450 58.1289 440.896 49.4492 c 0,4,5
EndSplineSet
EndChar

StartChar: Scedilla
Encoding: 350 350 272
Width: 473
Flags: HW
LayerCount: 2
Fore
SplineSet
318.796 -57.2422 m 1,0,-1
 22.9863 -125.602 l 1,1,-1
 22.0166 -125.81 l 2,2,3
 21.7432 -125.868 21.7432 -125.868 25.8818 -126.495 c 128,-1,4
 30.0205 -127.122 30.0205 -127.122 36.3047 -128.001 c 128,-1,5
 42.5879 -128.88 42.5879 -128.88 48.7031 -129.721 c 128,-1,6
 54.8184 -130.562 54.8184 -130.562 59.5986 -131.211 c 128,-1,7
 64.3779 -131.859 64.3779 -131.859 64.4072 -131.863 c 2,8,-1
 79.5264 -128.548 l 2,9,10
 79.7529 -128.498 79.7529 -128.498 80.0654 -128.431 c 128,-1,11
 80.3779 -128.364 80.3779 -128.364 80.9141 -128.242 c 128,-1,12
 81.4824 -128.12 81.4824 -128.12 81.791 -128.052 c 128,-1,13
 82.1006 -127.983 82.1006 -127.983 82.3086 -127.937 c 2,14,-1
 115.826 -120.585 l 2,15,16
 116.531 -120.43 116.531 -120.43 116.823 -120.364 c 128,-1,17
 117.114 -120.299 117.114 -120.299 117.825 -120.146 c 2,18,-1
 118.252 -120.053 l 1,19,-1
 121.875 -119.259 l 2,20,21
 122.597 -119.098 122.597 -119.098 122.899 -119.032 c 128,-1,22
 123.201 -118.968 123.201 -118.968 123.92 -118.81 c 128,-1,23
 124.591 -118.662 124.591 -118.662 125.004 -118.577 c 128,-1,24
 125.417 -118.491 125.417 -118.491 125.553 -118.452 c 2,25,-1
 128.246 -117.861 l 2,26,27
 129.308 -117.628 129.308 -117.628 130.5 -117.366 c 2,28,-1
 132.96 -116.827 l 1,29,-1
 133.504 -116.708 l 1,30,-1
 142.405 -114.751 l 1,31,-1
 142.953 -114.626 l 2,32,33
 143.699 -114.447 143.699 -114.447 143.991 -114.384 c 128,-1,34
 144.282 -114.32 144.282 -114.32 145.145 -114.123 c 2,35,-1
 158.68 -110.884 l 1,36,-1
359.264 -59 m 128,-1,38
 346.383 -59 346.383 -59 333.183 -61.4258 c 1,39,-1
 329.023 6.23535 l 1,40,-1
 215.631 6.23535 l 1,41,-1
 184.251 89.1445 l 1,42,-1
 467.667 89.1445 l 1,43,-1
 467.667 332 l 1,44,-1
 191.579 332 l 2,45,46
 181.713 332 181.713 332 172.731 341.34 c 0,47,48
 164.369 350.036 164.369 350.036 164.369 362 c 2,49,-1
 164.369 630 l 2,50,51
 164.369 641.247 164.369 641.247 173.052 650.496 c 0,52,53
 181.973 660 181.973 660 191.579 660 c 2,54,-1
 590.007 660 l 1,55,-1
 590.007 588 l 1,56,-1
 276.731 588 l 1,57,-1
 276.731 368 l 1,58,-1
 560.007 368 l 2,59,60
 570.413 368 570.413 368 580.198 357.496 c 128,-1,61
 590.007 346.968 590.007 346.968 590.007 333.946 c 2,62,-1
 590.007 39.4229 l 2,63,64
 590.007 25.6035 590.007 25.6035 580.541 15.6846 c 0,65,66
 570.694 5.36719 570.694 5.36719 560.007 5.36719 c 2,67,-1
 388.756 5.36719 l 1,68,-1
 384.545 -62.0801 l 1,69,37
 372.099 -59 372.099 -59 359.264 -59 c 128,-1,38
432.187 -98.25 m 0,70,71
 431.923 -97.7158 431.923 -97.7158 431.187 -96.2705 c 1,72,73
 434.353 -99.0869 434.353 -99.0869 436.681 -101.725 c 0,74,75
 442.889 -108.757 442.889 -108.757 446.648 -118.93 c 0,76,77
 450.223 -128.604 450.223 -128.604 450.223 -144 c 0,78,79
 450.223 -164.184 450.223 -164.184 444.058 -175.797 c 0,80,81
 437.03 -189.036 437.03 -189.036 425.834 -196.699 c 0,82,83
 418.621 -201.636 418.621 -201.636 409.999 -205.124 c 1,84,85
 418.636 -198.117 418.636 -198.117 425.089 -189.638 c 0,86,87
 441.035 -168.681 441.035 -168.681 441.035 -138 c 0,88,89
 441.035 -116.276 441.035 -116.276 432.187 -98.25 c 0,70,71
EndSplineSet
EndChar

StartChar: Scircumflex
Encoding: 348 348 273
Width: 477
Flags: HW
LayerCount: 2
Fore
SplineSet
275.735 875.736 m 1,0,-1
 238.713 887.221 l 1,1,-1
 201.821 875.751 l 1,2,-1
 238.724 897.7 l 1,3,-1
 275.735 875.736 l 1,0,-1
440.896 49.4492 m 0,4,5
 430.986 40 430.986 40 420 40 c 2,6,-1
 81.6162 40 l 1,7,-1
 48.459 112 l 1,8,-1
 328.146 112 l 1,9,-1
 328.146 332 l 1,10,-1
 56 332 l 2,11,12
 45.0137 332 45.0137 332 35.1035 341.449 c 0,13,14
 26 350.129 26 350.129 26 362 c 2,15,-1
 26 630 l 2,16,17
 26 641.155 26 641.155 35.4492 650.385 c 0,18,19
 45.2939 660 45.2939 660 56 660 c 2,20,-1
 450 660 l 1,21,-1
 450 588 l 1,22,-1
 147.854 588 l 1,23,-1
 147.854 368 l 1,24,-1
 420 368 l 2,25,26
 430.707 368 430.707 368 440.551 358.385 c 0,27,28
 450 349.156 450 349.156 450 338 c 2,29,-1
 450 70 l 2,30,31
 450 58.1289 450 58.1289 440.896 49.4492 c 0,4,5
EndSplineSet
EndChar

StartChar: Tbar
Encoding: 358 358 274
Width: 462
Flags: HW
LayerCount: 2
Fore
SplineSet
443 588 m 1,0,-1
 274.954 588 l 1,1,-1
 274.954 40 l 1,2,-1
 187.046 40 l 1,3,-1
 187.046 588 l 1,4,-1
 19 588 l 1,5,-1
 19 660 l 1,6,-1
 443 660 l 1,7,-1
 443 588 l 1,0,-1
EndSplineSet
EndChar

StartChar: Tcaron
Encoding: 356 356 275
Width: 446
Flags: HW
LayerCount: 2
Fore
SplineSet
223 854.779 m 1,0,-1
 259.957 866.256 l 1,1,-1
 223 844.3 l 1,2,-1
 186.043 866.256 l 1,3,-1
 223 854.779 l 1,0,-1
266.954 588 m 1,4,-1
 266.954 40 l 1,5,-1
 179.046 40 l 1,6,-1
 179.046 588 l 1,7,-1
 11 588 l 1,8,-1
 11 660 l 1,9,-1
 435 660 l 1,10,-1
 435 588 l 1,11,-1
 266.954 588 l 1,4,-1
EndSplineSet
EndChar

StartChar: Ubreve
Encoding: 364 364 276
Width: 481
Flags: HW
LayerCount: 2
Fore
SplineSet
58 40 m 2,0,1
 47.0146 40 47.0146 40 37.0947 49.458 c 0,2,3
 28 58.1299 28 58.1299 28 70 c 2,4,-1
 28 660 l 1,5,-1
 149.854 660 l 1,6,-1
 149.854 112 l 1,7,-1
 330.146 112 l 1,8,-1
 330.146 660 l 1,9,-1
 452 660 l 1,10,-1
 452 40 l 1,11,-1
 58 40 l 2,0,1
EndSplineSet
EndChar

StartChar: Uhungarumlaut
Encoding: 368 368 277
Width: 479
Flags: HW
LayerCount: 2
Fore
SplineSet
57 40 m 2,0,1
 46.0146 40 46.0146 40 36.0947 49.458 c 0,2,3
 27 58.1299 27 58.1299 27 70 c 2,4,-1
 27 660 l 1,5,-1
 148.854 660 l 1,6,-1
 148.854 112 l 1,7,-1
 329.146 112 l 1,8,-1
 329.146 660 l 1,9,-1
 451 660 l 1,10,-1
 451 40 l 1,11,-1
 57 40 l 2,0,1
EndSplineSet
EndChar

StartChar: Umacron
Encoding: 362 362 278
Width: 496
Flags: HW
LayerCount: 2
Fore
SplineSet
66 40 m 2,0,1
 55.0146 40 55.0146 40 45.0947 49.458 c 0,2,3
 36 58.1299 36 58.1299 36 70 c 2,4,-1
 36 660 l 1,5,-1
 157.854 660 l 1,6,-1
 157.854 112 l 1,7,-1
 338.146 112 l 1,8,-1
 338.146 660 l 1,9,-1
 460 660 l 1,10,-1
 460 40 l 1,11,-1
 66 40 l 2,0,1
EndSplineSet
EndChar

StartChar: Uogonek
Encoding: 370 370 279
Width: 496
Flags: HW
LayerCount: 2
Fore
SplineSet
66 0 m 2,0,1
 55.0137 0 55.0137 0 45.126 9.42871 c 0,2,3
 36 18.1299 36 18.1299 36 30 c 2,4,-1
 36 620 l 1,5,-1
 157.854 620 l 1,6,-1
 157.854 72 l 1,7,-1
 338.146 72 l 1,8,-1
 338.146 620 l 1,9,-1
 460 620 l 1,10,-1
 460 0 l 1,11,-1
 390.792 0 l 1,12,-1
 379.426 -10.1035 l 2,13,14
 367.512 -20.6934 367.512 -20.6934 355.652 -36.2969 c 128,-1,15
 343.764 -51.9414 343.764 -51.9414 336.266 -70.1279 c 0,16,17
 329.608 -88.0771 329.608 -88.0771 325.642 -107.125 c 0,18,19
 321.355 -127.721 321.355 -127.721 321.355 -146 c 0,20,21
 321.355 -190.761 321.355 -190.761 343.402 -213.428 c 1,22,23
 330.315 -209.141 330.315 -209.141 320.913 -200.736 c 0,24,25
 313.125 -193.773 313.125 -193.773 308.03 -181.344 c 128,-1,26
 303.007 -169.085 303.007 -169.085 303.007 -149 c 0,27,28
 303.007 -130.163 303.007 -130.163 308.972 -109.371 c 0,29,30
 315.157 -87.8096 315.157 -87.8096 329.284 -64.8262 c 2,31,-1
 372.362 0 l 1,32,-1
 66 0 l 2,0,1
EndSplineSet
EndChar

StartChar: Uring
Encoding: 366 366 280
Width: 477
Flags: HW
LayerCount: 2
Fore
SplineSet
204.417 863.227 m 0,0,1
 201.217 873.64 201.217 873.64 201.217 885 c 128,-1,2
 201.217 896.36 201.217 896.36 204.417 906.773 c 0,3,4
 205.969 911.822 205.969 911.822 208.008 916.175 c 2,5,-1
 210.938 922.432 l 1,6,-1
 187.771 937.307 l 1,7,-1
 184.361 930.354 l 2,8,9
 174.387 910.015 174.387 910.015 174.387 885 c 128,-1,10
 174.387 859.985 174.387 859.985 184.363 839.645 c 2,11,-1
 187.771 832.693 l 1,12,-1
 210.939 847.566 l 1,13,-1
 208.008 853.824 l 2,14,15
 205.969 858.179 205.969 858.179 204.417 863.227 c 0,0,1
224.877 936.091 m 0,16,17
 231.418 940 231.418 940 238 940 c 128,-1,18
 244.583 940 244.583 940 251.316 935.976 c 0,19,20
 254.033 934.352 254.033 934.352 256.872 931.767 c 2,21,-1
 262.475 926.664 l 1,22,-1
 278.866 950.225 l 1,23,-1
 274.052 954.813 l 2,24,25
 258.122 970 258.122 970 238 970 c 128,-1,26
 217.875 970 217.875 970 201.945 954.811 c 2,27,-1
 197.131 950.221 l 1,28,-1
 213.521 926.662 l 1,29,-1
 219.125 931.765 l 2,30,31
 221.965 934.351 221.965 934.351 224.877 936.091 c 0,16,17
271.583 906.773 m 0,32,33
 274.783 896.36 274.783 896.36 274.783 885 c 128,-1,34
 274.783 873.64 274.783 873.64 271.583 863.227 c 0,35,36
 270.031 858.179 270.031 858.179 267.992 853.823 c 2,37,-1
 265.061 847.566 l 1,38,-1
 288.229 832.691 l 1,39,-1
 291.638 839.645 l 2,40,41
 301.613 859.986 301.613 859.986 301.613 885 c 128,-1,42
 301.613 910.014 301.613 910.014 291.638 930.355 c 2,43,-1
 288.229 937.309 l 1,44,-1
 265.061 922.434 l 1,45,-1
 267.992 916.177 l 2,46,47
 270.031 911.821 270.031 911.821 271.583 906.773 c 0,32,33
56 40 m 2,48,49
 45.0146 40 45.0146 40 35.0947 49.458 c 0,50,51
 26 58.1299 26 58.1299 26 70 c 2,52,-1
 26 660 l 1,53,-1
 147.854 660 l 1,54,-1
 147.854 112 l 1,55,-1
 328.146 112 l 1,56,-1
 328.146 660 l 1,57,-1
 450 660 l 1,58,-1
 450 40 l 1,59,-1
 56 40 l 2,48,49
222.152 802.097 m 1,60,-1
 228.828 800.844 l 2,61,62
 233.324 800 233.324 800 238 800 c 0,63,64
 258.127 800 258.127 800 274.057 815.191 c 2,65,-1
 278.869 819.781 l 1,66,-1
 262.478 843.339 l 1,67,-1
 256.874 838.235 l 2,68,69
 254.035 835.648 254.035 835.648 251.046 833.863 c 0,70,71
 244.582 830 244.582 830 238 830 c 0,72,73
 235.62 830 235.62 830 233.222 830.439 c 2,74,-1
 226.253 831.717 l 1,75,-1
 222.152 802.097 l 1,60,-1
EndSplineSet
EndChar

StartChar: Utilde
Encoding: 360 360 281
Width: 487
Flags: HW
LayerCount: 2
Fore
SplineSet
221.867 871.064 m 0,0,1
 196.811 884 196.811 884 171.289 884 c 0,2,3
 156.139 884 156.139 884 138.646 878.01 c 1,4,5
 145.143 883.188 145.143 883.188 150.539 885.993 c 2,6,-1
 150.72 886.087 l 2,7,8
 161.558 893 161.558 893 171.289 893 c 0,9,10
 184.485 893 184.485 893 198.158 885.94 c 0,11,12
 216.417 876.51 216.417 876.51 234.38 865.17 c 0,13,14
 254.245 852.622 254.245 852.622 273.785 842.144 c 0,15,16
 298.29 829 298.29 829 321.883 829 c 0,17,18
 332.761 829 332.761 829 345.567 832.512 c 1,19,20
 341.188 828.356 341.188 828.356 337.522 826.119 c 2,21,-1
 337.169 825.903 l 1,22,-1
 336.743 825.595 l 2,23,24
 329.46 820 329.46 820 321.883 820 c 0,25,26
 311.053 820 311.053 820 298.268 826.857 c 0,27,28
 280.494 836.391 280.494 836.391 262.375 847.835 c 0,29,30
 242.338 860.486 242.338 860.486 221.867 871.064 c 0,0,1
61 40 m 2,31,32
 50.0146 40 50.0146 40 40.0947 49.458 c 0,33,34
 31 58.1299 31 58.1299 31 70 c 2,35,-1
 31 660 l 1,36,-1
 152.854 660 l 1,37,-1
 152.854 112 l 1,38,-1
 333.146 112 l 1,39,-1
 333.146 660 l 1,40,-1
 455 660 l 1,41,-1
 455 40 l 1,42,-1
 61 40 l 2,31,32
EndSplineSet
EndChar

StartChar: Wacute
Encoding: 7810 7810 282
Width: 908
Flags: HW
LayerCount: 2
Fore
SplineSet
346.634 814.442 m 1,0,-1
 346.634 820.651 l 1,1,-1
 559.366 892.938 l 1,2,-1
 559.366 852.228 l 1,3,-1
 346.634 814.442 l 1,0,-1
25 70 m 2,4,-1
 25 675 l 1,5,-1
 181.997 675 l 1,6,-1
 181.997 127 l 1,7,-1
 379.006 127 l 1,8,-1
 379.006 675 l 1,9,-1
 526.994 675 l 1,10,-1
 526.994 127 l 1,11,-1
 724.003 127 l 1,12,-1
 724.003 675 l 1,13,-1
 881 675 l 1,14,-1
 881 70 l 2,15,16
 881 52.3555 881 52.3555 867.322 38.6777 c 128,-1,17
 853.645 25 853.645 25 836 25 c 2,18,-1
 70 25 l 2,19,20
 52.3555 25 52.3555 25 38.6777 38.6777 c 128,-1,21
 25 52.3555 25 52.3555 25 70 c 2,4,-1
EndSplineSet
EndChar

StartChar: Wcircumflex
Encoding: 372 372 283
Width: 850
Flags: HW
LayerCount: 2
Fore
SplineSet
470.647 875.165 m 1,0,-1
 425 887.121 l 1,1,-1
 379.353 875.165 l 1,2,-1
 425 898.037 l 1,3,-1
 470.647 875.165 l 1,0,-1
57 40 m 2,4,5
 45.5684 40 45.5684 40 36.2852 49.2852 c 128,-1,6
 27 58.5684 27 58.5684 27 70 c 2,7,-1
 27 660 l 1,8,-1
 153.279 660 l 1,9,-1
 153.279 112 l 1,10,-1
 369.171 112 l 1,11,-1
 369.171 660 l 1,12,-1
 480.829 660 l 1,13,-1
 480.829 112 l 1,14,-1
 696.721 112 l 1,15,-1
 696.721 660 l 1,16,-1
 823 660 l 1,17,-1
 823 70 l 2,18,19
 823 58.5684 823 58.5684 813.715 49.2842 c 128,-1,20
 804.431 40 804.431 40 793 40 c 2,21,-1
 57 40 l 2,4,5
EndSplineSet
EndChar

StartChar: Wdieresis
Encoding: 7812 7812 284
Width: 913
Flags: HW
LayerCount: 2
Fore
SplineSet
561.441 800 m 0,0,1
 538.486 800 538.486 800 528.78 813.408 c 0,2,3
 517.045 829.618 517.045 829.618 517.045 849 c 0,4,5
 517.045 867.382 517.045 867.382 528.78 883.592 c 0,6,7
 538.486 897 538.486 897 561.441 897 c 0,8,9
 585.513 897 585.513 897 595.682 883.331 c 0,10,11
 607.688 867.193 607.688 867.193 607.688 848 c 0,12,13
 607.688 829.807 607.688 829.807 595.682 813.669 c 0,14,15
 585.513 800 585.513 800 561.441 800 c 0,0,1
348.709 800 m 0,16,17
 325.753 800 325.753 800 316.047 813.408 c 0,18,19
 304.312 829.619 304.312 829.619 304.312 849 c 0,20,21
 304.312 867.381 304.312 867.381 316.047 883.592 c 0,22,23
 325.753 897 325.753 897 348.709 897 c 0,24,25
 372.78 897 372.78 897 382.949 883.331 c 0,26,27
 394.955 867.193 394.955 867.193 394.955 848 c 0,28,29
 394.955 829.807 394.955 829.807 382.949 813.669 c 0,30,31
 372.78 800 372.78 800 348.709 800 c 0,16,17
28 70 m 2,32,-1
 28 675 l 1,33,-1
 184.997 675 l 1,34,-1
 184.997 127 l 1,35,-1
 382.006 127 l 1,36,-1
 382.006 675 l 1,37,-1
 529.994 675 l 1,38,-1
 529.994 127 l 1,39,-1
 727.003 127 l 1,40,-1
 727.003 675 l 1,41,-1
 884 675 l 1,42,-1
 884 70 l 2,43,44
 884 52.3555 884 52.3555 870.322 38.6777 c 128,-1,45
 856.645 25 856.645 25 839 25 c 2,46,-1
 73 25 l 2,47,48
 55.3555 25 55.3555 25 41.6777 38.6777 c 128,-1,49
 28 52.3555 28 52.3555 28 70 c 2,32,-1
EndSplineSet
EndChar

StartChar: Wgrave
Encoding: 7808 7808 285
Width: 908
Flags: HW
LayerCount: 2
Fore
SplineSet
347.634 852.228 m 1,0,-1
 347.634 892.938 l 1,1,-1
 560.366 820.651 l 1,2,-1
 560.366 814.442 l 1,3,-1
 347.634 852.228 l 1,0,-1
26 70 m 2,4,-1
 26 675 l 1,5,-1
 182.997 675 l 1,6,-1
 182.997 127 l 1,7,-1
 380.006 127 l 1,8,-1
 380.006 675 l 1,9,-1
 527.994 675 l 1,10,-1
 527.994 127 l 1,11,-1
 725.003 127 l 1,12,-1
 725.003 675 l 1,13,-1
 882 675 l 1,14,-1
 882 70 l 2,15,16
 882 52.3555 882 52.3555 868.322 38.6777 c 128,-1,17
 854.645 25 854.645 25 837 25 c 2,18,-1
 71 25 l 2,19,20
 53.3555 25 53.3555 25 39.6777 38.6777 c 128,-1,21
 26 52.3555 26 52.3555 26 70 c 2,4,-1
EndSplineSet
EndChar

StartChar: Ycircumflex
Encoding: 374 374 286
Width: 559
Flags: HW
LayerCount: 2
Fore
SplineSet
286.184 875.642 m 1,0,-1
 247.446 887.203 l 1,1,-1
 208.709 875.642 l 1,2,-1
 247.446 897.759 l 1,3,-1
 286.184 875.642 l 1,0,-1
295.356 326.374 m 1,4,-1
 295.356 40 l 1,5,-1
 199.537 40 l 1,6,-1
 199.537 326.336 l 1,7,-1
 10 660 l 1,8,-1
 156.919 660 l 1,9,-1
 247.446 474.312 l 1,10,-1
 337.975 660 l 1,11,-1
 485.542 660 l 1,12,-1
 295.356 326.374 l 1,4,-1
EndSplineSet
EndChar

StartChar: Ygrave
Encoding: 7922 7922 287
Width: 616
Flags: HW
LayerCount: 2
Fore
SplineSet
188.243 852.228 m 1,0,-1
 188.243 892.938 l 1,1,-1
 386.994 820.651 l 1,2,-1
 386.994 814.442 l 1,3,-1
 188.243 852.228 l 1,0,-1
218.488 25 m 1,4,-1
 218.488 322.255 l 1,5,-1
 9 675 l 1,6,-1
 195.358 675 l 1,7,-1
 287.619 506.239 l 1,8,-1
 379.88 675 l 1,9,-1
 567.016 675 l 1,10,-1
 356.75 322.28 l 1,11,-1
 356.75 25 l 1,12,-1
 218.488 25 l 1,4,-1
EndSplineSet
EndChar

StartChar: Zacute
Encoding: 377 377 288
Width: 467
Flags: HW
LayerCount: 2
Fore
SplineSet
296.033 885.945 m 1,0,-1
 296.033 879.467 l 1,1,-1
 265.058 872.37 l 1,2,-1
 296.033 885.945 l 1,0,-1
444 112 m 1,3,-1
 444 40 l 1,4,-1
 20 40 l 1,5,-1
 20 138.578 l 1,6,-1
 311.28 588 l 1,7,-1
 20 588 l 1,8,-1
 20 660 l 1,9,-1
 444 660 l 1,10,-1
 444 561.422 l 1,11,-1
 152.72 112 l 1,12,-1
 444 112 l 1,3,-1
EndSplineSet
EndChar

StartChar: Zcaron
Encoding: 381 381 289
Width: 474
Flags: HW
LayerCount: 2
Fore
SplineSet
232.01 854.779 m 1,0,-1
 268.508 866.204 l 1,1,-1
 231.928 844.299 l 1,2,-1
 194.541 866.311 l 1,3,-1
 232.01 854.779 l 1,0,-1
449 112 m 1,4,-1
 449 40 l 1,5,-1
 25 40 l 1,6,-1
 25 138.578 l 1,7,-1
 316.28 588 l 1,8,-1
 25 588 l 1,9,-1
 25 660 l 1,10,-1
 449 660 l 1,11,-1
 449 561.422 l 1,12,-1
 157.72 112 l 1,13,-1
 449 112 l 1,4,-1
EndSplineSet
EndChar

